<?xml version="1.0" encoding="UTF-8"?>
<svg version="1.1" xmlns="http://www.w3.org/2000/svg" width="522" height="201">
<path d="M0 0 C0.87206589 -0.00570007 1.74413177 -0.01140015 2.6426239 -0.01727295 C4.48219617 -0.02666286 6.3217848 -0.03323281 8.16137695 -0.03710938 C10.90412897 -0.04671705 13.64609812 -0.07775747 16.38867188 -0.109375 C28.72812612 -0.18364091 40.50764925 0.95678693 52.63671875 3.203125 C53.7764917 3.41259766 54.91626465 3.62207031 56.09057617 3.83789062 C58.767024 4.36650531 61.41872359 4.95379889 64.07421875 5.578125 C65.37842773 5.85269531 65.37842773 5.85269531 66.70898438 6.1328125 C67.9706543 6.42671875 67.9706543 6.42671875 69.2578125 6.7265625 C69.98411865 6.89075684 70.7104248 7.05495117 71.45874023 7.22412109 C74.64603225 8.65681261 76.39056131 10.53623837 78.63671875 13.203125 C79.25817871 16.30278015 79.25817871 16.30278015 79.25195312 19.8190918 C79.25750214 20.46390503 79.26305115 21.10871826 79.26876831 21.77307129 C79.28055136 23.90025874 79.25627398 26.02530555 79.23046875 28.15234375 C79.22875447 29.6490723 79.22882655 31.14580386 79.23059082 32.64253235 C79.22893736 35.78582384 79.21026274 38.92840252 79.17871094 42.0715332 C79.13947271 46.04666782 79.13489067 50.02085979 79.14177704 53.99615002 C79.19689564 100.86019125 79.19689564 100.86019125 67.63671875 119.203125 C67.16234375 120.01910156 66.68796875 120.83507812 66.19921875 121.67578125 C55.53120123 139.35802029 37.12242627 157.95956552 16.63671875 163.203125 C8.15675068 164.50297412 2.02993852 162.21999918 -5.36328125 158.203125 C-6.25144531 157.72617188 -7.13960937 157.24921875 -8.0546875 156.7578125 C-10.17303454 155.59752852 -12.27429366 154.4152536 -14.36328125 153.203125 C-14.36328125 152.543125 -14.36328125 151.883125 -14.36328125 151.203125 C-15.08644531 150.96078125 -15.80960938 150.7184375 -16.5546875 150.46875 C-21.64506378 148.17489476 -25.34742494 144.00762045 -29.36328125 140.203125 C-30.01683594 139.60242188 -30.67039062 139.00171875 -31.34375 138.3828125 C-32.74837716 137.05492269 -34.06644401 135.63647142 -35.36328125 134.203125 C-35.36328125 133.213125 -35.36328125 132.223125 -35.36328125 131.203125 C-36.35328125 130.873125 -37.34328125 130.543125 -38.36328125 130.203125 C-40.11049084 127.75221998 -41.66149764 125.35595951 -43.17578125 122.765625 C-43.83791626 121.6377356 -43.83791626 121.6377356 -44.51342773 120.48706055 C-51.33208645 108.41560162 -55.47195533 95.30551445 -55.55615234 81.40942383 C-55.56432983 80.65258804 -55.57250732 79.89575226 -55.58093262 79.11598206 C-55.60559442 76.63071459 -55.62224331 74.14550303 -55.63671875 71.66015625 C-55.64204243 70.80886328 -55.6473661 69.9575703 -55.6528511 69.08048058 C-55.67948526 64.5836922 -55.69890022 60.0869308 -55.71337891 55.59008789 C-55.72677095 51.86816115 -55.75473288 48.14677582 -55.79541016 44.42504883 C-55.84458579 39.92472752 -55.86947902 35.42490065 -55.87660599 30.92432213 C-55.88333337 29.21022822 -55.898594 27.49614602 -55.9224968 25.78220558 C-55.95397939 23.39042412 -55.95421312 21.00057522 -55.94677734 18.60864258 C-55.96318268 17.89949707 -55.97958801 17.19035156 -55.99649048 16.4597168 C-55.97128296 14.48469543 -55.97128296 14.48469543 -55.36328125 11.203125 C-48.36264579 5.62204809 -37.89100668 4.57467995 -29.30078125 3.078125 C-28.37201172 2.90925781 -27.44324219 2.74039062 -26.48632812 2.56640625 C-17.64095532 0.98975734 -8.98742505 0.04718366 0 0 Z M-32.36328125 24.203125 C-31.70328125 24.863125 -31.04328125 25.523125 -30.36328125 26.203125 C-30.36328125 25.543125 -30.36328125 24.883125 -30.36328125 24.203125 C-31.02328125 24.203125 -31.68328125 24.203125 -32.36328125 24.203125 Z M45.63671875 24.203125 C46.63671875 26.203125 46.63671875 26.203125 46.63671875 26.203125 Z M-25.36328125 31.203125 C-25.03328125 32.523125 -24.70328125 33.843125 -24.36328125 35.203125 C-23.37328125 35.203125 -22.38328125 35.203125 -21.36328125 35.203125 C-21.36328125 34.543125 -21.36328125 33.883125 -21.36328125 33.203125 C-20.04328125 32.873125 -18.72328125 32.543125 -17.36328125 32.203125 C-17.69328125 31.543125 -18.02328125 30.883125 -18.36328125 30.203125 C-22.25787199 29.99230649 -22.25787199 29.99230649 -25.36328125 31.203125 Z M51.63671875 31.203125 C51.96671875 32.523125 52.29671875 33.843125 52.63671875 35.203125 C55.27671875 34.873125 57.91671875 34.543125 60.63671875 34.203125 C60.30671875 32.883125 59.97671875 31.563125 59.63671875 30.203125 C56.52414306 30.203125 54.5290619 30.37674124 51.63671875 31.203125 Z M-37.36328125 31.203125 C-37.91300845 36.83782883 -36.3137596 39.59300258 -33.36328125 44.203125 C-32.70328125 43.213125 -32.04328125 42.223125 -31.36328125 41.203125 C-30.37328125 41.203125 -29.38328125 41.203125 -28.36328125 41.203125 C-28.62013217 37.15476439 -28.62013217 37.15476439 -29.36328125 33.203125 C-32.15300707 30.89438639 -33.63127956 31.203125 -37.36328125 31.203125 Z M40.63671875 31.203125 C41.0240011 36.91553966 41.50682398 39.94000782 45.63671875 44.203125 C45.63671875 42.883125 45.63671875 41.563125 45.63671875 40.203125 C46.95671875 40.533125 48.27671875 40.863125 49.63671875 41.203125 C49.42015625 40.336875 49.42015625 40.336875 49.19921875 39.453125 C48.67838542 37.36979167 48.15755208 35.28645833 47.63671875 33.203125 C46.64671875 33.203125 45.65671875 33.203125 44.63671875 33.203125 C44.63671875 32.543125 44.63671875 31.883125 44.63671875 31.203125 C43.31671875 31.203125 41.99671875 31.203125 40.63671875 31.203125 Z M-17.36328125 33.203125 C-17.03328125 34.523125 -16.70328125 35.843125 -16.36328125 37.203125 C-16.03328125 36.213125 -15.70328125 35.223125 -15.36328125 34.203125 C-16.02328125 33.873125 -16.68328125 33.543125 -17.36328125 33.203125 Z M60.63671875 34.203125 C61.63671875 36.203125 61.63671875 36.203125 61.63671875 36.203125 Z M-15.36328125 37.203125 C-14.36328125 39.203125 -14.36328125 39.203125 -14.36328125 39.203125 Z M8.38671875 41.390625 C7.47921875 42.31875 6.57171875 43.246875 5.63671875 44.203125 C-9.36328125 59.203125 -24.36328125 74.203125 -39.36328125 89.203125 C-40.22953125 90.09 -41.09578125 90.976875 -41.98828125 91.890625 C-44.36328125 94.203125 -44.36328125 94.203125 -47.36328125 96.203125 C-46.37328125 99.503125 -45.38328125 102.803125 -44.36328125 106.203125 C-41.31383769 106.5191817 -41.31383769 106.5191817 -39.33210754 104.5461731 C-38.55711411 103.77055023 -37.78212067 102.99492737 -36.98364258 102.19580078 C-36.10295609 101.32134308 -35.22226959 100.44688538 -34.31489563 99.54592896 C-33.35805868 98.58040483 -32.40153846 97.61456673 -31.4453125 96.6484375 C-30.46362034 95.66622688 -29.48141011 94.68453379 -28.498703 93.70333862 C-26.44041738 91.64496325 -24.38740357 89.58151176 -22.33813477 87.51416016 C-19.70682134 84.86014456 -17.06456307 82.2173595 -14.41850758 79.57805061 C-12.38929389 77.55217284 -10.36509025 75.52135056 -8.34247398 73.48888779 C-7.36974624 72.51230235 -6.3956561 71.53707204 -5.42020607 70.56320572 C-4.06010686 69.20347597 -2.70723195 67.83653138 -1.35473633 66.46923828 C-0.58212967 65.69202423 0.19047699 64.91481018 0.98649597 64.11404419 C2.85458323 62.37165072 2.85458323 62.37165072 2.63671875 60.203125 C3.27609375 59.935 3.91546875 59.666875 4.57421875 59.390625 C6.96803561 58.31644748 6.96803561 58.31644748 7.63671875 55.203125 C11.43831299 55.203125 13.60951542 55.27364715 16.484375 57.875 C18.25541782 59.94575775 19.94858086 62.06454647 21.63671875 64.203125 C23.2836636 65.88928282 24.94797996 67.55882671 26.63671875 69.203125 C38.97005208 81.53645833 51.30338542 93.86979167 63.63671875 106.203125 C64.62671875 106.203125 65.61671875 106.203125 66.63671875 106.203125 C68.92716889 101.39102599 68.92716889 101.39102599 69.63671875 96.203125 C68.04257584 94.46611849 68.04257584 94.46611849 65.94921875 92.828125 C62.67723369 90.08610935 59.61780952 87.26478579 56.63671875 84.203125 C55.39921875 82.965625 55.39921875 82.965625 54.13671875 81.703125 C16.63671875 44.203125 16.63671875 44.203125 13.88671875 41.390625 C11.13671875 38.46411763 11.13671875 38.46411763 8.38671875 41.390625 Z M-28.36328125 41.203125 C-28.03328125 42.193125 -27.70328125 43.183125 -27.36328125 44.203125 C-26.70328125 43.873125 -26.04328125 43.543125 -25.36328125 43.203125 C-26.35328125 42.543125 -27.34328125 41.883125 -28.36328125 41.203125 Z M8.15307617 67.61653137 C7.62560791 68.27263901 7.09813965 68.92874664 6.5546875 69.60473633 C2.32029568 74.65399369 -2.32931701 79.18696707 -7.05078125 83.77734375 C-8.90177943 85.59625474 -10.75201834 87.41593866 -12.6015625 89.23632812 C-15.49515577 92.08189266 -18.39326274 94.9224705 -21.30615234 97.74829102 C-24.13304373 100.49167075 -26.93587382 103.25895086 -29.73828125 106.02734375 C-30.61830811 106.87326584 -31.49833496 107.71918793 -32.4050293 108.59074402 C-33.20336182 109.38539566 -34.00169434 110.1800473 -34.82421875 110.9987793 C-35.53368652 111.6919072 -36.2431543 112.3850351 -36.97412109 113.09916687 C-38.63329859 115.14895693 -38.63329859 115.14895693 -38.18212891 117.82136536 C-37.29343718 120.40627852 -36.12818103 122.13128613 -34.36328125 124.203125 C-30.62521514 122.64217431 -28.23085584 120.32883354 -25.37890625 117.484375 C-24.44433594 116.55238281 -23.50976562 115.62039062 -22.546875 114.66015625 C-22.06589355 114.17498535 -21.58491211 113.68981445 -21.08935547 113.18994141 C-19.61123277 111.70106161 -18.12268214 110.22320849 -16.6328125 108.74609375 C-15.23869141 107.34810547 -15.23869141 107.34810547 -13.81640625 105.921875 C-12.96208008 105.06529297 -12.10775391 104.20871094 -11.22753906 103.32617188 C-9.14333959 101.42354894 -9.14333959 101.42354894 -9.36328125 99.203125 C-8.80640625 98.97625 -8.24953125 98.749375 -7.67578125 98.515625 C-3.39628918 96.08672409 -0.42867021 92.30480379 2.69921875 88.578125 C4.82253134 86.04880432 6.96524271 84.15535749 9.63671875 82.203125 C9.63671875 81.543125 9.63671875 80.883125 9.63671875 80.203125 C13.24687491 82.21684485 16.05748792 84.37882153 18.96801758 87.30737305 C19.78849075 88.12799728 20.60896393 88.94862152 21.45429993 89.79411316 C22.32531845 90.67545425 23.19633698 91.55679535 24.09375 92.46484375 C25.44819466 93.82353325 25.44819466 93.82353325 26.83000183 95.20967102 C29.21899839 97.60794764 31.60356732 100.01045828 33.98608398 102.41516113 C36.42260752 104.87221603 38.86486781 107.32355426 41.30664062 109.77539062 C46.08862098 114.57940094 50.86484322 119.38907845 55.63671875 124.203125 C58.30322675 122.03723655 58.30322675 122.03723655 60.63671875 119.203125 C60.85249558 115.53309644 59.6952093 114.27275631 57.3359375 111.46411133 C56.34206007 110.47758563 55.33747231 109.5017702 54.32421875 108.53515625 C53.79530029 108.01426926 53.26638184 107.49338226 52.72143555 106.95671082 C51.03574658 105.2999445 49.33697525 103.65742617 47.63671875 102.015625 C45.93915494 100.36057234 44.24443165 98.70270605 42.55200195 97.04240417 C41.49940833 96.01150577 40.44335209 94.98412871 39.38354492 93.96064758 C35.74639591 90.42247931 35.74639591 90.42247931 34.63671875 88.203125 C33.97671875 88.203125 33.31671875 88.203125 32.63671875 88.203125 C32.63671875 87.543125 32.63671875 86.883125 32.63671875 86.203125 C31.30338542 84.53645833 31.30338542 84.53645833 29.63671875 83.203125 C28.97671875 83.203125 28.31671875 83.203125 27.63671875 83.203125 C27.36859375 82.56375 27.10046875 81.924375 26.82421875 81.265625 C25.75004123 78.87180814 25.75004123 78.87180814 22.63671875 78.203125 C21.97005208 76.86979167 21.30338542 75.53645833 20.63671875 74.203125 C19.64671875 73.873125 18.65671875 73.543125 17.63671875 73.203125 C16.97005208 71.86979167 16.30338542 70.53645833 15.63671875 69.203125 C14.64671875 68.873125 13.65671875 68.543125 12.63671875 68.203125 C12.63671875 67.543125 12.63671875 66.883125 12.63671875 66.203125 C9.65721651 65.85824452 9.65721651 65.85824452 8.15307617 67.61653137 Z M9.63671875 114.203125 C10.63671875 116.203125 10.63671875 116.203125 10.63671875 116.203125 Z M15.63671875 121.203125 C15.63671875 122.523125 15.63671875 123.843125 15.63671875 125.203125 C16.95671875 125.203125 18.27671875 125.203125 19.63671875 125.203125 C19.63671875 124.543125 19.63671875 123.883125 19.63671875 123.203125 C21.28671875 123.533125 22.93671875 123.863125 24.63671875 124.203125 C24.63671875 123.543125 24.63671875 122.883125 24.63671875 122.203125 C23.97671875 122.203125 23.31671875 122.203125 22.63671875 122.203125 C22.63671875 121.543125 22.63671875 120.883125 22.63671875 120.203125 C18.74212801 119.99230649 18.74212801 119.99230649 15.63671875 121.203125 Z M4.63671875 121.203125 C4.08699155 126.83782883 5.6862404 129.59300258 8.63671875 134.203125 C8.96671875 132.883125 9.29671875 131.563125 9.63671875 130.203125 C10.62671875 130.203125 11.61671875 130.203125 12.63671875 130.203125 C12.30671875 127.563125 11.97671875 124.923125 11.63671875 122.203125 C9.32671875 121.873125 7.01671875 121.543125 4.63671875 121.203125 Z M24.63671875 125.203125 C25.63671875 127.203125 25.63671875 127.203125 25.63671875 127.203125 Z M12.63671875 130.203125 C12.96671875 131.193125 13.29671875 132.183125 13.63671875 133.203125 C13.63671875 132.213125 13.63671875 131.223125 13.63671875 130.203125 C13.30671875 130.203125 12.97671875 130.203125 12.63671875 130.203125 Z " fill="#021F66" transform="translate(96.36328125,12.796875)"/>
<path d="M0 0 C5.17369157 -0.10006396 10.34680047 -0.17202268 15.52124023 -0.21972656 C17.27557202 -0.23964572 19.02983916 -0.26679134 20.78393555 -0.30175781 C45.09866936 -0.77375379 45.09866936 -0.77375379 54.5625 6.3125 C60.16900656 12.49403287 62.0891429 17.70971029 62 26 C61.42478598 33.28196477 58.27707501 38.23797474 54 44 C53.04046629 45.35331637 52.08201927 46.70740434 51.125 48.0625 C50.073125 49.5165625 50.073125 49.5165625 49 51 C54.56447988 58.30701011 60.17610984 65.55600012 66.04296875 72.625 C67.1944117 74.02235991 68.32980959 75.43372219 69.42578125 76.875 C72.47416436 80.84683468 75.60848132 82.76118656 80 85 C80 85.66 80 86.32 80 87 C81.98 87.33 83.96 87.66 86 88 C86.06058594 87.08476563 86.12117188 86.16953125 86.18359375 85.2265625 C86.30927734 83.44378906 86.30927734 83.44378906 86.4375 81.625 C86.51871094 80.44164063 86.59992188 79.25828125 86.68359375 78.0390625 C87 75 87 75 88 73 C88.10108412 71.1993692 88.13838085 69.3950055 88.14526367 67.59155273 C88.15164352 66.45954941 88.15802338 65.32754608 88.16459656 64.16123962 C88.16570938 62.93111649 88.1668222 61.70099335 88.16796875 60.43359375 C88.17129715 59.1703981 88.17462555 57.90720245 88.17805481 56.60572815 C88.18312781 53.92486059 88.18589455 51.2440943 88.18530273 48.56323242 C88.18520172 45.14951509 88.1987889 41.73600859 88.21607494 38.32234097 C88.22996988 35.04693344 88.22928686 31.77152671 88.23046875 28.49609375 C88.24124702 26.67216347 88.24124702 26.67216347 88.25224304 24.81138611 C88.23474764 18.24871944 87.9777544 12.2873536 86 6 C83.01716843 4.30834699 83.01716843 4.30834699 80 4 C80 2.68 80 1.36 80 0 C83.95092059 -0.07409401 87.90157294 -0.12857406 91.85302734 -0.16479492 C93.85919374 -0.18732251 95.86516526 -0.2254357 97.87109375 -0.26367188 C99.12792969 -0.27333984 100.38476562 -0.28300781 101.6796875 -0.29296875 C102.84226074 -0.3086792 104.00483398 -0.32438965 105.20263672 -0.34057617 C106.1257666 -0.22818604 107.04889648 -0.1157959 108 0 C108.99 1.485 108.99 1.485 110 3 C109.34 3.66 108.68 4.32 108 5 C106.02 5 104.04 5 102 5 C102 32.06 102 59.12 102 87 C105.3 87.33 108.6 87.66 112 88 C112 89.65 112 91.3 112 93 C106.43158861 93.07444911 100.86347036 93.12874318 95.29467773 93.16479492 C93.40237375 93.17983246 91.51010434 93.20026785 89.61791992 93.22631836 C86.88972414 93.26292399 84.16199129 93.2797769 81.43359375 93.29296875 C80.59477158 93.30845261 79.7559494 93.32393646 78.89170837 93.33988953 C70.6078698 93.34223497 64.99716026 90.70461586 59 85 C59 84.34 59 83.68 59 83 C58.01 82.67 57.02 82.34 56 82 C54.8125 79.4375 54.8125 79.4375 54 77 C53.34 77 52.68 77 52 77 C49 72.61538462 49 72.61538462 49 70 C48.01 69.67 47.02 69.34 46 69 C44.18390542 66.45746759 42.43680835 63.97926337 41.16015625 61.1171875 C39.95989469 58.81307093 39.09671359 57.57669534 37 56 C32.01511396 54.79105862 27.11110863 54.31502431 22 54 C22.11026156 58.37550142 22.24080284 62.75017242 22.375 67.125 C22.4059375 68.3625 22.436875 69.6 22.46875 70.875 C22.50742188 72.07382813 22.54609375 73.27265625 22.5859375 74.5078125 C22.63306885 76.15740967 22.63306885 76.15740967 22.68115234 77.84033203 C23.01436543 81.14235634 23.83646571 83.90132447 25 87 C27.64 87.33 30.28 87.66 33 88 C33.5625 89.9375 33.5625 89.9375 34 92 C33 93 33 93 30.13256836 93.11352539 C28.88096924 93.10828857 27.62937012 93.10305176 26.33984375 93.09765625 C25.34314415 93.09553383 25.34314415 93.09553383 24.3263092 93.09336853 C22.19666101 93.08775518 20.06711661 93.07520054 17.9375 93.0625 C16.49674631 93.05748671 15.05599097 93.05292351 13.61523438 93.04882812 C10.07678898 93.03778145 6.53840461 93.02050792 3 93 C2.4375 91.0625 2.4375 91.0625 2 89 C2.495 88.505 2.495 88.505 3 88 C4.98 88 6.96 88 9 88 C9 60.61 9 33.22 9 5 C6.03 4.67 3.06 4.34 0 4 C0 2.68 0 1.36 0 0 Z M22 8 C21.91134792 10.8843382 21.88478704 13.74462158 21.90234375 16.62890625 C21.9037587 17.49313705 21.90517365 18.35736786 21.90663147 19.24778748 C21.91224761 22.01939292 21.92480281 24.7909188 21.9375 27.5625 C21.94251292 29.4368478 21.94707619 31.31119685 21.95117188 33.18554688 C21.96222228 37.79039544 21.9794977 42.39518421 22 47 C27.88466092 48.96155364 36.40475775 49.42580547 42.28515625 47.09375 C45.07259725 44.95694019 45.98757226 43.04704789 46.875 39.6875 C46.91625 38.800625 46.9575 37.91375 47 37 C47.66 37 48.32 37 49 37 C49.56011856 27.66469069 49.9410735 19.78699451 44 12 C38.88983222 7.72414533 34.8242188 6.85761223 28.3125 6.875 C27.33925781 6.87242188 26.36601562 6.86984375 25.36328125 6.8671875 C23.04362389 6.73427038 23.04362389 6.73427038 22 8 Z " fill="#021F65" transform="translate(217,39)"/>
<path d="M0 0 C0.69319336 0.10900635 1.38638672 0.2180127 2.10058594 0.33032227 C4 0.703125 4 0.703125 7 1.75 C8.9232655 4.64380043 9.21827166 6.803789 9.01171875 10.2265625 C8.96466797 11.061875 8.91761719 11.8971875 8.86914062 12.7578125 C8.80919922 13.62148438 8.74925781 14.48515625 8.6875 15.375 C8.63916016 16.24640625 8.59082031 17.1178125 8.54101562 18.015625 C8.14724565 24.45550871 8.14724565 24.45550871 7 26.75 C5.68 26.42 4.36 26.09 3 25.75 C2.9175 24.71875 2.835 23.6875 2.75 22.625 C1.80018937 17.71764509 -0.01392922 14.44090102 -3.83984375 11.18359375 C-13.02054524 5.09079548 -26.19480852 5.46723228 -36.66796875 7.44140625 C-45.96609252 9.99865778 -52.16605002 14.09219724 -57 22.50390625 C-61.63757092 32.92032531 -61.92645734 48.06550551 -58 58.75 C-53.41172738 69.22454341 -47.15970595 76.93765674 -36.64453125 81.71875 C-25.0543747 86.23839746 -16.73597917 86.49776429 -4.85546875 83.11328125 C-1.48337184 81.50334716 -0.70297953 79.98942162 1 76.75 C1.66 76.75 2.32 76.75 3 76.75 C3.33 74.11 3.66 71.47 4 68.75 C5.65 68.75 7.3 68.75 9 68.75 C8.2727336 83.57118759 8.2727336 83.57118759 5 89.75 C-1.42048796 95.30285445 -11.34060799 93.93320711 -19.3125 93.9375 C-20.49779297 93.94974609 -21.68308594 93.96199219 -22.90429688 93.97460938 C-32.70557377 93.99091766 -40.49855 92.86228021 -49.25 88.4375 C-50.41015625 87.86386719 -51.5703125 87.29023437 -52.765625 86.69921875 C-56.07453457 84.70508122 -58.38479772 82.57405524 -61 79.75 C-61.9075 78.904375 -62.815 78.05875 -63.75 77.1875 C-65.88232611 74.87748005 -66.66021092 73.80810168 -67 70.75 C-67.66 70.75 -68.32 70.75 -69 70.75 C-69.41572266 69.35974609 -69.41572266 69.35974609 -69.83984375 67.94140625 C-70.20207031 66.74386719 -70.56429688 65.54632813 -70.9375 64.3125 C-71.29714844 63.11753906 -71.65679687 61.92257813 -72.02734375 60.69140625 C-72.70889142 57.89132455 -72.70889142 57.89132455 -74 56.75 C-75.44730694 45.94344155 -75.27518855 36.78360579 -71 26.75 C-70.608125 25.76 -70.21625 24.77 -69.8125 23.75 C-69.544375 23.09 -69.27625 22.43 -69 21.75 C-68.34 21.75 -67.68 21.75 -67 21.75 C-66.88398438 21.16863281 -66.76796875 20.58726563 -66.6484375 19.98828125 C-64.51309794 12.61750071 -58.36911257 7.99416848 -52 4.29296875 C-36.17672814 -3.84530259 -17.23507561 -2.82508009 0 0 Z " fill="#031E61" transform="translate(408,39.25)"/>
<path d="M0 0 C-0.14053872 2.62538284 -0.28718947 5.25017427 -0.4375 7.875 C-0.47681641 8.62136719 -0.51613281 9.36773437 -0.55664062 10.13671875 C-0.88671875 15.7734375 -0.88671875 15.7734375 -2 18 C-2.99 18 -3.98 18 -5 18 C-6.35439668 15.29120665 -6.06501451 12.99066732 -6 10 C-10.73870101 8.85151646 -15.46359771 8.67122941 -20.3125 8.4375 C-23.179375 8.293125 -26.04625 8.14875 -29 8 C-29 18.56 -29 29.12 -29 40 C-25.968125 39.87625 -22.93625 39.7525 -19.8125 39.625 C-18.86608643 39.59100098 -17.91967285 39.55700195 -16.94458008 39.52197266 C-12.52413156 39.31458085 -9.06739115 38.88432811 -5 37 C-4.01 37 -3.02 37 -2 37 C-2.14046255 39.95867918 -2.28712224 42.91682264 -2.4375 45.875 C-2.47681641 46.71675781 -2.51613281 47.55851562 -2.55664062 48.42578125 C-2.61948242 49.63427734 -2.61948242 49.63427734 -2.68359375 50.8671875 C-2.72025146 51.61081543 -2.75690918 52.35444336 -2.79467773 53.12060547 C-3 55 -3 55 -4 57 C-5.32 56.67 -6.64 56.34 -8 56 C-8.66 53.69 -9.32 51.38 -10 49 C-16.27 48.34 -22.54 47.68 -29 47 C-28.505 65.315 -28.505 65.315 -28 84 C-22.8953125 84.061875 -22.8953125 84.061875 -17.6875 84.125 C-16.08394653 84.15231201 -16.08394653 84.15231201 -14.44799805 84.18017578 C-13.60277588 84.1851709 -12.75755371 84.19016602 -11.88671875 84.1953125 C-11.02264404 84.20578613 -10.15856934 84.21625977 -9.26831055 84.22705078 C-6.71819279 84.15090168 -6.71819279 84.15090168 -4 82 C-3.505 80.515 -3.505 80.515 -3 79 C-2.34 79 -1.68 79 -1 79 C-1 77.35 -1 75.7 -1 74 C-0.01 74 0.98 74 2 74 C2.0814222 76.22855574 2.13938079 78.45797655 2.1875 80.6875 C2.23970703 82.54955078 2.23970703 82.54955078 2.29296875 84.44921875 C1.9583798 88.50443684 1.79064693 90.0310129 -1 93 C-4.6631555 93.73134266 -8.28998654 93.57920406 -12.01171875 93.48828125 C-13.09508011 93.48120651 -14.17844147 93.47413177 -15.29463196 93.46684265 C-18.75961962 93.43882254 -22.22299963 93.37606661 -25.6875 93.3125 C-28.0344819 93.28742714 -30.38148908 93.26461221 -32.72851562 93.24414062 C-38.4862269 93.18897099 -44.24299862 93.10526821 -50 93 C-50 91.35 -50 89.7 -50 88 C-47.03 87.505 -47.03 87.505 -44 87 C-43.93941406 86.37351562 -43.87882812 85.74703125 -43.81640625 85.1015625 C-43.73261719 84.28429687 -43.64882813 83.46703125 -43.5625 82.625 C-43.48128906 81.81289062 -43.40007812 81.00078125 -43.31640625 80.1640625 C-43 78 -43 78 -42 76 C-41.89819991 73.96380075 -41.86158205 71.92422897 -41.85473633 69.88549805 C-41.84835648 68.60043869 -41.84197662 67.31537933 -41.83540344 65.99137878 C-41.83387451 64.58149249 -41.83276069 63.17160569 -41.83203125 61.76171875 C-41.82881846 60.31923896 -41.82545437 58.8767595 -41.82194519 57.4342804 C-41.81595142 54.40710699 -41.81410547 51.37996213 -41.81469727 48.3527832 C-41.81479873 44.47907145 -41.80116401 40.60554364 -41.78392506 36.73187542 C-41.77278848 33.75068832 -41.77077859 30.76954539 -41.77130699 27.78833961 C-41.7701287 26.36063823 -41.76571539 24.93293563 -41.75797462 23.50525475 C-41.74814488 21.50442247 -41.75232473 19.50353632 -41.75708008 17.50268555 C-41.75565506 16.365103 -41.75423004 15.22752045 -41.75276184 14.0554657 C-42.00729389 10.90985924 -42.46539349 8.75612151 -44 6 C-47.53514293 4.62032476 -47.53514293 4.62032476 -51 4 C-51 2.68 -51 1.36 -51 0 C-49.93676514 0.00523682 -48.87353027 0.01047363 -47.77807617 0.01586914 C-43.78410708 0.03414785 -39.79014158 0.0455145 -35.79614258 0.05493164 C-34.07673518 0.05992009 -32.35733194 0.06671324 -30.63793945 0.07543945 C-17.80569517 0.16346259 -17.80569517 0.16346259 -5.0246582 -0.88110352 C-3 -1 -3 -1 0 0 Z " fill="#032168" transform="translate(477,39)"/>
<path d="M0 0 C-0.14053872 2.62538284 -0.28718947 5.25017427 -0.4375 7.875 C-0.47681641 8.62136719 -0.51613281 9.36773437 -0.55664062 10.13671875 C-0.88671875 15.7734375 -0.88671875 15.7734375 -2 18 C-2.99 18 -3.98 18 -5 18 C-6.35439668 15.29120665 -6.06501451 12.99066732 -6 10 C-10.73870101 8.85151646 -15.46359771 8.67122941 -20.3125 8.4375 C-23.179375 8.293125 -26.04625 8.14875 -29 8 C-29 18.56 -29 29.12 -29 40 C-25.968125 39.87625 -22.93625 39.7525 -19.8125 39.625 C-18.86608643 39.59100098 -17.91967285 39.55700195 -16.94458008 39.52197266 C-12.52413156 39.31458085 -9.06739115 38.88432811 -5 37 C-4.01 37 -3.02 37 -2 37 C-2.14046255 39.95867918 -2.28712224 42.91682264 -2.4375 45.875 C-2.47681641 46.71675781 -2.51613281 47.55851562 -2.55664062 48.42578125 C-2.61948242 49.63427734 -2.61948242 49.63427734 -2.68359375 50.8671875 C-2.72025146 51.61081543 -2.75690918 52.35444336 -2.79467773 53.12060547 C-3 55 -3 55 -4 57 C-5.32 56.67 -6.64 56.34 -8 56 C-8.66 53.69 -9.32 51.38 -10 49 C-16.27 48.34 -22.54 47.68 -29 47 C-28.505 65.315 -28.505 65.315 -28 84 C-26.515 84.495 -26.515 84.495 -25 85 C-26.65 84.67 -28.3 84.34 -30 84 C-30.21674937 78.48295047 -30.41366869 72.96568951 -30.59204102 67.44726562 C-30.65556577 65.56914237 -30.72455701 63.69119588 -30.79907227 61.81347656 C-30.90509367 59.11811365 -30.99159498 56.42273126 -31.07421875 53.7265625 C-31.11157639 52.88380768 -31.14893402 52.04105286 -31.18742371 51.17276001 C-31.2487793 48.80712891 -31.2487793 48.80712891 -31 45 C-27.95318939 42.96879293 -27.39881676 42.75340125 -23.98828125 42.8046875 C-23.23095703 42.81113281 -22.47363281 42.81757812 -21.69335938 42.82421875 C-20.90767578 42.84097656 -20.12199219 42.85773438 -19.3125 42.875 C-18.51521484 42.88402344 -17.71792969 42.89304688 -16.89648438 42.90234375 C-14.930861 42.92588415 -12.96539225 42.96175453 -11 43 C-11 43.99 -11 44.98 -11 46 C-9.06201737 43.22739701 -9.06201737 43.22739701 -8 41 C-15.26 41 -22.52 41 -30 41 C-30 29.78 -30 18.56 -30 7 C-26.6175 6.95875 -23.235 6.9175 -19.75 6.875 C-18.69006836 6.85679199 -17.63013672 6.83858398 -16.53808594 6.81982422 C-15.69536133 6.8148291 -14.85263672 6.80983398 -13.984375 6.8046875 C-13.12553711 6.79421387 -12.26669922 6.78374023 -11.38183594 6.77294922 C-8.82096404 7.01706677 -7.20488971 7.71009488 -5 9 C-5 10.98 -5 12.96 -5 15 C-4.01 15 -3.02 15 -2 15 C-2 10.71 -2 6.42 -2 2 C-6.7875368 2.09355263 -11.57456894 2.19964984 -16.36157227 2.31738281 C-17.99007549 2.35566618 -19.61866309 2.39052024 -21.24731445 2.421875 C-23.58836014 2.46754002 -25.9288253 2.52553077 -28.26953125 2.5859375 C-29.36186821 2.60326431 -29.36186821 2.60326431 -30.47627258 2.62094116 C-34.16961374 2.72878512 -35.84826414 2.89884276 -39 5 C-39 5.66 -39 6.32 -39 7 C-40.32 7.33 -41.64 7.66 -43 8 C-43.33 7.34 -43.66 6.68 -44 6 C-46.3140622 5.26924352 -48.64828869 4.59861742 -51 4 C-51 2.68 -51 1.36 -51 0 C-49.93676514 0.00523682 -48.87353027 0.01047363 -47.77807617 0.01586914 C-43.78410708 0.03414785 -39.79014158 0.0455145 -35.79614258 0.05493164 C-34.07673518 0.05992009 -32.35733194 0.06671324 -30.63793945 0.07543945 C-17.80569517 0.16346259 -17.80569517 0.16346259 -5.0246582 -0.88110352 C-3 -1 -3 -1 0 0 Z " fill="#041952" transform="translate(477,39)"/>
<path d="M0 0 C0.45375 0.61875 0.9075 1.2375 1.375 1.875 C2.97108919 4.05919833 2.97108919 4.05919833 5 6 C6.32 6 7.64 6 9 6 C9 6.66 9 7.32 9 8 C8.34 8 7.68 8 7 8 C7.185625 8.7425 7.37125 9.485 7.5625 10.25 C7.99203108 12.94990963 7.85122974 14.44631077 7 17 C6.01 17 5.02 17 4 17 C4 18.32 4 19.64 4 21 C7.465 20.505 7.465 20.505 11 20 C11 20.66 11 21.32 11 22 C12.04688979 23.09812545 12.04688979 23.09812545 13.625 24.1875 C15 26 15 26 14.6875 29.1875 C14.460625 30.115625 14.23375 31.04375 14 32 C13.34 32 12.68 32 12 32 C12.33 33.65 12.66 35.3 13 37 C12.2575 36.79375 11.515 36.5875 10.75 36.375 C7.67669159 35.95591249 6.57213134 36.38050989 4 38 C4 37.34 4 36.68 4 36 C3.01 36 2.02 36 1 36 C-1.03435531 32.27034861 -2 30.33094958 -2 26 C-1.01 26 -0.02 26 1 26 C0.46022435 22.52451159 0.46022435 22.52451159 -1 19 C-4.00594421 17.46853622 -4.00594421 17.46853622 -7 17 C-6.67 19.97 -6.34 22.94 -6 26 C-6.99 26.33 -7.98 26.66 -9 27 C-11.47976391 19.4148398 -11.47976391 19.4148398 -10 16 C-9.0398183 14.31008021 -8.04644066 12.63790712 -7 11 C-3.125 11.875 -3.125 11.875 -2 13 C-2 11.68 -2 10.36 -2 9 C-2.66 8.67 -3.32 8.34 -4 8 C-3 6 -3 6 -1 3 C-0.67 2.01 -0.34 1.02 0 0 Z M1 26 C1.33 26.99 1.66 27.98 2 29 C2 28.01 2 27.02 2 26 C1.67 26 1.34 26 1 26 Z M3 2 C3.99 2.495 3.99 2.495 5 3 C4.01 3.495 4.01 3.495 3 4 C3 3.34 3 2.68 3 2 Z " fill="#0A2669" transform="translate(108,117)"/>
<path d="M0 0 C27.16403693 -0.82555811 27.16403693 -0.82555811 38 4 C37.67 4.66 37.34 5.32 37 6 C35.35 6 33.7 6 32 6 C32.495 7.485 32.495 7.485 33 9 C32.01 9 31.02 9 30 9 C29.67 9.66 29.34 10.32 29 11 C27.906875 10.505 26.81375 10.01 25.6875 9.5 C20.07416436 7.4412445 20.07416436 7.4412445 10 8 C9.67 20.87 9.34 33.74 9 47 C6.80250858 42.60501716 6.79139189 39.54980128 6.953125 34.8046875 C6.98354889 33.62170578 6.98354889 33.62170578 7.0145874 32.41482544 C7.06006799 30.75214988 7.11082352 29.08961133 7.16650391 27.42724609 C7.24991946 24.87746182 7.311644 22.32778697 7.37109375 19.77734375 C7.41797389 18.16142019 7.46610781 16.54553241 7.515625 14.9296875 C7.54236298 13.7828096 7.54236298 13.7828096 7.56964111 12.61276245 C7.76986878 7.23013122 7.76986878 7.23013122 10 5 C12.625 4.875 12.625 4.875 15 5 C15 4.34 15 3.68 15 3 C16.65 3 18.3 3 20 3 C20 2.67 20 2.34 20 2 C14.47667795 1.80619923 10.33198131 2.35939037 5 4 C3.68 4 2.36 4 1 4 C0.67 2.68 0.34 1.36 0 0 Z " fill="#061D59" transform="translate(230,39)"/>
<path d="M0 0 C0.0825 1.258125 0.165 2.51625 0.25 3.8125 C0.62293233 6.82259669 0.7434437 7.72633995 2.875 10 C5.06098655 11.21289852 5.06098655 11.21289852 8 11 C8 11.66 8 12.32 8 13 C8.99 13 9.98 13 11 13 C11.33 12.34 11.66 11.68 12 11 C12.66 11.33 13.32 11.66 14 12 C14 13.65 14 15.3 14 17 C13.01 17 12.02 17 11 17 C10.67 18.65 10.34 20.3 10 22 C8.35 21.01 6.7 20.02 5 19 C4.67 19.99 4.34 20.98 4 22 C1.525 21.01 1.525 21.01 -1 20 C-1.33 21.98 -1.66 23.96 -2 26 C-3.32 25.67 -4.64 25.34 -6 25 C-5.1646875 23.6696875 -5.1646875 23.6696875 -4.3125 22.3125 C-3.879375 21.219375 -3.44625 20.12625 -3 19 C-4.31865712 16.35774595 -4.31865712 16.35774595 -6 14 C-5.6875 11.6875 -5.6875 11.6875 -5 10 C-4.34 10 -3.68 10 -3 10 C-3 7.03 -3 4.06 -3 1 C-1 0 -1 0 0 0 Z M-2 11 C-1.67 11.99 -1.34 12.98 -1 14 C-0.34 13.67 0.32 13.34 1 13 C0.01 12.34 -0.98 11.68 -2 11 Z M4 8 C4.66 8.66 5.32 9.32 6 10 C5.34 10 4.68 10 4 10 C4 9.34 4 8.68 4 8 Z " fill="#0D296D" transform="translate(70,43)"/>
<path d="M0 0 C2 2 2 2 3 5 C3.78375 4.938125 4.5675 4.87625 5.375 4.8125 C6.674375 4.9053125 6.674375 4.9053125 8 5 C10.29633824 8.44450737 10.54016485 10.93812283 11 15 C11.99 14.34 12.98 13.68 14 13 C15.32 13 16.64 13 18 13 C18 14.65 18 16.3 18 18 C19.32 18.33 20.64 18.66 22 19 C21.01 19.66 20.02 20.32 19 21 C18.34 20.67 17.68 20.34 17 20 C17 19.01 17 18.02 17 17 C16.34 17 15.68 17 15 17 C15.309375 17.8353125 15.309375 17.8353125 15.625 18.6875 C16.10695211 21.659538 15.26565028 23.31979941 14 26 C13.34 26 12.68 26 12 26 C10.37485532 27.45833358 10.37485532 27.45833358 9 29 C8.40267181 26.23735711 8 23.83967231 8 21 C7.84739214 19.26953591 7.67951995 17.54037955 7.5 15.8125 C7.4071875 14.91144531 7.314375 14.01039062 7.21875 13.08203125 C7.1465625 12.39496094 7.074375 11.70789062 7 11 C4.03 10.67 1.06 10.34 -2 10 C-2 8.68 -2 7.36 -2 6 C-2.61344757 4.31301918 -3.27095914 2.64034193 -4 1 C-2.125 0.375 -2.125 0.375 0 0 Z " fill="#0D2869" transform="translate(138,33)"/>
<path d="M0 0 C1.22203125 -0.03867187 1.22203125 -0.03867187 2.46875 -0.078125 C3.1390625 0.03015625 3.809375 0.1384375 4.5 0.25 C5.16 1.24 5.82 2.23 6.5 3.25 C5.84 3.91 5.18 4.57 4.5 5.25 C2.52 5.25 0.54 5.25 -1.5 5.25 C-1.83 31.32 -2.16 57.39 -2.5 84.25 C-2.83 84.25 -3.16 84.25 -3.5 84.25 C-3.65375941 74.13195862 -3.80194094 64.0138525 -3.9429636 53.89562511 C-4.00861919 49.19754241 -4.07620991 44.49950402 -4.14819336 39.80151367 C-4.2175654 35.26934143 -4.28189313 30.7371233 -4.34269524 26.20482826 C-4.36680673 24.47401636 -4.39274862 22.74322897 -4.42053413 21.01247215 C-4.45908349 18.59193124 -4.49117672 16.17138562 -4.52172852 13.75073242 C-4.53467453 13.03216064 -4.54762054 12.31358887 -4.56095886 11.57324219 C-4.59371348 8.50028266 -4.48087384 6.19262153 -3.5 3.25 C-7.46 2.92 -11.42 2.59 -15.5 2.25 C-15.5 1.92 -15.5 1.59 -15.5 1.25 C-10.34334343 0.63558986 -5.19270122 0.15139071 0 0 Z " fill="#061C52" transform="translate(320.5,38.75)"/>
<path d="M0 0 C0.66 0 1.32 0 2 0 C2.66 2.31 3.32 4.62 4 7 C4.66 7 5.32 7 6 7 C6 7.66 6 8.32 6 9 C5.01 9.33 4.02 9.66 3 10 C2.67 10.99 2.34 11.98 2 13 C2.99 13 3.98 13 5 13 C5.33 12.01 5.66 11.02 6 10 C7.32 10.66 8.64 11.32 10 12 C9.34 12 8.68 12 8 12 C7.67 12.99 7.34 13.98 7 15 C2.38 15 -2.24 15 -7 15 C-7 14.34 -7 13.68 -7 13 C-6.34 13 -5.68 13 -5 13 C-5.33 12.34 -5.66 11.68 -6 11 C-8.02463255 10.34786708 -8.02463255 10.34786708 -10 10 C-10 8.68 -10 7.36 -10 6 C-11.32 6.33 -12.64 6.66 -14 7 C-14.33 6.34 -14.66 5.68 -15 5 C-14.01 5 -13.02 5 -12 5 C-11.67 4.01 -11.34 3.02 -11 2 C-9.0625 2.3125 -9.0625 2.3125 -7 3 C-6.67 3.99 -6.34 4.98 -6 6 C-5.01 6.66 -4.02 7.32 -3 8 C-2.01 9.485 -2.01 9.485 -1 11 C-1.33 8.69 -1.66 6.38 -2 4 C-1.34 4 -0.68 4 0 4 C0 2.68 0 1.36 0 0 Z " fill="#0F2C70" transform="translate(66,28)"/>
<path d="M0 0 C0.33 0 0.66 0 1 0 C1.04635 8.40585046 1.08188271 16.81164747 1.10362434 25.21759415 C1.11405948 29.1208574 1.12821371 33.02403318 1.15087891 36.92724609 C1.17261699 40.694393 1.18457066 44.4614558 1.18975449 48.22866058 C1.19344851 49.66556879 1.20066203 51.10247241 1.21146011 52.53934479 C1.225987 54.55255134 1.22681703 56.56584261 1.22705078 58.57910156 C1.231492 59.72493713 1.23593323 60.87077271 1.24050903 62.05133057 C1.00622983 64.92362154 0.4968852 66.57249085 -1 69 C-1.84562871 65.35607507 -2.10227066 62.04744614 -2.03759766 58.31103516 C-2.02072906 57.19282379 -2.00386047 56.07461243 -1.98648071 54.92251587 C-1.9625827 53.72347626 -1.93868469 52.52443665 -1.9140625 51.2890625 C-1.89282318 50.04756439 -1.87158386 48.80606628 -1.84970093 47.52694702 C-1.79166181 44.23175879 -1.72844285 40.93671801 -1.66339111 37.6416626 C-1.62509449 35.62996351 -1.59061345 33.6182379 -1.55761719 31.60644531 C-1.49378308 27.729714 -1.42374589 23.8531465 -1.3515625 19.9765625 C-1.33171295 18.78157135 -1.3118634 17.5865802 -1.29141235 16.3553772 C-1.17729104 10.81739351 -0.97022165 5.45762064 0 0 Z " fill="#0A296C" transform="translate(307,48)"/>
<path d="M0 0 C1.79296875 1.52734375 1.79296875 1.52734375 3 3 C1.58603098 3.50757862 0.16868271 4.00574925 -1.25 4.5 C-2.43335938 4.91765625 -2.43335938 4.91765625 -3.640625 5.34375 C-6 6 -6 6 -10 6 C-10.33 6.66 -10.66 7.32 -11 8 C-13.6852464 9.37891032 -15.29776859 10.11387536 -18.3125 9.625 C-18.869375 9.41875 -19.42625 9.2125 -20 9 C-19.39794099 6.29073445 -18.65387116 4.51165418 -16.4375 2.77734375 C-11.26711424 -0.13099824 -5.8713471 -1.15758353 0 0 Z M-22 9 C-21.01 9.495 -21.01 9.495 -20 10 C-20.99 10.495 -20.99 10.495 -22 11 C-22 10.34 -22 9.68 -22 9 Z " fill="#04216A" transform="translate(372,41)"/>
<path d="M0 0 C14.85 0 29.7 0 45 0 C45.495 0.99 45.495 0.99 46 2 C45.07662842 2.01981934 44.15325684 2.03963867 43.2019043 2.06005859 C39.77438826 2.13817739 36.34731202 2.22486997 32.92016602 2.31738281 C31.43717788 2.35565347 29.95409752 2.39050978 28.47094727 2.421875 C26.33836928 2.467568 24.20642509 2.52555338 22.07421875 2.5859375 C20.79119873 2.6173584 19.50817871 2.6487793 18.1862793 2.68115234 C14.84612541 2.76379228 14.84612541 2.76379228 12 5 C12 5.66 12 6.32 12 7 C10.68 7.33 9.36 7.66 8 8 C7.67 7.34 7.34 6.68 7 6 C4.6859378 5.26924352 2.35171131 4.59861742 0 4 C0 2.68 0 1.36 0 0 Z " fill="#051751" transform="translate(426,39)"/>
<path d="M0 0 C0 2 0 4 0 6 C1.19932783 7.84029877 2.48306559 9.62637456 3.8125 11.375 C6.42202894 14.82585248 8.83856157 18.24987024 11 22 C9.125 21.75 9.125 21.75 7 21 C5.75 18.9375 5.75 18.9375 5 17 C2.46440887 18.26779557 0.89943078 19.91062614 -1 22 C-1 22.66 -1 23.32 -1 24 C-1.99 23.67 -2.98 23.34 -4 23 C-4 22.01 -4 21.02 -4 20 C-3.54625 19.5875 -3.0925 19.175 -2.625 18.75 C-0.24470991 16.18661067 0.18032075 13.34176927 1 10 C0.34 10 -0.32 10 -1 10 C-3.12508244 6.81237635 -3.5020163 4.73487777 -4 1 C-2.68 0.67 -1.36 0.34 0 0 Z " fill="#041A55" transform="translate(267,85)"/>
<path d="M0 0 C1.65 0 3.3 0 5 0 C5 7.59 5 15.18 5 23 C3.68 22.67 2.36 22.34 1 22 C0.74971189 20.41986783 0.52559054 18.83557694 0.3125 17.25 C0.18488281 16.36828125 0.05726563 15.4865625 -0.07421875 14.578125 C0.01602809 11.44323483 0.92615363 10.28176413 3 8 C2.34 7.67 1.68 7.34 1 7 C1.66 7 2.32 7 3 7 C2.505 6.401875 2.01 5.80375 1.5 5.1875 C0 3 0 3 0 0 Z " fill="#05226C" transform="translate(410,43)"/>
<path d="M0 0 C0.99 0.33 1.98 0.66 3 1 C1.625 2.5 1.625 2.5 0 4 C-0.66 4 -1.32 4 -2 4 C-2.268125 4.639375 -2.53625 5.27875 -2.8125 5.9375 C-4 8 -4 8 -7 9 C-7.33 9.66 -7.66 10.32 -8 11 C-8.33 11.66 -8.66 12.32 -9 13 C-9.99 13.33 -10.98 13.66 -12 14 C-12.33 14.66 -12.66 15.32 -13 16 C-13.33 16.66 -13.66 17.32 -14 18 C-14.99 18.33 -15.98 18.66 -17 19 C-18.20882096 21.00016466 -18.20882096 21.00016466 -19 23 C-19.99 23 -20.98 23 -22 23 C-21.66410006 19.86493389 -20.97334828 18.974751 -18.625 16.75 C-16 15 -16 15 -13 15 C-12.67 14.01 -12.34 13.02 -12 12 C-8.5625 7.1875 -8.5625 7.1875 -5 6 C-4.67 5.01 -4.34 4.02 -4 3 C-3.01 2.67 -2.02 2.34 -1 2 C-0.67 1.34 -0.34 0.68 0 0 Z " fill="#041253" transform="translate(86,70)"/>
<path d="M0 0 C1.32 0.33 2.64 0.66 4 1 C4 1.66 4 2.32 4 3 C4.66 3.33 5.32 3.66 6 4 C5.34 4.66 4.68 5.32 4 6 C2.68 6 1.36 6 0 6 C0.33 8.97 0.66 11.94 1 15 C0.01 15.33 -0.98 15.66 -2 16 C-4.47976391 8.4148398 -4.47976391 8.4148398 -3 5 C-2.0398183 3.31008021 -1.04644066 1.63790712 0 0 Z " fill="#0F2B6E" transform="translate(101,128)"/>
<path d="M0 0 C2.31 0.33 4.62 0.66 7 1 C7.88376862 5.08742988 8.34972126 7.95083621 7 12 C6.34 12 5.68 12 5 12 C5 11.34 5 10.68 5 10 C4.401875 9.938125 3.80375 9.87625 3.1875 9.8125 C-0.42558453 8.47049717 -1.35516837 5.28966325 -3 2 C-2.01 2 -1.02 2 0 2 C0 1.34 0 0.68 0 0 Z " fill="#021C66" transform="translate(125,88)"/>
<path d="M0 0 C5.55978158 5.2671615 7.35536858 8.80842064 7.96484375 16.34375 C8.05991323 23.52677705 5.81254926 29.02700616 2 35 C1.06576355 31.98968256 0.95550089 31.13349732 2 28 C2.66 28 3.32 28 4 28 C5.74070306 21.25477563 5.77929884 14.43627099 3 8 C2.46375 7.113125 1.9275 6.22625 1.375 5.3125 C0 3 0 3 0 0 Z " fill="#081B54" transform="translate(271,46)"/>
<path d="M0 0 C0.33 0.66 0.66 1.32 1 2 C0.26394531 2.12117188 -0.47210938 2.24234375 -1.23046875 2.3671875 C-2.20628906 2.53476562 -3.18210937 2.70234375 -4.1875 2.875 C-5.15042969 3.03742187 -6.11335938 3.19984375 -7.10546875 3.3671875 C-10.01073759 3.91918692 -10.01073759 3.91918692 -12.67578125 5.0703125 C-15 6 -15 6 -18 6 C-18 16.56 -18 27.12 -18 38 C-18.33 38 -18.66 38 -19 38 C-19 27.11 -19 16.22 -19 5 C-7.28187919 -0.20805369 -7.28187919 -0.20805369 0 0 Z " fill="#0A2161" transform="translate(61,18)"/>
<path d="M0 0 C0.66 0 1.32 0 2 0 C1.979375 0.7425 1.95875 1.485 1.9375 2.25 C2.02581046 6.13566006 2.21261518 8.21261518 5 11 C4.01 11 3.02 11 2 11 C1.67 11.99 1.34 12.98 1 14 C0.67 14 0.34 14 0 14 C-0.66 11.69 -1.32 9.38 -2 7 C-3.32 7.99 -4.64 8.98 -6 10 C-6.66 9.67 -7.32 9.34 -8 9 C-6.8553125 7.88625 -6.8553125 7.88625 -5.6875 6.75 C-3.04428801 4.176446 -3.04428801 4.176446 -1.3125 1.6875 C-0.879375 1.130625 -0.44625 0.57375 0 0 Z " fill="#021753" transform="translate(104,68)"/>
<path d="M0 0 C2.96175123 0.61277612 4.38058783 1.25372522 7 3 C7 3.66 7 4.32 7 5 C6.01 5.495 6.01 5.495 5 6 C3.63755204 7.64295195 2.30135125 9.30824337 1 11 C0.67 10.01 0.34 9.02 0 8 C-0.99 7.67 -1.98 7.34 -3 7 C-2.67 5.68 -2.34 4.36 -2 3 C-1.34 3 -0.68 3 0 3 C0 2.01 0 1.02 0 0 Z " fill="#021E67" transform="translate(53,120)"/>
<path d="M0 0 C0.61875 0.804375 1.2375 1.60875 1.875 2.4375 C3.74164041 5.03874519 3.74164041 5.03874519 6 6 C6 7.32 6 8.64 6 10 C4.35 10.33 2.7 10.66 1 11 C-0.32 9.35 -1.64 7.7 -3 6 C-2.01 4.02 -1.02 2.04 0 0 Z " fill="#031F68" transform="translate(118,79)"/>
<path d="M0 0 C0.99 0.33 1.98 0.66 3 1 C3 1.66 3 2.32 3 3 C4.65 3 6.3 3 8 3 C7.01 3.495 7.01 3.495 6 4 C7.37485532 5.54166642 7.37485532 5.54166642 9 7 C9.66 7 10.32 7 11 7 C11 8.32 11 9.64 11 11 C12.65 11 14.3 11 16 11 C16.66 12.32 17.32 13.64 18 15 C13.48279689 15.36625971 13.48279689 15.36625971 11.1875 13.625 C10 12 10 12 10 10 C9.360625 9.731875 8.72125 9.46375 8.0625 9.1875 C6 8 6 8 5 5 C4.34 4.67 3.68 4.34 3 4 C1 3 1 3 0 0 Z " fill="#031557" transform="translate(151,94)"/>
<path d="M0 0 C0.99 0.33 1.98 0.66 3 1 C4.2676439 3.73030993 4.04311598 4.87352646 3.0625 7.75 C2.711875 8.4925 2.36125 9.235 2 10 C1.34 10 0.68 10 0 10 C-1.62514468 11.45833358 -1.62514468 11.45833358 -3 13 C-4.15837626 8.94568308 -3.83691257 6.78187881 -2 3 C-1.34 3 -0.68 3 0 3 C0 2.01 0 1.02 0 0 Z " fill="#0D2B70" transform="translate(150,49)"/>
<path d="M0 0 C-0.66 0 -1.32 0 -2 0 C-2.33 1.32 -2.66 2.64 -3 4 C-3.66 4 -4.32 4 -5 4 C-5 3.01 -5 2.02 -5 1 C-10.94 1 -16.88 1 -23 1 C-23 0.34 -23 -0.32 -23 -1 C-19.54254978 -1.22527296 -16.08412975 -1.42733544 -12.625 -1.625 C-11.64015625 -1.68945312 -10.6553125 -1.75390625 -9.640625 -1.8203125 C-8.69960938 -1.871875 -7.75859375 -1.9234375 -6.7890625 -1.9765625 C-5.91975098 -2.02893066 -5.05043945 -2.08129883 -4.15478516 -2.13525391 C-2 -2 -2 -2 0 0 Z " fill="#09266B" transform="translate(471,81)"/>
<path d="M0 0 C1 3 1 3 -0.046875 5.27734375 C-4.96678144 12.96187652 -10.68837245 19.46010382 -17 26 C-17 22.06111246 -15.71256133 21.26454258 -13.0625 18.4375 C-10.19301173 15.45371254 -10.19301173 15.45371254 -8 12 C-7.34 12 -6.68 12 -6 12 C-4.92474806 9.34771188 -3.90543849 6.71631546 -3 4 C-2.34 4 -1.68 4 -1 4 C-0.67 2.68 -0.34 1.36 0 0 Z " fill="#04174F" transform="translate(163,129)"/>
<path d="M0 0 C0.99 0 1.98 0 3 0 C3.054138 2.24973447 3.09285491 4.49984383 3.125 6.75 C3.14820313 8.00296875 3.17140625 9.2559375 3.1953125 10.546875 C3.01537302 13.72820492 2.68998582 15.36521896 1 18 C-0.60725635 14.78548731 -0.05748185 11.56387464 0 8 C-0.99 8 -1.98 8 -3 8 C-2.67 7.01 -2.34 6.02 -2 5 C-1.34 5 -0.68 5 0 5 C0 3.35 0 1.7 0 0 Z " fill="#0A1F54" transform="translate(476,113)"/>
<path d="M0 0 C8.25 0 16.5 0 25 0 C25 0.33 25 0.66 25 1 C24.14277344 1.04898438 23.28554687 1.09796875 22.40234375 1.1484375 C16.29038227 1.54809225 10.82448116 2.14112303 5 4 C3.68 4 2.36 4 1 4 C0.67 2.68 0.34 1.36 0 0 Z " fill="#031649" transform="translate(230,39)"/>
<path d="M0 0 C2 1 2 1 2.9375 3.5 C3.288125 4.325 3.63875 5.15 4 6 C4.99 6.33 5.98 6.66 7 7 C7.33 7.99 7.66 8.98 8 10 C7.01 10 6.02 10 5 10 C4.67 10.66 4.34 11.32 4 12 C2.35 11.67 0.7 11.34 -1 11 C-1 10.34 -1 9.68 -1 9 C-0.34 9 0.32 9 1 9 C1 8.34 1 7.68 1 7 C0.01 6.67 -0.98 6.34 -2 6 C-0.35 5.67 1.3 5.34 3 5 C2.34 5 1.68 5 1 5 C1 4.34 1 3.68 1 3 C-0.32 2.67 -1.64 2.34 -3 2 C-2.01 1.34 -1.02 0.68 0 0 Z M3 8 C4 10 4 10 4 10 Z " fill="#041856" transform="translate(118,130)"/>
<path d="M0 0 C0.33 0 0.66 0 1 0 C1.48490202 7.95598501 0.41067904 15.39198542 -2 23 C-2.66 23.66 -3.32 24.32 -4 25 C-4.33 24.34 -4.66 23.68 -5 23 C-4.33450113 21.66608341 -3.66760679 20.33286286 -3 19 C-2.47165925 16.35755535 -2.47165925 16.35755535 -2.25 13.5625 C-2.15203125 12.63566406 -2.0540625 11.70882812 -1.953125 10.75390625 C-2.00463356 7.72777842 -2.7171079 5.7187444 -4 3 C-3.34 3 -2.68 3 -2 3 C-1.67 2.34 -1.34 1.68 -1 1 C-0.67 0.67 -0.34 0.34 0 0 Z " fill="#051E55" transform="translate(173,93)"/>
<path d="M0 0 C2.97 0.495 2.97 0.495 6 1 C6 1.99 6 2.98 6 4 C5.401875 3.814375 4.80375 3.62875 4.1875 3.4375 C1.83591238 2.77906313 1.83591238 2.77906313 -1 4 C-1.33 4.66 -1.66 5.32 -2 6 C-2.33 6.66 -2.66 7.32 -3 8 C-3.99 8.33 -4.98 8.66 -6 9 C-6.69937532 10.31647119 -7.36729133 11.65022151 -8 13 C-8.99 13.495 -8.99 13.495 -10 14 C-8.62159784 11.16661778 -7.13581614 8.44311194 -5.5 5.75 C-5.0771875 5.04359375 -4.654375 4.3371875 -4.21875 3.609375 C-3.61546875 2.81273437 -3.61546875 2.81273437 -3 2 C-2.34 2 -1.68 2 -1 2 C-0.67 1.34 -0.34 0.68 0 0 Z " fill="#05124E" transform="translate(105,50)"/>
<path d="M0 0 C5.75 0.75 5.75 0.75 8 3 C8.17488254 5.43744897 8.23177405 7.7593608 8.1953125 10.1953125 C8.1924826 10.90275604 8.18965271 11.61019958 8.18673706 12.33908081 C8.17553137 14.6012251 8.15042679 16.86297515 8.125 19.125 C8.11497067 20.65754637 8.10584474 22.19009894 8.09765625 23.72265625 C8.07559086 27.48192301 8.04105896 31.24089464 8 35 C7.67 35 7.34 35 7 35 C6.98541748 34.14245117 6.97083496 33.28490234 6.95581055 32.40136719 C6.89464522 29.21039587 6.82047238 26.02006413 6.73754883 22.82958984 C6.70435807 21.45047333 6.67630783 20.07122289 6.65356445 18.69189453 C6.61991358 16.70577694 6.56605271 14.72003441 6.51171875 12.734375 C6.48553467 11.54038086 6.45935059 10.34638672 6.43237305 9.11621094 C5.96511388 5.74856778 5.34096658 4.40966623 3 2 C2.01 1.34 1.02 0.68 0 0 Z " fill="#061D57" transform="translate(166,21)"/>
<path d="M0 0 C0.66 0 1.32 0 2 0 C2.4375 2.125 2.4375 2.125 2 5 C-1.5648627 9.22617056 -5.61843264 11.6874226 -11 13 C-10.62488281 12.56429687 -10.24976562 12.12859375 -9.86328125 11.6796875 C-9.35152344 11.08414063 -8.83976562 10.48859375 -8.3125 9.875 C-7.76722656 9.24207031 -7.22195312 8.60914062 -6.66015625 7.95703125 C-5.1557467 6.18359787 -3.70207646 4.37867921 -2.25 2.5625 C-1.5075 1.716875 -0.765 0.87125 0 0 Z " fill="#051759" transform="translate(87,112)"/>
<path d="M0 0 C3.43117231 3.33025548 6.59166135 6.78849411 9.66796875 10.44921875 C10.72555357 11.68048318 11.85228537 12.85228537 13 14 C12.01 14.33 11.02 14.66 10 15 C10 14.34 10 13.68 10 13 C8.35 12.67 6.7 12.34 5 12 C5.33 11.01 5.66 10.02 6 9 C5.38125 8.938125 4.7625 8.87625 4.125 8.8125 C2 8 2 8 0.75 5.625 C0 3 0 3 0 0 Z " fill="#04184F" transform="translate(279,108)"/>
<path d="M0 0 C-0.33 0.66 -0.66 1.32 -1 2 C-1.94875 2.12375 -2.8975 2.2475 -3.875 2.375 C-7.0982544 2.69809103 -7.0982544 2.69809103 -8.875 5.0625 C-9.24625 5.701875 -9.6175 6.34125 -10 7 C-10.99 6.34 -11.98 5.68 -13 5 C-13 4.34 -13 3.68 -13 3 C-14.32 2.67 -15.64 2.34 -17 2 C-15.10507994 1.66151348 -13.20901534 1.32943089 -11.3125 1 C-9.72888672 0.7215625 -9.72888672 0.7215625 -8.11328125 0.4375 C-5.35095938 0.04931926 -2.78257957 -0.08259976 0 0 Z " fill="#051E59" transform="translate(78,15)"/>
<path d="M0 0 C1.46067199 0.45082469 2.91848032 0.91093537 4.375 1.375 C5.18710938 1.63023438 5.99921875 1.88546875 6.8359375 2.1484375 C9 3 9 3 11 5 C10.34 5 9.68 5 9 5 C9.33 6.65 9.66 8.3 10 10 C2.51708428 3.84965831 2.51708428 3.84965831 0 0 Z " fill="#031246" transform="translate(137,108)"/>
<path d="M0 0 C1.65 0 3.3 0 5 0 C5.226875 0.763125 5.45375 1.52625 5.6875 2.3125 C7.27302175 5.55904453 8.90214579 6.28802794 12 8 C12 8.66 12 9.32 12 10 C12.66 10.33 13.32 10.66 14 11 C14 11.66 14 12.32 14 13 C12.0625 12.1875 12.0625 12.1875 10 11 C9.67 10.01 9.34 9.02 9 8 C8.34 7.67 7.68 7.34 7 7 C5 6 5 6 4 3 C1.99983534 1.79117904 1.99983534 1.79117904 0 1 C0 0.67 0 0.34 0 0 Z " fill="#01104D" transform="translate(137,81)"/>
<path d="M0 0 C3.375 0.3125 3.375 0.3125 7 1 C9.1519437 4.22791555 9.20086443 5.28400809 9 9 C7.68 9.33 6.36 9.66 5 10 C5 7.69 5 5.38 5 3 C3.02 3 1.04 3 -1 3 C-0.67 2.01 -0.34 1.02 0 0 Z M6 6 C7 8 7 8 7 8 Z " fill="#031656" transform="translate(151,41)"/>
<path d="M0 0 C0.66 1.32 1.32 2.64 2 4 C0 4 -2 4 -4 4 C-4.99 4.33 -5.98 4.66 -7 5 C-9.6875 3.0625 -9.6875 3.0625 -12 1 C-8.0186217 -0.3271261 -4.14954773 -0.06915913 0 0 Z " fill="#0E2B6F" transform="translate(250,40)"/>
<path d="M0 0 C0.99 0 1.98 0 3 0 C3 0.66 3 1.32 3 2 C2.34 2 1.68 2 1 2 C1.33 2.99 1.66 3.98 2 5 C2.66 5.33 3.32 5.66 4 6 C4 6.66 4 7.32 4 8 C1.5 9.625 1.5 9.625 -1 11 C-1.144375 10.21625 -1.28875 9.4325 -1.4375 8.625 C-1.87798925 6.03578982 -1.87798925 6.03578982 -3 4 C-2.67 3.34 -2.34 2.68 -2 2 C-1.34 2 -0.68 2 0 2 C0 1.34 0 0.68 0 0 Z " fill="#0F2B6F" transform="translate(150,32)"/>
<path d="M0 0 C0 0.99 0 1.98 0 3 C-0.99 3.495 -0.99 3.495 -2 4 C0.64 4.33 3.28 4.66 6 5 C6 5.33 6 5.66 6 6 C2.04 6 -1.92 6 -6 6 C-6 4.35 -6 2.7 -6 1 C-4.02 0.67 -2.04 0.34 0 0 Z " fill="#07215E" transform="translate(433,126)"/>
<path d="M0 0 C2.64 0 5.28 0 8 0 C8.33 0.99 8.66 1.98 9 3 C2.25 5.125 2.25 5.125 0 4 C0 2.68 0 1.36 0 0 Z " fill="#0A1D62" transform="translate(426,39)"/>
<path d="M0 0 C0.66 0.33 1.32 0.66 2 1 C-1.3 4.3 -4.6 7.6 -8 11 C-8.66 9.68 -9.32 8.36 -10 7 C-8.9171875 6.38125 -8.9171875 6.38125 -7.8125 5.75 C-5.02030138 4.01263197 -2.52987415 2.09618143 0 0 Z " fill="#020C4E" transform="translate(94,90)"/>
<path d="M0 0 C-0.495 0.45375 -0.99 0.9075 -1.5 1.375 C-3.22609337 2.87635519 -3.22609337 2.87635519 -3 5 C-4.32 5.33 -5.64 5.66 -7 6 C-7.33 5.34 -7.66 4.68 -8 4 C-10.52733235 3.34444881 -10.52733235 3.34444881 -13 3 C-8.54370064 0.02913376 -5.32064558 -0.12092376 0 0 Z " fill="#02195D" transform="translate(441,41)"/>
<path d="M0 0 C1.8125 0.875 1.8125 0.875 2.8125 2.875 C2.090625 2.936875 1.36875 2.99875 0.625 3.0625 C-3.03112105 4.11871275 -4.56221773 6.1824028 -7.1875 8.875 C-9.5 9.6875 -9.5 9.6875 -11.1875 9.875 C-9.53755906 7.85840552 -7.87373626 5.86079685 -6.1875 3.875 C-5.506875 3.070625 -4.82625 2.26625 -4.125 1.4375 C-2.1875 -0.125 -2.1875 -0.125 0 0 Z " fill="#06124B" transform="translate(108.1875,93.125)"/>
<path d="M0 0 C1.62418745 -0.08090971 3.24951745 -0.13914995 4.875 -0.1875 C5.77992188 -0.22230469 6.68484375 -0.25710937 7.6171875 -0.29296875 C8.79667969 -0.14794922 8.79667969 -0.14794922 10 0 C10.66 0.99 11.32 1.98 12 3 C11.195625 2.814375 10.39125 2.62875 9.5625 2.4375 C8.2940625 2.2209375 8.2940625 2.2209375 7 2 C6.67 2.33 6.34 2.66 6 3 C3.66702567 3.04092937 1.33294775 3.04241723 -1 3 C-0.67 2.01 -0.34 1.02 0 0 Z " fill="#11266A" transform="translate(218,40)"/>
<path d="M0 0 C0.99 0.33 1.98 0.66 3 1 C3 1.66 3 2.32 3 3 C2.34 3 1.68 3 1 3 C1.33 4.65 1.66 6.3 2 8 C1.01 8.495 1.01 8.495 0 9 C0 8.34 0 7.68 0 7 C-1.32 6.34 -2.64 5.68 -4 5 C-2.68 3.35 -1.36 1.7 0 0 Z " fill="#0D2B70" transform="translate(114,122)"/>
<path d="M0 0 C1.32 0.66 2.64 1.32 4 2 C4 4.64 4 7.28 4 10 C3.34 10 2.68 10 2 10 C-0.17364926 7.18230651 -1.08677021 5.7809319 -0.6875 2.1875 C-0.460625 1.465625 -0.23375 0.74375 0 0 Z " fill="#021B55" transform="translate(267,106)"/>
<path d="M0 0 C0.66 0 1.32 0 2 0 C3.23921302 2.97411124 4.30058404 5.85262818 5 9 C3.68 9 2.36 9 1 9 C0.855625 8.401875 0.71125 7.80375 0.5625 7.1875 C0.1127561 5.43849596 -0.42892341 3.71322977 -1 2 C-0.67 1.34 -0.34 0.68 0 0 Z " fill="#0F266B" transform="translate(56,45)"/>
<path d="M0 0 C0.33 0.66 0.66 1.32 1 2 C0.25234375 2.13277344 -0.4953125 2.26554687 -1.265625 2.40234375 C-2.74289063 2.66724609 -2.74289063 2.66724609 -4.25 2.9375 C-5.22453125 3.11152344 -6.1990625 3.28554688 -7.203125 3.46484375 C-9.49721795 3.90379729 -11.74291971 4.40348592 -14 5 C-14.33 4.34 -14.66 3.68 -15 3 C-13.44033782 2.491217 -11.87710759 1.99336531 -10.3125 1.5 C-9.44238281 1.2215625 -8.57226562 0.943125 -7.67578125 0.65625 C-5.00608323 0.00149195 -2.73603316 -0.11831495 0 0 Z " fill="#061852" transform="translate(61,18)"/>
<path d="M0 0 C-1.1427919 1.16964602 -2.28931715 2.33564556 -3.4375 3.5 C-4.07558594 4.1496875 -4.71367188 4.799375 -5.37109375 5.46875 C-7 7 -7 7 -8 7 C-8.3125 4.6875 -8.3125 4.6875 -8 2 C-3.92125984 -1.30708661 -3.92125984 -1.30708661 0 0 Z " fill="#020F53" transform="translate(73,114)"/>
<path d="M0 0 C-0.66 1.32 -1.32 2.64 -2 4 C-2.66 4 -3.32 4 -4 4 C-4.268125 4.639375 -4.53625 5.27875 -4.8125 5.9375 C-6 8 -6 8 -9 9 C-8.67 7.68 -8.34 6.36 -8 5 C-7.01 5 -6.02 5 -5 5 C-5 3.68 -5 2.36 -5 1 C-2 0 -2 0 0 0 Z " fill="#03134D" transform="translate(63,95)"/>
<path d="M0 0 C0.7425 0.185625 1.485 0.37125 2.25 0.5625 C4.94990963 0.99203108 6.44631077 0.85122974 9 0 C9 0.99 9 1.98 9 3 C8.34 3 7.68 3 7 3 C7 3.99 7 4.98 7 6 C3.63279613 4.60667426 2.0140476 3.0210714 0 0 Z " fill="#051E59" transform="translate(69,154)"/>
<path d="M0 0 C0.08226668 3.04386724 -0.02391783 5.07175348 -1 8 C-1.99 8 -2.98 8 -4 8 C-4 5.69 -4 3.38 -4 1 C-2 0 -2 0 0 0 Z " fill="#072166" transform="translate(473,87)"/>
<path d="M0 0 C2.99332739 0.9977758 3.94766315 1.7522025 6 4 C5.67 4.99 5.34 5.98 5 7 C5 6.34 5 5.68 5 5 C4.071875 5.309375 4.071875 5.309375 3.125 5.625 C2.42375 5.74875 1.7225 5.8725 1 6 C0.34 5.34 -0.32 4.68 -1 4 C-0.625 1.875 -0.625 1.875 0 0 Z " fill="#0F2365" transform="translate(65,53)"/>
<path d="M0 0 C1.32 0.33 2.64 0.66 4 1 C4 2.65 4 4.3 4 6 C3.195625 6.12375 2.39125 6.2475 1.5625 6.375 C0.2940625 6.684375 0.2940625 6.684375 -1 7 C-1.33 7.66 -1.66 8.32 -2 9 C-2 8.01 -2 7.02 -2 6 C-1.01 5.34 -0.02 4.68 1 4 C0.67 2.68 0.34 1.36 0 0 Z " fill="#06266D" transform="translate(411,113)"/>
<path d="M0 0 C2.66605569 3.55474092 3.41364439 4.70213988 4.1875 8.75 C4.34605469 9.54921875 4.50460938 10.3484375 4.66796875 11.171875 C4.83232422 12.07679687 4.83232422 12.07679687 5 13 C4.01 12.67 3.02 12.34 2 12 C1.34 8.04 0.68 4.08 0 0 Z " fill="#011451" transform="translate(48,109)"/>
<path d="M0 0 C0.99 0.33 1.98 0.66 3 1 C3 2.98 3 4.96 3 7 C1.68 6.67 0.36 6.34 -1 6 C-1.042721 4.33388095 -1.04063832 2.66617115 -1 1 C-0.67 0.67 -0.34 0.34 0 0 Z " fill="#0C2664" transform="translate(412,59)"/>
<path d="M0 0 C5.21979128 -0.1799928 9.07262981 0.02905192 14 2 C14 2.33 14 2.66 14 3 C9.1666528 3.08333357 4.76307437 2.95261487 0 2 C0 1.34 0 0.68 0 0 Z " fill="#091B57" transform="translate(151,18)"/>
<path d="M0 0 C0.33 0.66 0.66 1.32 1 2 C1.99 2.33 2.98 2.66 4 3 C4 4.98 4 6.96 4 9 C1.4375 6.75 1.4375 6.75 -1 4 C-0.8125 1.6875 -0.8125 1.6875 0 0 Z " fill="#153075" transform="translate(110,139)"/>
<path d="M0 0 C0.6875 1.8125 0.6875 1.8125 1 4 C-0.64504011 6.46756016 -1.80299352 6.94960299 -4.6875 7.6875 C-5.8321875 7.8421875 -5.8321875 7.8421875 -7 8 C-6.02133662 6.85373678 -5.04205413 5.70800212 -4.0625 4.5625 C-3.51722656 3.92441406 -2.97195312 3.28632813 -2.41015625 2.62890625 C-1.63204305 1.73008851 -0.84063472 0.84063472 0 0 Z " fill="#05195B" transform="translate(75,125)"/>
<path d="M0 0 C0.33 0.99 0.66 1.98 1 3 C-0.4375 5.6875 -0.4375 5.6875 -2 8 C-3.32 7.34 -4.64 6.68 -6 6 C-5.67 5.01 -5.34 4.02 -5 3 C-4.01 3 -3.02 3 -2 3 C-1.34 2.01 -0.68 1.02 0 0 Z " fill="#06216A" transform="translate(167,119)"/>
<path d="M0 0 C0.33 0 0.66 0 1 0 C1 1.65 1 3.3 1 5 C2.32 5 3.64 5 5 5 C4.67 5.99 4.34 6.98 4 8 C3.67 7.67 3.34 7.34 3 7 C2.01 7.99 1.02 8.98 0 10 C-1.125 3.375 -1.125 3.375 0 0 Z " fill="#021A57" transform="translate(164,113)"/>
<path d="M0 0 C-2.34914492 2.34914492 -3.95679446 2.73140357 -7.125 3.625 C-8.03507812 3.88539062 -8.94515625 4.14578125 -9.8828125 4.4140625 C-10.58148438 4.60742188 -11.28015625 4.80078125 -12 5 C-11 2 -11 2 -7.6875 0.25 C-3.02436902 -1.33072237 -3.02436902 -1.33072237 0 0 Z " fill="#081753" transform="translate(366,42)"/>
<path d="M0 0 C2.64 0 5.28 0 8 0 C8 0.33 8 0.66 8 1 C6.35 1.33 4.7 1.66 3 2 C4.32 2.66 5.64 3.32 7 4 C6.67 4.66 6.34 5.32 6 6 C4.02 5.34 2.04 4.68 0 4 C0 2.68 0 1.36 0 0 Z " fill="#0B1A53" transform="translate(297,39)"/>
<path d="M0 0 C1.76065836 2.64098754 2.52722899 3.9742655 3 7 C2.67 7.99 2.34 8.98 2 10 C1.34 10 0.68 10 0 10 C-1.125 3.375 -1.125 3.375 0 0 Z " fill="#07246D" transform="translate(136,46)"/>
<path d="M0 0 C2.97 0.33 5.94 0.66 9 1 C9 1.66 9 2.32 9 3 C10.32 3.33 11.64 3.66 13 4 C10.09905209 5.45047396 8.44027404 4.45356803 5.375 3.5625 C4.37210937 3.27503906 3.36921875 2.98757812 2.3359375 2.69140625 C1.56507813 2.46324219 0.79421875 2.23507813 0 2 C0 1.34 0 0.68 0 0 Z " fill="#04194F" transform="translate(391,44)"/>
<path d="M0 0 C0.928125 1.175625 0.928125 1.175625 1.875 2.375 C3.89858661 4.96837647 3.89858661 4.96837647 6 7 C4.125 7.625 4.125 7.625 2 8 C-0.14720899 5.85279101 -0.5434221 4.92209857 -1 2 C-0.67 1.34 -0.34 0.68 0 0 Z " fill="#011753" transform="translate(58,131)"/>
<path d="M0 0 C1.65 0 3.3 0 5 0 C5.5625 1.9375 5.5625 1.9375 6 4 C5 5 5 5 2.71484375 5.09765625 C1.34005859 5.08025391 1.34005859 5.08025391 -0.0625 5.0625 C-0.98160156 5.05347656 -1.90070313 5.04445312 -2.84765625 5.03515625 C-3.55792969 5.02355469 -4.26820313 5.01195312 -5 5 C-5 4.67 -5 4.34 -5 4 C-2.03 4 0.94 4 4 4 C3.04134491 1.66924071 3.04134491 1.66924071 0 0 Z " fill="#0E1F50" transform="translate(245,127)"/>
<path d="M0 0 C0.33 0 0.66 0 1 0 C1 1.98 1 3.96 1 6 C1.99 5.67 2.98 5.34 4 5 C4 5.99 4 6.98 4 8 C2.35 8.33 0.7 8.66 -1 9 C-1.125 2.25 -1.125 2.25 0 0 Z " fill="#00165B" transform="translate(435,115)"/>
<path d="M0 0 C2.97 0.495 2.97 0.495 6 1 C6 1.99 6 2.98 6 4 C5.443125 3.814375 4.88625 3.62875 4.3125 3.4375 C1.600867 2.92448835 -0.34371039 3.3359276 -3 4 C-3 3.34 -3 2.68 -3 2 C-2.34 2 -1.68 2 -1 2 C-0.67 1.34 -0.34 0.68 0 0 Z " fill="#04165D" transform="translate(105,50)"/>
<path d="M0 0 C1.98 0 3.96 0 6 0 C6 2.64 6 5.28 6 8 C5.34 7.67 4.68 7.34 4 7 C4 5.68 4 4.36 4 3 C3.01 3 2.02 3 1 3 C0.67 2.01 0.34 1.02 0 0 Z " fill="#021A56" transform="translate(140,43)"/>
<path d="M0 0 C0 0.66 0 1.32 0 2 C-4.02040985 2.69584017 -7.08263419 3.1700097 -11 2 C-9.54494642 1.47007308 -8.08581873 0.9513211 -6.625 0.4375 C-5.81289063 0.14746094 -5.00078125 -0.14257812 -4.1640625 -0.44140625 C-2 -1 -2 -1 0 0 Z " fill="#081D55" transform="translate(406,123)"/>
<path d="M0 0 C-0.99 0.495 -0.99 0.495 -2 1 C-2 1.66 -2 2.32 -2 3 C-4.96175123 2.38722388 -6.38058783 1.74627478 -9 0 C-5.52176885 -1.15941038 -3.54104422 -0.70820884 0 0 Z " fill="#051A6A" transform="translate(69,43)"/>
<path d="M0 0 C3 1 3 1 4 3 C6.52733235 3.65555119 6.52733235 3.65555119 9 4 C8.67 4.99 8.34 5.98 8 7 C4.59679258 5.98823563 3.24274669 5.35156418 1.1875 2.375 C0.795625 1.59125 0.40375 0.8075 0 0 Z " fill="#051B4B" transform="translate(346,117)"/>
<path d="M0 0 C1.24546405 2.49092811 0.7767578 3.41080733 0 6 C-1.32 6.33 -2.64 6.66 -4 7 C-4 4 -4 4 -2 1.8125 C-1.34 1.214375 -0.68 0.61625 0 0 Z " fill="#041656" transform="translate(95,78)"/>
<path d="M0 0 C1.14926266 0.95421808 2.29430541 1.91352045 3.4375 2.875 C4.07558594 3.40867187 4.71367188 3.94234375 5.37109375 4.4921875 C7 6 7 6 8 8 C4.88801935 6.50163895 1.9465385 4.80066242 -1 3 C-0.67 2.01 -0.34 1.02 0 0 Z " fill="#05155A" transform="translate(123,108)"/>
<path d="M0 0 C0.33 0 0.66 0 1 0 C1.02696365 1.79158489 1.04637917 3.58328473 1.0625 5.375 C1.07410156 6.37273437 1.08570313 7.37046875 1.09765625 8.3984375 C1 11 1 11 0 13 C-0.99 12.67 -1.98 12.34 -3 12 C-2.34 11.01 -1.68 10.02 -1 9 C-0.54605448 6.72087062 -0.54605448 6.72087062 -0.375 4.3125 C-0.30023438 3.50425781 -0.22546875 2.69601563 -0.1484375 1.86328125 C-0.09945313 1.24839844 -0.05046875 0.63351563 0 0 Z " fill="#041D4D" transform="translate(473,83)"/>
<path d="M0 0 C2 3 2 3 2 7 C1.01 7.33 0.02 7.66 -1 8 C-1.625 5.6875 -1.625 5.6875 -2 3 C-1.34 2.01 -0.68 1.02 0 0 Z " fill="#031856" transform="translate(61,53)"/>
<path d="M0 0 C0.99 0 1.98 0 3 0 C3 0.99 3 1.98 3 3 C0.5 5.1875 0.5 5.1875 -2 7 C-2 3 -2 3 0 0 Z " fill="#021C58" transform="translate(82,50)"/>
<path d="M0 0 C0.66 0.33 1.32 0.66 2 1 C2.33 1.99 2.66 2.98 3 4 C2.34 4.66 1.68 5.32 1 6 C-0.32 4.35 -1.64 2.7 -3 1 C-2.01 0.67 -1.02 0.34 0 0 Z " fill="#061B5C" transform="translate(67,148)"/>
<path d="M0 0 C0.33 0.66 0.66 1.32 1 2 C1.66 2 2.32 2 3 2 C2.67 2.99 2.34 3.98 2 5 C1.01 5.33 0.02 5.66 -1 6 C-1.33 4.68 -1.66 3.36 -2 2 C-1.34 2 -0.68 2 0 2 C0 1.34 0 0.68 0 0 Z " fill="#01175D" transform="translate(140,55)"/>
<path d="M0 0 C0.99 0 1.98 0 3 0 C3.66 1.98 4.32 3.96 5 6 C3.02 5.34 1.04 4.68 -1 4 C-0.67 2.68 -0.34 1.36 0 0 Z " fill="#0F1F5E" transform="translate(76,46)"/>
</svg>
