<?xml version="1.0" encoding="UTF-8"?>
<svg version="1.1" xmlns="http://www.w3.org/2000/svg" width="505" height="150">
<path d="M0 0 C-0.07105453 0.73165375 -0.14210907 1.4633075 -0.21531677 2.21713257 C-0.86672281 9.3671496 -1.13538763 16.4246491 -1.09765625 23.6015625 C-1.0962413 24.64524994 -1.09482635 25.68893738 -1.09336853 26.76425171 C-1.08783734 30.05119881 -1.0753037 33.33807403 -1.0625 36.625 C-1.0574756 38.86588442 -1.05291435 41.10676992 -1.04882812 43.34765625 C-1.03905606 48.23778261 -1.02489183 53.12787275 -1.00672913 58.01797485 C-1.00222272 59.34531081 -1 60.67265639 -1 62 C0.32 61.67 1.64 61.34 3 61 C3 61.99 3 62.98 3 64 C3.969375 63.979375 4.93875 63.95875 5.9375 63.9375 C9 64 9 64 10 65 C10.46814815 71.20296296 10.46814815 71.20296296 8.765625 74.1015625 C1.43266902 81.98611251 -15.78189052 82.61847305 -25.96533203 83.15673828 C-64.37033226 84.37235703 -64.37033226 84.37235703 -79 74 C-79.8125 70.8125 -79.8125 70.8125 -80 68 C-77 67 -77 67 -74 68 C-74.33 67.67 -74.66 67.34 -75 67 C-75.04063832 65.33382885 -75.042721 63.66611905 -75 62 C-73.515 61.505 -73.515 61.505 -72 61 C-71.34 61.33 -70.68 61.66 -70 62 C-69.94922981 54.56187865 -69.91423682 47.12380212 -69.89013672 39.68554688 C-69.88008818 37.15590749 -69.86644712 34.62627969 -69.84912109 32.09667969 C-69.8248228 28.45765317 -69.81350525 24.81878043 -69.8046875 21.1796875 C-69.78920364 19.48717361 -69.78920364 19.48717361 -69.77340698 17.76046753 C-69.77264526 12.41224156 -69.90723557 8.01294878 -72 3 C-72.0625 0.8125 -72.0625 0.8125 -71 -1 C-53.17606563 -10.8600488 -16.84563856 -11.23042571 0 0 Z M-43.39453125 -1.375 C-46.22112434 -0.96817401 -48.23213557 -1.40655503 -51 -2 C-51.825 -1.67 -52.65 -1.34 -53.5 -1 C-56.46325404 0.18530161 -57.98215223 -0.13775778 -61 -1 C-61.33 -0.34 -61.66 0.32 -62 1 C-64.3140622 1.73075648 -66.64828869 2.40138258 -69 3 C-69 3.33 -69 3.66 -69 4 C-66.36 4.33 -63.72 4.66 -61 5 C-61.33 23.81 -61.66 42.62 -62 62 C-63.98 62.99 -63.98 62.99 -66 64 C-64.205625 64.4640625 -64.205625 64.4640625 -62.375 64.9375 C-61.70210937 65.11152344 -61.02921875 65.28554687 -60.3359375 65.46484375 C-54.92216565 66.70512259 -49.73925448 67.13907358 -44.1953125 67.09765625 C-43.4713327 67.0962413 -42.74735291 67.09482635 -42.00143433 67.09336853 C-39.70924593 67.08781075 -37.41715843 67.07526633 -35.125 67.0625 C-33.56250142 67.05747953 -32.00000129 67.05291759 -30.4375 67.04882812 C-26.62496165 67.03785519 -22.81249788 67.0206201 -19 67 C-19.928125 66.5359375 -19.928125 66.5359375 -20.875 66.0625 C-22.25 65.375 -23.625 64.6875 -25 64 C-25 44.53 -25 25.06 -25 5 C-25.66 5 -26.32 5 -27 5 C-26.67 4.01 -26.34 3.02 -26 2 C-22.535 1.505 -22.535 1.505 -19 1 C-19 0.67 -19 0.34 -19 0 C-20.58941406 -0.19916016 -20.58941406 -0.19916016 -22.2109375 -0.40234375 C-23.59898279 -0.58053875 -24.98700231 -0.7589346 -26.375 -0.9375 C-27.07367188 -1.02451172 -27.77234375 -1.11152344 -28.4921875 -1.20117188 C-35.94987261 -2.4062948 -35.94987261 -2.4062948 -43.39453125 -1.375 Z M-16 2 C-17.06782486 5.20347459 -17.12058306 7.48187823 -17.11352539 10.84838867 C-17.11344986 12.0494072 -17.11337433 13.25042572 -17.11329651 14.48783875 C-17.10813522 15.78478165 -17.10297394 17.08172455 -17.09765625 18.41796875 C-17.09579077 19.75889534 -17.09436748 21.09982261 -17.09336853 22.44075012 C-17.08955356 25.96709073 -17.07973199 29.49339004 -17.06866455 33.01971436 C-17.0584285 36.61925701 -17.05386621 40.21880635 -17.04882812 43.81835938 C-17.0381088 50.87892313 -17.02104462 57.93945887 -17 65 C-17.99 65.495 -17.99 65.495 -19 66 C-13.36718401 66.2396943 -8.45461169 65.38529821 -3 64 C-3 63.67 -3 63.34 -3 63 C-4.98 62.67 -6.96 62.34 -9 62 C-9.00808685 61.33458694 -9.01617371 60.66917389 -9.02450562 59.9835968 C-9.11057654 53.05666014 -9.21008168 46.1300088 -9.31738281 39.20336914 C-9.35566099 36.61845695 -9.39051586 34.03349171 -9.421875 31.44848633 C-9.46755006 27.73239177 -9.5255417 24.01666211 -9.5859375 20.30078125 C-9.59748871 19.14540359 -9.60903992 17.99002594 -9.62094116 16.79963684 C-9.64081085 15.71889389 -9.66068054 14.63815094 -9.68115234 13.5246582 C-9.69447601 12.57645706 -9.70779968 11.62825592 -9.7215271 10.65132141 C-10.02542271 7.75795211 -10.69095058 5.5942454 -12 3 C-14.04105639 2.11306697 -14.04105639 2.11306697 -16 2 Z M-71 70 C-67.7354972 73.2645028 -63.58952701 73.93236055 -59.0625 74.125 C-58.381875 74.08375 -57.70125 74.0425 -57 74 C-61.60966042 71.51787516 -65.72927515 70 -71 70 Z M-56 74 C-56 74.33 -56 74.66 -56 75 C-53.36 75 -50.72 75 -48 75 C-48 74.67 -48 74.34 -48 74 C-50.64 74 -53.28 74 -56 74 Z M-47 75 C-47 75.33 -47 75.66 -47 76 C-44.03 76 -41.06 76 -38 76 C-38 75.67 -38 75.34 -38 75 C-40.97 75 -43.94 75 -47 75 Z " fill="#4C9ACB" transform="translate(92,51)"/>
<path d="M0 0 C0.99 0.7734375 0.99 0.7734375 2 1.5625 C2.82757813 2.15804687 3.65515625 2.75359375 4.5078125 3.3671875 C7.36988556 5.88832396 8.98374878 8.38389808 10.875 11.6875 C11.49117188 12.74195312 12.10734375 13.79640625 12.7421875 14.8828125 C13.15726562 15.76710938 13.57234375 16.65140625 14 17.5625 C13.67 18.2225 13.34 18.8825 13 19.5625 C11.93652344 19.129375 11.93652344 19.129375 10.8515625 18.6875 C8.04400166 17.57985956 5.22808211 16.54685178 2.375 15.5625 C1.43398437 15.2325 0.49296875 14.9025 -0.4765625 14.5625 C-9.55811289 11.98503115 -18.33134065 11.20259649 -27.75 11.25 C-29.45917603 11.25628418 -29.45917603 11.25628418 -31.20288086 11.26269531 C-42.42754453 11.41272992 -53.07170265 12.47600021 -63.16796875 17.79296875 C-65 18.5625 -65 18.5625 -69 18.5625 C-68.13934932 14.68957195 -67.11632751 13.6385603 -63.75 11.4375 C-53.6540828 6.91802804 -41.87548876 5.96738837 -31 4.5625 C-40.62576012 2.06693256 -48.36980207 2.35229064 -58 4.5625 C-57.3918493 0.93669016 -57.00146042 0.56372198 -53.9375 -2 C-38.0830502 -12.55880366 -15.13736762 -10.87998298 0 0 Z " fill="#489CD1" transform="translate(84,32.4375)"/>
<path d="M0 0 C1.051875 -0.00386719 1.051875 -0.00386719 2.125 -0.0078125 C4 0.125 4 0.125 6 1.125 C5.93885749 9.17450304 5.86180224 17.2236275 5.76428509 25.27276421 C5.71950948 29.01010875 5.68026977 32.74734247 5.65356445 36.48486328 C5.6276024 40.0901249 5.58725188 43.69496169 5.53681374 47.29996109 C5.52009662 48.6770513 5.50861257 50.05421507 5.50238609 51.43139267 C5.49279841 53.35656035 5.46307292 55.2815962 5.43237305 57.20654297 C5.41571846 58.85201614 5.41571846 58.85201614 5.39872742 60.5307312 C5.26714737 61.3868399 5.13556732 62.24294861 5 63.125 C2 65.125 2 65.125 -1.1875 64.75 C-2.115625 64.54375 -3.04375 64.3375 -4 64.125 C-4.01030746 63.37997726 -4.02061493 62.63495453 -4.03123474 61.86735535 C-4.12918408 54.84861117 -4.23169492 47.82995195 -4.33933926 40.81135082 C-4.39452 37.2029594 -4.4479322 33.59455979 -4.49731445 29.98608398 C-4.54502961 26.50416857 -4.59737492 23.02235081 -4.65294075 19.54055214 C-4.68326037 17.56469447 -4.70877575 15.58876498 -4.73423767 13.61283875 C-4.75418289 12.41182022 -4.77412811 11.2108017 -4.79467773 9.97338867 C-4.81022202 8.91415695 -4.8257663 7.85492523 -4.84178162 6.76359558 C-4.89223068 4.01684665 -4.89223068 4.01684665 -6 1.125 C-3.75487738 0.00243869 -2.48543351 -0.00913762 0 0 Z " fill="#4B99CC" transform="translate(42,51.875)"/>
<path d="M0 0 C0.99 0 1.98 0 3 0 C3 42.24 3 84.48 3 128 C2.01 128 1.02 128 0 128 C0 85.76 0 43.52 0 0 Z " fill="#648EB0" transform="translate(133,13)"/>
<path d="M0 0 C1.32 0.33 2.64 0.66 4 1 C3.67 20.8 3.34 40.6 3 61 C0.525 61.495 0.525 61.495 -2 62 C-3.65367582 60.34632418 -3.18387433 58.37881779 -3.23706055 56.10058594 C-3.26346115 55.05570007 -3.28986176 54.01081421 -3.31706238 52.93426514 C-3.34004898 51.79580139 -3.36303558 50.65733765 -3.38671875 49.484375 C-3.41224319 48.32125793 -3.43776764 47.15814087 -3.46406555 45.95977783 C-3.5161942 43.49163138 -3.56560625 41.02342632 -3.61254883 38.55517578 C-3.68691028 34.77993911 -3.77761853 31.00532326 -3.86914062 27.23046875 C-3.91767476 24.83595772 -3.96523253 22.44142666 -4.01171875 20.046875 C-4.04077805 18.91650818 -4.06983734 17.78614136 -4.09977722 16.621521 C-4.11672134 15.56402649 -4.13366547 14.50653198 -4.15112305 13.41699219 C-4.17031296 12.48957214 -4.18950287 11.5621521 -4.20927429 10.60662842 C-3.86939306 6.37321742 -2.33527797 3.50291695 0 0 Z " fill="#499CD2" transform="translate(86,51)"/>
<path d="M0 0 C2.91664036 0.94593741 5.80828526 1.92656541 8.671875 3.0234375 C10.10273438 3.56871094 10.10273438 3.56871094 11.5625 4.125 C12.47128906 4.47820312 13.38007813 4.83140625 14.31640625 5.1953125 C17.0898017 6.02692744 19.12554423 6.29653287 22 6 C22.99 5.34 23.98 4.68 25 4 C27.04296875 3.8046875 27.04296875 3.8046875 29.1875 3.875 C31.0746875 3.936875 31.0746875 3.936875 33 4 C33.33 3.34 33.66 2.68 34 2 C34.66 2 35.32 2 36 2 C36 2.99 36 3.98 36 5 C37.670625 4.9071875 37.670625 4.9071875 39.375 4.8125 C41.169375 4.9053125 41.169375 4.9053125 43 5 C43.66 5.99 44.32 6.98 45 8 C40.27805833 11.77755334 35.74071928 11.30096975 30 11 C31.485 11.99 31.485 11.99 33 13 C33 13.66 33 14.32 33 15 C40.59 15 48.18 15 56 15 C56 15.33 56 15.66 56 16 C13.71548656 16.68294033 13.71548656 16.68294033 0 7 C-0.875 3.875 -0.875 3.875 -1 1 C-0.67 0.67 -0.34 0.34 0 0 Z M23 7 C23 7.33 23 7.66 23 8 C25.64 8 28.28 8 31 8 C31 7.67 31 7.34 31 7 C28.36 7 25.72 7 23 7 Z M32 8 C32 8.33 32 8.66 32 9 C34.97 9 37.94 9 41 9 C41 8.67 41 8.34 41 8 C38.03 8 35.06 8 32 8 Z " fill="#549CC9" transform="translate(13,118)"/>
<path d="M0 0 C2.97 0 5.94 0 9 0 C9.33 0.99 9.66 1.98 10 3 C9.34 3 8.68 3 8 3 C8 3.99 8 4.98 8 6 C9.65 6 11.3 6 13 6 C13 5.01 13 4.02 13 3 C12.34 3 11.68 3 11 3 C11.33 2.01 11.66 1.02 12 0 C14.64 0 17.28 0 20 0 C19.73896484 1.05767578 19.73896484 1.05767578 19.47265625 2.13671875 C18.96683015 5.20093804 19.10342727 7.73160701 19.4375 10.8125 C19.53933594 11.78832031 19.64117187 12.76414062 19.74609375 13.76953125 C19.87177734 14.87361328 19.87177734 14.87361328 20 16 C17.03 16 14.06 16 11 16 C11.66 14.02 12.32 12.04 13 10 C11.35 10 9.7 10 8 10 C8.66 11.98 9.32 13.96 10 16 C6.7 16 3.4 16 0 16 C0.66 11.71 1.32 7.42 2 3 C1.34 3 0.68 3 0 3 C0 2.01 0 1.02 0 0 Z " fill="#4F9BCC" transform="translate(337,104)"/>
<path d="M0 0 C2.64 0 5.28 0 8 0 C8.33 0.99 8.66 1.98 9 3 C8.34 3 7.68 3 7 3 C7 3.99 7 4.98 7 6 C8.65 6 10.3 6 12 6 C11.67 4.02 11.34 2.04 11 0 C13.64 0 16.28 0 19 0 C19.33 0.99 19.66 1.98 20 3 C19.34 3 18.68 3 18 3 C18.0721875 3.67546875 18.144375 4.3509375 18.21875 5.046875 C18.3115625 5.93890625 18.404375 6.8309375 18.5 7.75 C18.5928125 8.63171875 18.685625 9.5134375 18.78125 10.421875 C19 13 19 13 19 17 C16.36 17 13.72 17 11 17 C11.33 14.69 11.66 12.38 12 10 C10.35 10 8.7 10 7 10 C7.66 11.98 8.32 13.96 9 16 C5.7169902 17.6415049 2.57454967 16.51888624 -1 16 C-1 15.34 -1 14.68 -1 14 C-0.34 14 0.32 14 1 14 C0.67 9.38 0.34 4.76 0 0 Z " fill="#4C9DCC" transform="translate(193,36)"/>
<path d="M0 0 C2.64 0 5.28 0 8 0 C8.33 0.99 8.66 1.98 9 3 C8.34 3 7.68 3 7 3 C7 3.99 7 4.98 7 6 C8.65 6 10.3 6 12 6 C11.34 4.35 10.68 2.7 10 1 C11 0 11 0 12.84765625 -0.09765625 C14.8984375 -0.06510417 16.94921875 -0.03255208 19 0 C19 1.79170499 18.99136279 3.58349127 18.96484375 5.375 C18.95582031 6.24125 18.94679688 7.1075 18.9375 8 C18.92589844 8.86625 18.91429687 9.7325 18.90234375 10.625 C18.89637375 13.15076351 18.89637375 13.15076351 20 16 C17.03 16 14.06 16 11 16 C11.33 14.02 11.66 12.04 12 10 C10.35 10 8.7 10 7 10 C7.66 11.98 8.32 13.96 9 16 C5.93109813 17.53445094 3.29905734 16.54984289 0 16 C0 10.66666667 0 5.33333333 0 0 Z " fill="#5498BF" transform="translate(292,70)"/>
<path d="M0 0 C1.23556641 0.01740234 1.23556641 0.01740234 2.49609375 0.03515625 C3.32238281 0.04417969 4.14867187 0.05320312 5 0.0625 C5.63808594 0.07410156 6.27617187 0.08570312 6.93359375 0.09765625 C6.93359375 1.08765625 6.93359375 2.07765625 6.93359375 3.09765625 C6.27359375 3.09765625 5.61359375 3.09765625 4.93359375 3.09765625 C4.93359375 4.08765625 4.93359375 5.07765625 4.93359375 6.09765625 C6.58359375 6.09765625 8.23359375 6.09765625 9.93359375 6.09765625 C9.27359375 4.44765625 8.61359375 2.79765625 7.93359375 1.09765625 C8.93359375 0.09765625 8.93359375 0.09765625 10.78125 0 C12.83203125 0.03255208 14.8828125 0.06510417 16.93359375 0.09765625 C17.26359375 1.08765625 17.59359375 2.07765625 17.93359375 3.09765625 C17.27359375 3.09765625 16.61359375 3.09765625 15.93359375 3.09765625 C16.07508364 4.70221185 16.22195061 6.30629392 16.37109375 7.91015625 C16.45230469 8.80347656 16.53351563 9.69679688 16.6171875 10.6171875 C16.86849142 13.22509184 16.86849142 13.22509184 17.93359375 16.09765625 C14.63359375 16.09765625 11.33359375 16.09765625 7.93359375 16.09765625 C8.59359375 14.11765625 9.25359375 12.13765625 9.93359375 10.09765625 C8.28359375 10.09765625 6.63359375 10.09765625 4.93359375 10.09765625 C4.93359375 11.08765625 4.93359375 12.07765625 4.93359375 13.09765625 C5.59359375 13.09765625 6.25359375 13.09765625 6.93359375 13.09765625 C6.93359375 14.08765625 6.93359375 15.07765625 6.93359375 16.09765625 C3.96359375 16.09765625 0.99359375 16.09765625 -2.06640625 16.09765625 C-2.06640625 15.10765625 -2.06640625 14.11765625 -2.06640625 13.09765625 C-1.40640625 13.09765625 -0.74640625 13.09765625 -0.06640625 13.09765625 C-0.18099318 11.65928874 -0.30849741 10.22194659 -0.44140625 8.78515625 C-0.51101562 7.98464844 -0.580625 7.18414062 -0.65234375 6.359375 C-0.96205051 3.82541184 -0.96205051 3.82541184 -3.06640625 1.09765625 C-2.06640625 0.09765625 -2.06640625 0.09765625 0 0 Z " fill="#4A96CB" transform="translate(229.06640625,103.90234375)"/>
<path d="M0 0 C3.96 0 7.92 0 12 0 C12.91300909 2.73902726 13.12846608 4.3744827 13.1328125 7.1953125 C13.13474609 8.39220703 13.13474609 8.39220703 13.13671875 9.61328125 C13.13285156 10.44214844 13.12898438 11.27101563 13.125 12.125 C13.12886719 12.96160156 13.13273437 13.79820313 13.13671875 14.66015625 C13.12664874 20.87335126 13.12664874 20.87335126 12 22 C10.14712498 22.07226502 8.29166122 22.0838122 6.4375 22.0625 C5.42558594 22.05347656 4.41367187 22.04445313 3.37109375 22.03515625 C2.58863281 22.02355469 1.80617187 22.01195313 1 22 C-0.70122937 17.23655777 0.8073769 12.71854771 1.72265625 7.8984375 C1.85994141 6.46371094 1.85994141 6.46371094 2 5 C1.34 4.34 0.68 3.68 0 3 C0 2.01 0 1.02 0 0 Z " fill="#4A9DD3" transform="translate(50,91)"/>
<path d="M0 0 C1.16273438 -0.02578125 2.32546875 -0.0515625 3.5234375 -0.078125 C6.625 0.25 6.625 0.25 8.5625 1.54296875 C10.32781093 4.37914845 9.19922441 7.09176572 8.625 10.25 C9.88041557 12.76083114 11.12563488 13.12125446 13.625 14.25 C13.295 15.24 12.965 16.23 12.625 17.25 C5.875 16.5 5.875 16.5 3.625 14.25 C3.295 14.91 2.965 15.57 2.625 16.25 C-0.345 16.25 -3.315 16.25 -6.375 16.25 C-6.375 15.26 -6.375 14.27 -6.375 13.25 C-5.715 13.25 -5.055 13.25 -4.375 13.25 C-4.48958693 11.81163249 -4.61709116 10.37429034 -4.75 8.9375 C-4.81960937 8.13699219 -4.88921875 7.33648437 -4.9609375 6.51171875 C-5.27064426 3.97775559 -5.27064426 3.97775559 -7.375 1.25 C-5.50583206 -0.61916794 -2.50055426 0.03311992 0 0 Z M1.625 3.25 C1.625 4.57 1.625 5.89 1.625 7.25 C2.285 7.25 2.945 7.25 3.625 7.25 C3.625 5.93 3.625 4.61 3.625 3.25 C2.965 3.25 2.305 3.25 1.625 3.25 Z M0.625 11.25 C0.625 11.91 0.625 12.57 0.625 13.25 C1.285 12.92 1.945 12.59 2.625 12.25 C1.965 11.92 1.305 11.59 0.625 11.25 Z " fill="#5598C2" transform="translate(256.375,69.75)"/>
<path d="M0 0 C2.10388569 -0.05402274 4.20816714 -0.09280256 6.3125 -0.125 C8.07013672 -0.15980469 8.07013672 -0.15980469 9.86328125 -0.1953125 C13 0 13 0 16 2 C16.1875 4.375 16.1875 4.375 16 7 C16 8.32 16 9.64 16 11 C16 11.66 16 12.32 16 13 C17.32 13.33 18.64 13.66 20 14 C20 14.66 20 15.32 20 16 C16.66666667 16 13.33333333 16 10 16 C9.34 16.33 8.68 16.66 8 17 C5.30434798 16.83219837 2.67594446 16.38844355 0 16 C0 13 0 13 1 12 C1.23192865 10.48530552 1.41215238 8.96245438 1.5625 7.4375 C1.64628906 6.61121094 1.73007812 5.78492188 1.81640625 4.93359375 C1.87699219 4.29550781 1.93757813 3.65742187 2 3 C1.01 2.67 0.02 2.34 -1 2 C-0.67 1.34 -0.34 0.68 0 0 Z M8 3 C8.33 4.32 8.66 5.64 9 7 C9.66 6.01 10.32 5.02 11 4 C10.01 3.67 9.02 3.34 8 3 Z M7 11 C7.66 11.66 8.32 12.32 9 13 C9 12.34 9 11.68 9 11 C8.34 11 7.68 11 7 11 Z " fill="#509DCB" transform="translate(346,36)"/>
<path d="M0 0 C1.16273438 -0.02578125 2.32546875 -0.0515625 3.5234375 -0.078125 C6.625 0.25 6.625 0.25 8.5625 1.54296875 C10.32781093 4.37914845 9.19922441 7.09176572 8.625 10.25 C9.88041557 12.76083114 11.12563488 13.12125446 13.625 14.25 C13.295 15.24 12.965 16.23 12.625 17.25 C11.51125 17.085 10.3975 16.92 9.25 16.75 C5.90467967 16.2044542 5.90467967 16.2044542 3.625 16.25 C0.29166667 16.25 -3.04166667 16.25 -6.375 16.25 C-6.375 15.26 -6.375 14.27 -6.375 13.25 C-5.715 13.25 -5.055 13.25 -4.375 13.25 C-4.48958693 11.81163249 -4.61709116 10.37429034 -4.75 8.9375 C-4.81960938 8.13699219 -4.88921875 7.33648437 -4.9609375 6.51171875 C-5.27064426 3.97775559 -5.27064426 3.97775559 -7.375 1.25 C-5.50583206 -0.61916794 -2.50055426 0.03311992 0 0 Z M0.625 3.25 C0.625 4.57 0.625 5.89 0.625 7.25 C1.615 7.25 2.605 7.25 3.625 7.25 C3.625 5.93 3.625 4.61 3.625 3.25 C2.635 3.25 1.645 3.25 0.625 3.25 Z M0.625 11.25 C0.625 11.91 0.625 12.57 0.625 13.25 C1.285 12.92 1.945 12.59 2.625 12.25 C1.965 11.92 1.305 11.59 0.625 11.25 Z " fill="#4C9DCE" transform="translate(372.375,69.75)"/>
<path d="M0 0 C3.125 -0.4375 3.125 -0.4375 7 0 C9.38682039 2.06581634 11.20049043 4.41608882 13 7 C13.33 5.68 13.66 4.36 14 3 C13.34 3 12.68 3 12 3 C12 2.01 12 1.02 12 0 C14.31 0 16.62 0 19 0 C19 3 19 3 18 6 C17.73787249 8.6046321 17.55680086 11.20866821 17.37890625 13.8203125 C17.19134766 14.89925781 17.19134766 14.89925781 17 16 C16.34 16.33 15.68 16.66 15 17 C11.51250686 14.21000549 8.49842779 11.74764169 6 8 C5.67 9.65 5.34 11.3 5 13 C5.66 13 6.32 13 7 13 C7 13.99 7 14.98 7 16 C4.69 16 2.38 16 0 16 C0.08378906 15.18015625 0.16757813 14.3603125 0.25390625 13.515625 C0.35574219 12.43796875 0.45757812 11.3603125 0.5625 10.25 C0.66691406 9.18265625 0.77132812 8.1153125 0.87890625 7.015625 C0.98560074 4.35858796 0.81930395 2.50039428 0 0 Z " fill="#5A9DC4" transform="translate(206,70)"/>
<path d="M0 0 C7 0 7 0 8.99609375 1.53125 C9.70958984 2.50578125 9.70958984 2.50578125 10.4375 3.5 C10.93121094 4.1496875 11.42492187 4.799375 11.93359375 5.46875 C12.28550781 5.9740625 12.63742187 6.479375 13 7 C12.67 4.69 12.34 2.38 12 0 C14.31 0 16.62 0 19 0 C18.71943562 2.64745321 18.42614369 5.29237964 18.125 7.9375 C18.00705078 9.06961914 18.00705078 9.06961914 17.88671875 10.22460938 C17.66116192 12.15919299 17.33741026 14.08176019 17 16 C16.34 16.33 15.68 16.66 15 17 C13.87105124 16.06725891 12.74699124 15.12859878 11.625 14.1875 C10.99851562 13.66542969 10.37203125 13.14335938 9.7265625 12.60546875 C8 11 8 11 6 8 C5.91773332 11.04386724 6.02391783 13.07175348 7 16 C4.69 16 2.38 16 0 16 C0 10.72 0 5.44 0 0 Z " fill="#5F9EC4" transform="translate(442,70)"/>
<path d="M0 0 C3.12785483 2.03310564 3.80934494 3.40261415 4.9375 6.9375 C5.01327396 10.65042412 4.3135507 12.12800603 2 15 C-1.21855225 17.33067577 -4.10490526 17.46741137 -8 17 C-11.3125 15.4375 -11.3125 15.4375 -14 13 C-15.125 9.5625 -15.125 9.5625 -15 6 C-11.06840362 -0.23632528 -7.00137483 -0.88451533 0 0 Z M-7 3 C-9.27671738 5.74841911 -9.27671738 5.74841911 -8.8125 8.5 C-7.95559826 11.13662075 -7.11007147 12.25689748 -5 14 C-4.01 13.67 -3.02 13.34 -2 13 C-0.84162374 8.94568308 -1.16308743 6.78187881 -3 3 C-4.32 3 -5.64 3 -7 3 Z " fill="#5A9ABF" transform="translate(401,70)"/>
<path d="M0 0 C4.4571874 0.26218749 6.51522698 0.57711289 9.9375 3.5625 C10.618125 4.366875 11.29875 5.17125 12 6 C11.7215625 4.7934375 11.7215625 4.7934375 11.4375 3.5625 C11.293125 2.716875 11.14875 1.87125 11 1 C11.33 0.67 11.66 0.34 12 0 C13.98 0 15.96 0 18 0 C17.67 4.95 17.34 9.9 17 15 C15.68 15.33 14.36 15.66 13 16 C10.859375 14.34765625 10.859375 14.34765625 8.75 12.0625 C8.04359375 11.31097656 7.3371875 10.55945312 6.609375 9.78515625 C6.07828125 9.19605469 5.5471875 8.60695313 5 8 C4.67 9.32 4.34 10.64 4 12 C4.66 12 5.32 12 6 12 C6.33 12.99 6.66 13.98 7 15 C6 16 6 16 2.4375 16.0625 C1.303125 16.041875 0.16875 16.02125 -1 16 C-0.67 15.01 -0.34 14.02 0 13 C0.06847819 11.33461039 0.08482117 9.6666474 0.0625 8 C0.04896484 6.700625 0.04896484 6.700625 0.03515625 5.375 C0.02355469 4.59125 0.01195312 3.8075 0 3 C0 2.01 0 1.02 0 0 Z " fill="#569BC8" transform="translate(270,36)"/>
<path d="M0 0 C2.08984375 0.41796875 2.08984375 0.41796875 4.58984375 2.04296875 C6.44905422 4.98671867 7.01867455 6.93067802 7.08984375 10.41796875 C5.85519849 13.27714724 4.79937018 14.90417375 2.27734375 16.73046875 C-1.84232409 18.0252215 -4.83309669 17.9445312 -8.72265625 16.04296875 C-10.91015625 14.41796875 -10.91015625 14.41796875 -11.91015625 12.41796875 C-12.39168637 8.16445265 -12.3573238 6.09593245 -9.97265625 2.48046875 C-6.36906331 0.05355922 -4.25890717 -0.26219562 0 0 Z M-4.91015625 3.41796875 C-6.51355473 6.53568802 -7.09989766 7.80808564 -6.03515625 11.23046875 C-5.66390625 11.95234375 -5.29265625 12.67421875 -4.91015625 13.41796875 C-3.2440372 13.46068975 -1.5763274 13.45860707 0.08984375 13.41796875 C1.41404624 12.31362955 1.41404624 12.31362955 1.27734375 9.54296875 C1.34327888 6.25226117 1.34327888 6.25226117 -0.91015625 3.41796875 C-2.23015625 3.41796875 -3.55015625 3.41796875 -4.91015625 3.41796875 Z " fill="#6099BC" transform="translate(239.91015625,69.58203125)"/>
<path d="M0 0 C4.62 0 9.24 0 14 0 C14 3.3 14 6.6 14 10 C14.33 10 14.66 10 15 10 C15 11.98 15 13.96 15 16 C12.7089095 16.19441368 10.41709663 16.38033135 8.125 16.5625 C6.84882813 16.66691406 5.57265625 16.77132812 4.2578125 16.87890625 C1 17 1 17 -1 16 C-0.34 11.71 0.32 7.42 1 3 C0.34 3 -0.32 3 -1 3 C-0.67 2.01 -0.34 1.02 0 0 Z M8 3 C7.67 3.99 7.34 4.98 7 6 C8.65 5.67 10.3 5.34 12 5 C11.67 4.34 11.34 3.68 11 3 C10.01 3 9.02 3 8 3 Z M7 10 C7 10.99 7 11.98 7 13 C8.65 13 10.3 13 12 13 C12.33 12.34 12.66 11.68 13 11 C10.03 10.505 10.03 10.505 7 10 Z " fill="#5B96BB" transform="translate(290,104)"/>
<path d="M0 0 C1.79244141 0.01740234 1.79244141 0.01740234 3.62109375 0.03515625 C5.41740234 0.04869141 5.41740234 0.04869141 7.25 0.0625 C8.17683594 0.07410156 9.10367187 0.08570313 10.05859375 0.09765625 C12.01741317 3.37686506 12.11418867 3.85939229 11.18359375 7.84765625 C10.81234375 8.92015625 10.44109375 9.99265625 10.05859375 11.09765625 C10.71859375 11.09765625 11.37859375 11.09765625 12.05859375 11.09765625 C12.05859375 12.74765625 12.05859375 14.39765625 12.05859375 16.09765625 C6.77859375 16.09765625 1.49859375 16.09765625 -3.94140625 16.09765625 C-3.28140625 14.77765625 -2.62140625 13.45765625 -1.94140625 12.09765625 C-1.38666258 7.84734077 -1.50618127 4.75049372 -3.94140625 1.09765625 C-2.94140625 0.09765625 -2.94140625 0.09765625 0 0 Z M4.05859375 3.09765625 C4.05859375 4.08765625 4.05859375 5.07765625 4.05859375 6.09765625 C5.70859375 5.76765625 7.35859375 5.43765625 9.05859375 5.09765625 C8.72859375 4.43765625 8.39859375 3.77765625 8.05859375 3.09765625 C6.73859375 3.09765625 5.41859375 3.09765625 4.05859375 3.09765625 Z M4.05859375 10.09765625 C4.05859375 11.08765625 4.05859375 12.07765625 4.05859375 13.09765625 C5.70859375 13.09765625 7.35859375 13.09765625 9.05859375 13.09765625 C9.05859375 12.43765625 9.05859375 11.77765625 9.05859375 11.09765625 C7.40859375 10.76765625 5.75859375 10.43765625 4.05859375 10.09765625 Z " fill="#5F9BBE" transform="translate(328.94140625,35.90234375)"/>
<path d="M0 0 C4.29 0 8.58 0 13 0 C13.89840477 4.49202386 13.90338924 6.68380697 13 11 C13.66 11 14.32 11 15 11 C15 12.65 15 14.3 15 16 C10.05 16.33 5.1 16.66 0 17 C-0.33 16.01 -0.66 15.02 -1 14 C-0.34 14 0.32 14 1 14 C1.33 10.37 1.66 6.74 2 3 C1.01 2.67 0.02 2.34 -1 2 C-0.67 1.34 -0.34 0.68 0 0 Z M8 3 C7.67 3.99 7.34 4.98 7 6 C8.65 5.67 10.3 5.34 12 5 C11.67 4.34 11.34 3.68 11 3 C10.01 3 9.02 3 8 3 Z M7 10 C7 10.99 7 11.98 7 13 C8.65 13 10.3 13 12 13 C11.67 12.01 11.34 11.02 11 10 C9.68 10 8.36 10 7 10 Z " fill="#5996BD" transform="translate(218,36)"/>
<path d="M0 0 C1.74301699 2.34970246 2.86502411 4.7268495 4.0390625 7.40625 C4.46445312 8.3653125 4.88984375 9.324375 5.328125 10.3125 C6.4140625 12.90625 6.4140625 12.90625 7.4140625 15.90625 C4.1140625 15.90625 0.8140625 15.90625 -2.5859375 15.90625 C-2.5859375 14.58625 -2.5859375 13.26625 -2.5859375 11.90625 C-4.03348005 13.35379255 -4.14327311 14.94587913 -4.5859375 16.90625 C-6.8959375 16.57625 -9.2059375 16.24625 -11.5859375 15.90625 C-11.29460937 15.19984375 -11.00328125 14.4934375 -10.703125 13.765625 C-9.96630604 11.87978068 -9.28228691 9.97233307 -8.65625 8.046875 C-8.34429687 7.09296875 -8.03234375 6.1390625 -7.7109375 5.15625 C-7.40414062 4.19203125 -7.09734375 3.2278125 -6.78125 2.234375 C-5.5859375 -0.09375 -5.5859375 -0.09375 -3.640625 -1.109375 C-1.5859375 -1.09375 -1.5859375 -1.09375 0 0 Z " fill="#599DC7" transform="translate(260.5859375,104.09375)"/>
<path d="M0 0 C0.66 0.66 1.32 1.32 2 2 C1.34 2.66 0.68 3.32 0 4 C-0.28602162 8.14509433 -0.28602162 8.14509433 1 12 C2.32 11.67 3.64 11.34 5 11 C5.33 8.36 5.66 5.72 6 3 C5.34 3 4.68 3 4 3 C4 2.01 4 1.02 4 0 C6.31 0 8.62 0 11 0 C11 0.99 11 1.98 11 3 C10.34 3 9.68 3 9 3 C9.05800781 3.67546875 9.11601562 4.3509375 9.17578125 5.046875 C9.54229489 12.29337332 9.54229489 12.29337332 6.9375 15.6875 C3.13605183 17.38601939 0.99087164 17.03467042 -3 16 C-3.99 15.34 -4.98 14.68 -6 14 C-6.44140625 11.72265625 -6.44140625 11.72265625 -6.5625 9.0625 C-6.74271503 5.3544393 -6.86660032 4.20009952 -9 1 C-5.98675805 -0.50662097 -3.31713623 -0.17770373 0 0 Z " fill="#43A2D5" transform="translate(254,36)"/>
<path d="M0 0 C2.12438339 -0.08078641 4.2496323 -0.13909141 6.375 -0.1875 C7.55835938 -0.22230469 8.74171875 -0.25710937 9.9609375 -0.29296875 C11.46527344 -0.14794922 11.46527344 -0.14794922 13 0 C15.14201526 3.21302289 15.65325876 4.26709281 15 8 C12.13896577 10.24243223 10.65923696 11 7 11 C7 11.66 7 12.32 7 13 C7.99 13.33 8.98 13.66 10 14 C10 14.66 10 15.32 10 16 C6.37 16 2.74 16 -1 16 C-0.34 14.68 0.32 13.36 1 12 C1.23920955 9.86712627 1.23920955 9.86712627 1.125 7.75 C1.08375 6.5125 1.0425 5.275 1 4 C0.34 3.67 -0.32 3.34 -1 3 C-0.67 2.01 -0.34 1.02 0 0 Z M7 3 C7 4.32 7 5.64 7 7 C7.66 7 8.32 7 9 7 C9 5.68 9 4.36 9 3 C8.34 3 7.68 3 7 3 Z " fill="#5793BC" transform="translate(271,104)"/>
<path d="M0 0 C-0.66 0.66 -1.32 1.32 -2 2 C5.59 2.33 13.18 2.66 21 3 C21 3.33 21 3.66 21 4 C20.29093506 4.01458252 19.58187012 4.02916504 18.85131836 4.04418945 C-4.86399332 4.09600314 -4.86399332 4.09600314 -27.16796875 11.23046875 C-29 12 -29 12 -33 12 C-32.13934932 8.12707195 -31.11632751 7.0760603 -27.75 4.875 C-19.06606055 0.98383587 -9.44824245 -0.4887022 0 0 Z " fill="#549BC7" transform="translate(48,39)"/>
<path d="M0 0 C1.98 0 3.96 0 6 0 C6.33773438 0.81984375 6.67546875 1.6396875 7.0234375 2.484375 C7.46945312 3.56203125 7.91546875 4.6396875 8.375 5.75 C8.81585938 6.81734375 9.25671875 7.8846875 9.7109375 8.984375 C10.72611757 11.35928111 11.84494419 13.68988839 13 16 C9.7 16 6.4 16 3 16 C3.33 14.68 3.66 13.36 4 12 C3.01 12.33 2.02 12.66 1 13 C1.33 13.99 1.66 14.98 2 16 C-0.64 16 -3.28 16 -6 16 C-5.71382813 15.46890625 -5.42765625 14.9378125 -5.1328125 14.390625 C-3.79673712 11.57104523 -2.84213837 8.71589101 -1.875 5.75 C-1.34519531 4.13351563 -1.34519531 4.13351563 -0.8046875 2.484375 C-0.53914063 1.66453125 -0.27359375 0.8446875 0 0 Z " fill="#4B9DCF" transform="translate(350,70)"/>
<path d="M0 0 C1.98 0 3.96 0 6 0 C6.81604999 1.9151579 7.62770632 3.83218834 8.4375 5.75 C9.11619141 7.35101563 9.11619141 7.35101563 9.80859375 8.984375 C11 12 11 12 12 16 C9.03 16 6.06 16 3 16 C3.33 14.35 3.66 12.7 4 11 C0.87525373 12.63473516 0.87525373 12.63473516 0.3125 15.125 C0.209375 15.74375 0.10625 16.3625 0 17 C-1.98 16.67 -3.96 16.34 -6 16 C-5.71382813 15.46890625 -5.42765625 14.9378125 -5.1328125 14.390625 C-3.79673712 11.57104523 -2.84213837 8.71589101 -1.875 5.75 C-1.34519531 4.13351563 -1.34519531 4.13351563 -0.8046875 2.484375 C-0.53914063 1.66453125 -0.27359375 0.8446875 0 0 Z " fill="#4F9ED0" transform="translate(468,70)"/>
<path d="M0 0 C0 2.31 0 4.62 0 7 C-0.66 7 -1.32 7 -2 7 C-2.66 6.01 -3.32 5.02 -4 4 C-5.65 4.33 -7.3 4.66 -9 5 C-9 7.64 -9 10.28 -9 13 C-6.02934491 12.65772428 -6.02934491 12.65772428 -3 12 C-2.67 11.34 -2.34 10.68 -2 10 C-1.01 10 -0.02 10 1 10 C0.67 11.98 0.34 13.96 0 16 C-7.90331126 17.42913907 -7.90331126 17.42913907 -11.875 15.875 C-14.40530996 13.64237357 -15.83712665 12.19790171 -17 9 C-15.66264824 4.61645812 -14.84867766 2.56578511 -11 0 C-7.05180103 -1.17378888 -4.00525433 -0.83830905 0 0 Z " fill="#529AC4" transform="translate(222,104)"/>
<path d="M0 0 C0.91007812 0.00902344 1.82015625 0.01804687 2.7578125 0.02734375 C3.45648438 0.03894531 4.15515625 0.05054687 4.875 0.0625 C5.205 2.0425 5.535 4.0225 5.875 6.0625 C4.885 6.0625 3.895 6.0625 2.875 6.0625 C2.215 5.4025 1.555 4.7425 0.875 4.0625 C-0.445 4.0625 -1.765 4.0625 -3.125 4.0625 C-4.14040112 8.16473585 -4.14040112 8.16473585 -3.125 12.0625 C0.50028568 12.26390476 2.74001708 11.92026765 5.875 10.0625 C5.875 11.7125 5.875 13.3625 5.875 15.0625 C2.80359569 16.87455858 0.84722701 17.28768386 -2.6875 16.875 C-3.45191406 16.79894531 -4.21632813 16.72289063 -5.00390625 16.64453125 C-7.54874467 15.94622384 -8.5222486 15.13923581 -10.125 13.0625 C-11.0625 9.6875 -11.0625 9.6875 -11.125 6.0625 C-7.92398413 0.98502655 -5.81665151 -0.07457246 0 0 Z " fill="#5F9BBD" transform="translate(336.125,69.9375)"/>
<path d="M0 0 C2.64590014 -0.02684679 5.29153096 -0.04676357 7.9375 -0.0625 C8.69224609 -0.07087891 9.44699219 -0.07925781 10.22460938 -0.08789062 C12.14994313 -0.09652441 14.07535581 -0.05224333 16 0 C17 1 17 1 17.0625 3.5625 C17.041875 4.366875 17.02125 5.17125 17 6 C14.525 5.01 14.525 5.01 12 4 C11.67 6.97 11.34 9.94 11 13 C11.99 13.33 12.98 13.66 14 14 C14 14.66 14 15.32 14 16 C12.741875 16.185625 11.48375 16.37125 10.1875 16.5625 C9.47980469 16.66691406 8.77210938 16.77132812 8.04296875 16.87890625 C6 17 6 17 3 16 C3.33 15.01 3.66 14.02 4 13 C4.06740865 11.43881572 4.08514456 9.8749748 4.0625 8.3125 C4.05347656 7.50425781 4.04445313 6.69601563 4.03515625 5.86328125 C4.02355469 5.24839844 4.01195312 4.63351563 4 4 C2.02 4.99 2.02 4.99 0 6 C0 4.02 0 2.04 0 0 Z " fill="#4C9ED4" transform="translate(271,70)"/>
<path d="M0 0 C5.28 0.33 10.56 0.66 16 1 C16.33 2.98 16.66 4.96 17 7 C14 7 14 7 12.3125 5.5 C11.879375 5.005 11.44625 4.51 11 4 C11.14148989 5.6045556 11.28835686 7.20863767 11.4375 8.8125 C11.51871094 9.70582031 11.59992188 10.59914063 11.68359375 11.51953125 C11.93489767 14.12743559 11.93489767 14.12743559 13 17 C8.05 17.495 8.05 17.495 3 18 C3 17.01 3 16.02 3 15 C3.66 15 4.32 15 5 15 C5 11.37 5 7.74 5 4 C4.01 4.99 3.02 5.98 2 7 C1.01 7 0.02 7 -1 7 C-0.67 4.69 -0.34 2.38 0 0 Z " fill="#5D9CC2" transform="translate(172,35)"/>
<path d="M0 0 C1.21816406 0.03480469 1.21816406 0.03480469 2.4609375 0.0703125 C3.68683594 0.09738281 3.68683594 0.09738281 4.9375 0.125 C5.87722656 0.15980469 5.87722656 0.15980469 6.8359375 0.1953125 C6.8359375 2.86197917 6.8359375 5.52864583 6.8359375 8.1953125 C7.1659375 8.5253125 7.4959375 8.8553125 7.8359375 9.1953125 C8.1484375 11.5703125 8.1484375 11.5703125 7.8359375 14.1953125 C6.3359375 16.0703125 6.3359375 16.0703125 3.8359375 17.1953125 C1.06466971 17.13713703 -1.41932795 16.69851383 -4.1640625 16.1953125 C-4.4940625 14.5453125 -4.8240625 12.8953125 -5.1640625 11.1953125 C-4.1740625 10.8653125 -3.1840625 10.5353125 -2.1640625 10.1953125 C-1.1740625 11.1853125 -0.1840625 12.1753125 0.8359375 13.1953125 C1.1659375 12.8653125 1.4959375 12.5353125 1.8359375 12.1953125 C0.8459375 11.6590625 -0.1440625 11.1228125 -1.1640625 10.5703125 C-4.1640625 8.1953125 -4.1640625 8.1953125 -4.6640625 5.0703125 C-4.07935572 1.70824852 -3.55051128 0.32044326 0 0 Z M-0.1640625 3.1953125 C1.8159375 4.1853125 1.8159375 4.1853125 3.8359375 5.1953125 C3.5059375 4.5353125 3.1759375 3.8753125 2.8359375 3.1953125 C1.8459375 3.1953125 0.8559375 3.1953125 -0.1640625 3.1953125 Z " fill="#529BC6" transform="translate(372.1640625,35.8046875)"/>
<path d="M0 0 C2.64 0 5.28 0 8 0 C8.5534764 2.07553648 9 3.84365964 9 6 C9.66 6 10.32 6 11 6 C10.979375 5.195625 10.95875 4.39125 10.9375 3.5625 C11 1 11 1 12 0 C13.66617115 -0.04063832 15.33388095 -0.042721 17 0 C17.33 0.99 17.66 1.98 18 3 C17.360625 3.53625 16.72125 4.0725 16.0625 4.625 C13.57935447 7.48437971 13.23861696 9.26166766 13 13 C13.33 13.99 13.66 14.98 14 16 C11.03 16.33 8.06 16.66 5 17 C5 15.68 5 14.36 5 13 C4.62770638 8.1601829 2.54712541 6.18331768 -1 3 C-0.67 2.01 -0.34 1.02 0 0 Z " fill="#5199C8" transform="translate(417,36)"/>
<path d="M0 0 C2.01822917 0.06510417 4.03645833 0.13020833 6.0546875 0.1953125 C6.3846875 1.1853125 6.7146875 2.1753125 7.0546875 3.1953125 C6.3946875 3.1953125 5.7346875 3.1953125 5.0546875 3.1953125 C5.7146875 4.8453125 6.3746875 6.4953125 7.0546875 8.1953125 C8.81931433 5.10721555 9.0546875 3.96219114 9.0546875 0.1953125 C11.0346875 0.1953125 13.0146875 0.1953125 15.0546875 0.1953125 C15.0546875 4.28990453 13.08541474 6.96282085 11.0546875 10.3828125 C10.673125 11.03701172 10.2915625 11.69121094 9.8984375 12.36523438 C8.95629818 13.97864795 8.00624484 15.58743548 7.0546875 17.1953125 C4.0546875 16.1953125 4.0546875 16.1953125 2.66796875 13.76171875 C2.23871094 12.77042969 1.80945313 11.77914062 1.3671875 10.7578125 C0.71169922 9.27474609 0.71169922 9.27474609 0.04296875 7.76171875 C-0.9453125 5.1953125 -0.9453125 5.1953125 -0.9453125 3.1953125 C-1.9353125 2.8653125 -2.9253125 2.5353125 -3.9453125 2.1953125 C-1.9453125 0.1953125 -1.9453125 0.1953125 0 0 Z " fill="#559AC3" transform="translate(307.9453125,35.8046875)"/>
<path d="M0 0 C0.94875 0.04125 1.8975 0.0825 2.875 0.125 C3.205 1.115 3.535 2.105 3.875 3.125 C2.885 3.785 1.895 4.445 0.875 5.125 C0.215 4.795 -0.445 4.465 -1.125 4.125 C-1.455 5.115 -1.785 6.105 -2.125 7.125 C-1.465 7.455 -0.805 7.785 -0.125 8.125 C-0.785 8.785 -1.445 9.445 -2.125 10.125 C-2.95754433 13.15441524 -3.59273569 16.20469412 -4.24609375 19.27734375 C-5.1369423 22.16369304 -5.66473713 23.41811906 -8.125 25.125 C-11.8125 25.3125 -11.8125 25.3125 -15.125 25.125 C-15.125 23.805 -15.125 22.485 -15.125 21.125 C-13.475 20.795 -11.825 20.465 -10.125 20.125 C-9.95722817 18.33343648 -9.79081706 16.5417455 -9.625 14.75 C-9.5321875 13.75226563 -9.439375 12.75453125 -9.34375 11.7265625 C-9.09707053 9.22796264 -9.09707053 9.22796264 -9.125 7.125 C-8.465 7.125 -7.805 7.125 -7.125 7.125 C-6.83625 6.34125 -6.5475 5.5575 -6.25 4.75 C-4.67213767 1.06832122 -4.09004172 0.16360167 0 0 Z " fill="#4C9BC6" transform="translate(194.125,66.875)"/>
<path d="M0 0 C1.48831242 0.00667405 2.97660807 0.01863442 4.46484375 0.03515625 C5.22345703 0.03966797 5.98207031 0.04417969 6.76367188 0.04882812 C8.64326246 0.06064945 10.52281274 0.07858547 12.40234375 0.09765625 C12.40234375 2.07765625 12.40234375 4.05765625 12.40234375 6.09765625 C11.74234375 6.09765625 11.08234375 6.09765625 10.40234375 6.09765625 C10.07234375 5.43765625 9.74234375 4.77765625 9.40234375 4.09765625 C8.41234375 4.59265625 8.41234375 4.59265625 7.40234375 5.09765625 C7.40234375 8.06765625 7.40234375 11.03765625 7.40234375 14.09765625 C8.06234375 14.42765625 8.72234375 14.75765625 9.40234375 15.09765625 C8.74234375 15.75765625 8.08234375 16.41765625 7.40234375 17.09765625 C5.23828125 17.07421875 5.23828125 17.07421875 2.77734375 16.72265625 C1.55144531 16.55636719 1.55144531 16.55636719 0.30078125 16.38671875 C-0.32570313 16.29132812 -0.9521875 16.1959375 -1.59765625 16.09765625 C-1.59765625 15.43765625 -1.59765625 14.77765625 -1.59765625 14.09765625 C-0.93765625 13.76765625 -0.27765625 13.43765625 0.40234375 13.09765625 C0.86986163 10.7416639 0.86986163 10.7416639 1.02734375 8.03515625 C1.13949219 6.65650391 1.13949219 6.65650391 1.25390625 5.25 C1.30289062 4.53972656 1.351875 3.82945313 1.40234375 3.09765625 C0.41234375 3.09765625 -0.57765625 3.09765625 -1.59765625 3.09765625 C-1.92765625 4.08765625 -2.25765625 5.07765625 -2.59765625 6.09765625 C-3.25765625 6.09765625 -3.91765625 6.09765625 -4.59765625 6.09765625 C-4.64037725 4.4315372 -4.63829457 2.7638274 -4.59765625 1.09765625 C-3.59765625 0.09765625 -3.59765625 0.09765625 0 0 Z " fill="#5497C1" transform="translate(401.59765625,35.90234375)"/>
<path d="M0 0 C3.3 0 6.6 0 10 0 C10 0.99 10 1.98 10 3 C9.34 3 8.68 3 8 3 C8 6.3 8 9.6 8 13 C10.31 12.01 12.62 11.02 15 10 C15.66 10.66 16.32 11.32 17 12 C16.34 13.32 15.68 14.64 15 16 C10.05 16 5.1 16 0 16 C0 15.01 0 14.02 0 13 C0.66 13 1.32 13 2 13 C2 9.7 2 6.4 2 3 C1.01 2.67 0.02 2.34 -1 2 C-0.67 1.34 -0.34 0.68 0 0 Z " fill="#479CCF" transform="translate(309,104)"/>
<path d="M0 0 C2.97 0 5.94 0 9 0 C9.33 0.99 9.66 1.98 10 3 C9.34 3 8.68 3 8 3 C8 6.3 8 9.6 8 13 C8.763125 12.484375 9.52625 11.96875 10.3125 11.4375 C11.199375 10.963125 12.08625 10.48875 13 10 C13.99 10.33 14.98 10.66 16 11 C15.67 12.65 15.34 14.3 15 16 C9.98269833 17.61270411 5.16045569 16.55290597 0 16 C0.66 11.71 1.32 7.42 2 3 C1.34 3 0.68 3 0 3 C0 2.01 0 1.02 0 0 Z " fill="#4FA1CB" transform="translate(393,104)"/>
<path d="M0 0 C3.3 0 6.6 0 10 0 C10 0.99 10 1.98 10 3 C9.01 3.495 9.01 3.495 8 4 C8 6.97 8 9.94 8 13 C8.763125 12.484375 9.52625 11.96875 10.3125 11.4375 C11.199375 10.963125 12.08625 10.48875 13 10 C13.99 10.33 14.98 10.66 16 11 C15.34 12.65 14.68 14.3 14 16 C9.38 16 4.76 16 0 16 C0 15.01 0 14.02 0 13 C0.66 13 1.32 13 2 13 C2 9.7 2 6.4 2 3 C1.34 3 0.68 3 0 3 C0 2.01 0 1.02 0 0 Z " fill="#5290B8" transform="translate(409,70)"/>
<path d="M0 0 C2.97 0 5.94 0 9 0 C9 0.99 9 1.98 9 3 C8.34 3 7.68 3 7 3 C7 6.3 7 9.6 7 13 C7.7425 12.67 8.485 12.34 9.25 12 C12 11 12 11 16 11 C15.34 12.65 14.68 14.3 14 16 C9.38 16 4.76 16 0 16 C0 15.01 0 14.02 0 13 C0.66 13 1.32 13 2 13 C2 9.7 2 6.4 2 3 C1.01 2.67 0.02 2.34 -1 2 C-0.67 1.34 -0.34 0.68 0 0 Z " fill="#5A98C0" transform="translate(376,104)"/>
<path d="M0 0 C0.99 0.99 1.98 1.98 3 3 C3.66 2.67 4.32 2.34 5 2 C5 9.26 5 16.52 5 24 C3.02 24 1.04 24 -1 24 C-1.0270491 20.93744039 -1.04686298 17.8751214 -1.0625 14.8125 C-1.07087891 13.94818359 -1.07925781 13.08386719 -1.08789062 12.19335938 C-1.10396812 7.99713231 -1.07559038 4.09063114 0 0 Z " fill="#479BD1" transform="translate(68,91)"/>
<path d="M0 0 C0.33 0.99 0.66 1.98 1 3 C0.01 3.495 0.01 3.495 -1 4 C-1.66 3.67 -2.32 3.34 -3 3 C-3.03758423 4.64198364 -3.03758423 4.64198364 -3.07592773 6.31713867 C-3.17030008 10.38935483 -3.27044731 14.46141226 -3.37231445 18.53344727 C-3.41555069 20.29382608 -3.4572335 22.05424378 -3.49731445 23.81469727 C-3.55529185 26.34924013 -3.61890627 28.88358934 -3.68359375 31.41796875 C-3.70030624 32.20149216 -3.71701874 32.98501556 -3.73423767 33.7922821 C-3.83807539 37.6468611 -4.16579285 41.2395506 -5 45 C-5.13728142 46.545681 -5.2425963 48.09452221 -5.31640625 49.64453125 C-5.35830078 50.48564453 -5.40019531 51.32675781 -5.44335938 52.19335938 C-5.48267578 53.05767578 -5.52199219 53.92199219 -5.5625 54.8125 C-5.60568359 55.69615234 -5.64886719 56.57980469 -5.69335938 57.49023438 C-5.79891536 59.65999623 -5.89991071 61.8299791 -6 64 C-6.33 64 -6.66 64 -7 64 C-7.21233589 44.32354102 -6.57218151 24.66569585 -6 5 C-6.66 5 -7.32 5 -8 5 C-7.67 3.68 -7.34 2.36 -7 1 C-3.535 0.505 -3.535 0.505 0 0 Z " fill="#5190B9" transform="translate(73,51)"/>
<path d="M0 0 C-0.66 2.64 -1.32 5.28 -2 8 C-1.34 8 -0.68 8 0 8 C-0.75 9.9375 -0.75 9.9375 -2 12 C-4 12.8125 -4 12.8125 -6 13 C-6.66 12.67 -7.32 12.34 -8 12 C-9.32 12 -10.64 12 -12 12 C-12.75 9.875 -12.75 9.875 -13 7 C-11.35550585 3.89373328 -9.89678566 1.6653571 -7.0625 -0.4375 C-4.42577404 -1.15660708 -2.60478343 -0.72355095 0 0 Z M-7 4 C-7.33 4.99 -7.66 5.98 -8 7 C-7.34 7 -6.68 7 -6 7 C-6.33 6.01 -6.66 5.02 -7 4 Z " fill="#629BBC" transform="translate(184,108)"/>
<path d="M0 0 C2.64 0 5.28 0 8 0 C8 5.33333333 8 10.66666667 8 16 C5.03 16 2.06 16 -1 16 C-1 15.01 -1 14.02 -1 13 C-0.34 13 0.32 13 1 13 C1 9.7 1 6.4 1 3 C0.34 3 -0.32 3 -1 3 C-0.67 2.01 -0.34 1.02 0 0 Z " fill="#449ACF" transform="translate(363,104)"/>
<path d="M0 0 C2.64 0 5.28 0 8 0 C8 2.93593133 7.77500573 5.76556416 7.5 8.6875 C7.4071875 9.68136719 7.314375 10.67523438 7.21875 11.69921875 C7.1465625 12.45847656 7.074375 13.21773437 7 14 C7.66 14 8.32 14 9 14 C9 14.66 9 15.32 9 16 C5.8035914 17.06546953 3.34252724 17.07427838 0 17 C0 11.33333333 0 5.66666667 0 0 Z " fill="#4B99CB" transform="translate(385,36)"/>
<path d="M0 0 C2.64 0 5.28 0 8 0 C8 5.66666667 8 11.33333333 8 17 C5.03 16.67 2.06 16.34 -1 16 C-0.67 15.01 -0.34 14.02 0 13 C0.06847819 11.33461039 0.08482117 9.6666474 0.0625 8 C0.04896484 6.700625 0.04896484 6.700625 0.03515625 5.375 C0.02355469 4.59125 0.01195312 3.8075 0 3 C0 2.01 0 1.02 0 0 Z " fill="#5899C0" transform="translate(293,36)"/>
<path d="M0 0 C2.97 0 5.94 0 9 0 C8.34 4.29 7.68 8.58 7 13 C7.66 13 8.32 13 9 13 C9 13.99 9 14.98 9 16 C6.03 16 3.06 16 0 16 C0.08378906 15.18015625 0.16757812 14.3603125 0.25390625 13.515625 C0.35574219 12.43796875 0.45757812 11.3603125 0.5625 10.25 C0.66691406 9.18265625 0.77132813 8.1153125 0.87890625 7.015625 C1.14956962 3.80135971 1.14956962 3.80135971 0 0 Z " fill="#599AC3" transform="translate(428,70)"/>
<path d="M0 0 C1.6875 0.875 1.6875 0.875 2.6875 1.875 C3.27047347 8.05451882 3.27047347 8.05451882 1 11.25 C-1.50368187 13.00934402 -3.29450506 13.53966723 -6.3125 13.875 C-8.35529463 11.6687818 -9.29669935 10.49122536 -9.375 7.4375 C-7.73444315 3.4808629 -4.63226613 -0.25039276 0 0 Z M-3.3125 3.875 C-3.6425 5.525 -3.9725 7.175 -4.3125 8.875 C-3.3225 9.37 -3.3225 9.37 -2.3125 9.875 C-1.9825 8.225 -1.6525 6.575 -1.3125 4.875 C-1.9725 4.545 -2.6325 4.215 -3.3125 3.875 Z " fill="#5E9AC1" transform="translate(180.3125,73.125)"/>
<path d="M0 0 C0.33 1.98 0.66 3.96 1 6 C2.32 5.67 3.64 5.34 5 5 C5.33 6.65 5.66 8.3 6 10 C4.35 10 2.7 10 1 10 C1.33 10.33 1.66 10.66 2 11 C2 11.99 2 12.98 2 14 C-0.97 14 -3.94 14 -7 14 C-7 13.01 -7 12.02 -7 11 C-6.34 11 -5.68 11 -5 11 C-5.33 7.7 -5.66 4.4 -6 1 C-4 0 -4 0 0 0 Z " fill="#4E9CCB" transform="translate(257,72)"/>
<path d="M0 0 C1.32 0 2.64 0 4 0 C4 1.65 4 3.3 4 5 C4.99 5.33 5.98 5.66 7 6 C6.34 6.66 5.68 7.32 5 8 C5 9.32 5 10.64 5 12 C9.07964281 10.69844994 9.07964281 10.69844994 13 9 C13 10.98 13 12.96 13 15 C3.58997722 16.51708428 3.58997722 16.51708428 -1 14 C-0.84402344 13.40832031 -0.68804687 12.81664063 -0.52734375 12.20703125 C0.98683598 6.12679967 0.98683598 6.12679967 0 0 Z " fill="#48A1D2" transform="translate(292,105)"/>
<path d="M0 0 C0.99 0.33 1.98 0.66 3 1 C2.67 15.85 2.34 30.7 2 46 C0 44 0 44 -0.24050903 42.08908081 C-0.23606781 41.31186676 -0.23162659 40.53465271 -0.22705078 39.73388672 C-0.22689972 38.85312469 -0.22674866 37.97236267 -0.22659302 37.06491089 C-0.21627045 36.11278717 -0.20594788 35.16066345 -0.1953125 34.1796875 C-0.1924826 33.20589142 -0.18965271 32.23209534 -0.18673706 31.22879028 C-0.17551913 28.11073651 -0.1504117 24.99296732 -0.125 21.875 C-0.11497228 19.76432706 -0.10584607 17.65364962 -0.09765625 15.54296875 C-0.07557458 10.36188165 -0.04208129 5.18096115 0 0 Z " fill="#5596C4" transform="translate(45,52)"/>
<path d="M0 0 C0.66 0.33 1.32 0.66 2 1 C2.625 3.5625 2.625 3.5625 3 6 C2.01 6.33 1.02 6.66 0 7 C0 8.32 0 9.64 0 11 C0.66 11.66 1.32 12.32 2 13 C0.68 14.32 -0.64 15.64 -2 17 C-3.32 16.34 -4.64 15.68 -6 15 C-5.80743982 4.84682713 -5.80743982 4.84682713 -2.4375 1.3125 C-1.633125 0.879375 -0.82875 0.44625 0 0 Z " fill="#599CC1" transform="translate(191,104)"/>
<path d="M0 0 C0 0.99 0 1.98 0 3 C0.969375 2.979375 1.93875 2.95875 2.9375 2.9375 C6 3 6 3 7 4 C7.47323944 10.38873239 7.47323944 10.38873239 5.5 12.9375 C5.005 13.288125 4.51 13.63875 4 14 C4.33 12.35 4.66 10.7 5 9 C4.34 9 3.68 9 3 9 C2.67 8.34 2.34 7.68 2 7 C-0.97 7 -3.94 7 -7 7 C-7.66 5.68 -8.32 4.36 -9 3 C-2.25 0 -2.25 0 0 0 Z " fill="#479CCE" transform="translate(95,112)"/>
<path d="M0 0 C0.66 0.33 1.32 0.66 2 1 C1.01 2.485 1.01 2.485 0 4 C-0.66 4 -1.32 4 -2 4 C-2 4.66 -2 5.32 -2 6 C3.61 6 9.22 6 15 6 C15 6.66 15 7.32 15 8 C15.99 8.33 16.98 8.66 18 9 C15.44004229 10.27997886 14.59793976 9.78830102 11.875 9.0625 C3.79257595 7.16757762 -3.02100226 8.16875462 -11 10 C-10.61256127 7.54447615 -10.30405354 6.28924068 -8.4765625 4.55078125 C-7.86554687 4.14214844 -7.25453125 3.73351562 -6.625 3.3125 C-6.01914062 2.89613281 -5.41328125 2.47976562 -4.7890625 2.05078125 C-3 1 -3 1 0 0 Z " fill="#5C9AC2" transform="translate(37,27)"/>
<path d="M0 0 C2.10388569 -0.05402274 4.20816714 -0.09280256 6.3125 -0.125 C8.07013672 -0.15980469 8.07013672 -0.15980469 9.86328125 -0.1953125 C13 0 13 0 16 2 C16.1875 4.375 16.1875 4.375 16 7 C16 8.32 16 9.64 16 11 C16 11.66 16 12.32 16 13 C17.32 13.33 18.64 13.66 20 14 C20 14.66 20 15.32 20 16 C18.68 16 17.36 16 16 16 C16 15.34 16 14.68 16 14 C15.34 14 14.68 14 14 14 C13.5978125 12.2984375 13.5978125 12.2984375 13.1875 10.5625 C12.795625 9.386875 12.40375 8.21125 12 7 C11.01 6.67 10.02 6.34 9 6 C9.33 5.34 9.66 4.68 10 4 C9.34 3.67 8.68 3.34 8 3 C8 2.34 8 1.68 8 1 C6.6078125 1.2475 6.6078125 1.2475 5.1875 1.5 C2 2 2 2 -1 2 C-0.67 1.34 -0.34 0.68 0 0 Z " fill="#5996BF" transform="translate(346,36)"/>
<path d="M0 0 C1.65 0 3.3 0 5 0 C5 1.65 5 3.3 5 5 C6.32 5 7.64 5 9 5 C9 5.99 9 6.98 9 8 C7.68 8.33 6.36 8.66 5 9 C5 10.65 5 12.3 5 14 C3.68 14 2.36 14 1 14 C0.67 9.38 0.34 4.76 0 0 Z " fill="#579CCA" transform="translate(328,37)"/>
<path d="M0 0 C1.98 0 3.96 0 6 0 C6 4.95 6 9.9 6 15 C3.69 15.33 1.38 15.66 -1 16 C-1 15.01 -1 14.02 -1 13 C-0.34 12.67 0.32 12.34 1 12 C1.4683265 9.41394668 1.4683265 9.41394668 1.625 6.4375 C1.69976562 5.42558594 1.77453125 4.41367187 1.8515625 3.37109375 C1.90054688 2.58863281 1.94953125 1.80617187 2 1 C1.34 0.67 0.68 0.34 0 0 Z " fill="#4B9BCF" transform="translate(176,37)"/>
<path d="M0 0 C1.98 0 3.96 0 6 0 C9 6.625 9 6.625 9 10 C8.34 10 7.68 10 7 10 C6.34 7.03 5.68 4.06 5 1 C3.68 1 2.36 1 1 1 C0.67 3.97 0.34 6.94 0 10 C1.65 10 3.3 10 5 10 C4.67 10.66 4.34 11.32 4 12 C3.01 12.33 2.02 12.66 1 13 C1.33 13.99 1.66 14.98 2 16 C-0.64 16 -3.28 16 -6 16 C-5.71382813 15.46890625 -5.42765625 14.9378125 -5.1328125 14.390625 C-3.79673712 11.57104523 -2.84213837 8.71589101 -1.875 5.75 C-1.34519531 4.13351563 -1.34519531 4.13351563 -0.8046875 2.484375 C-0.53914063 1.66453125 -0.27359375 0.8446875 0 0 Z " fill="#5E98BA" transform="translate(350,70)"/>
<path d="M0 0 C0.66 0.33 1.32 0.66 2 1 C2.4140625 3.50390625 2.4140625 3.50390625 2.625 6.5625 C2.69976562 7.57441406 2.77453125 8.58632812 2.8515625 9.62890625 C2.90054687 10.41136719 2.94953125 11.19382812 3 12 C0.03 12 -2.94 12 -6 12 C-5.57405412 10.55903414 -5.13373367 9.12231288 -4.6875 7.6875 C-4.44386719 6.88699219 -4.20023437 6.08648437 -3.94921875 5.26171875 C-2.95817977 2.90035427 -1.91925057 1.66120007 0 0 Z " fill="#4D97BF" transform="translate(354,108)"/>
<path d="M0 0 C2 2 2 2 2 5 C2.66 5 3.32 5 4 5 C4 5.99 4 6.98 4 8 C4.99 8 5.98 8 7 8 C7.33 7.34 7.66 6.68 8 6 C8.7425 6.04125 9.485 6.0825 10.25 6.125 C13.08758952 5.99601866 14.58773938 5.42948778 17 4 C17 5.65 17 7.3 17 9 C13.92859569 10.81205858 11.97222701 11.22518386 8.4375 10.8125 C7.67308594 10.73644531 6.90867187 10.66039063 6.12109375 10.58203125 C3.5688139 9.8816819 2.5853652 9.10403406 1 7 C0.3125 3.3125 0.3125 3.3125 0 0 Z " fill="#65A0C2" transform="translate(325,76)"/>
<path d="M0 0 C1.0513916 0.09849243 1.0513916 0.09849243 2.12402344 0.19897461 C10.16237936 0.91485371 18.18543771 1.29543252 26.25 1.5625 C27.48363281 1.60568359 28.71726562 1.64886719 29.98828125 1.69335938 C32.99210867 1.79814405 35.99599975 1.9003154 39 2 C39 2.33 39 2.66 39 3 C30.55165688 3.74977372 22.25116827 4.12002954 13.77563477 3.875 C10.57718432 3.82043575 8.18104906 3.92722785 5.19140625 5.12890625 C4.46824219 5.41636719 3.74507812 5.70382813 3 6 C2.01 5.34 1.02 4.68 0 4 C0.66 3.34 1.32 2.68 2 2 C1.34 1.34 0.68 0.68 0 0 Z " fill="#4E98C3" transform="translate(28,116)"/>
<path d="M0 0 C3.96 0 7.92 0 12 0 C11.01 0.33 10.02 0.66 9 1 C9 1.66 9 2.32 9 3 C8.34 3 7.68 3 7 3 C7 2.34 7 1.68 7 1 C5.35 1.33 3.7 1.66 2 2 C2.33 2.33 2.66 2.66 3 3 C3.23192865 4.51469448 3.41215238 6.03754562 3.5625 7.5625 C3.64628906 8.38878906 3.73007812 9.21507813 3.81640625 10.06640625 C3.87699219 10.70449219 3.93757813 11.34257813 4 12 C5.65 12.33 7.3 12.66 9 13 C9.33 13.99 9.66 14.98 10 16 C6.37 16 2.74 16 -1 16 C-0.34 14.68 0.32 13.36 1 12 C1.23920955 9.86712627 1.23920955 9.86712627 1.125 7.75 C1.08375 6.5125 1.0425 5.275 1 4 C0.34 3.67 -0.32 3.34 -1 3 C-0.67 2.01 -0.34 1.02 0 0 Z " fill="#5695B9" transform="translate(271,104)"/>
<path d="M0 0 C1.98 0 3.96 0 6 0 C5.67 1.65 5.34 3.3 5 5 C6.65 5.33 8.3 5.66 10 6 C9.67 6.66 9.34 7.32 9 8 C6.4375 8.625 6.4375 8.625 4 9 C4.33 10.65 4.66 12.3 5 14 C3.046875 13.3828125 3.046875 13.3828125 1 12 C0.390625 9.1796875 0.390625 9.1796875 0.25 5.875 C0.19328125 4.77929688 0.1365625 3.68359375 0.078125 2.5546875 C0.05234375 1.71164063 0.0265625 0.86859375 0 0 Z " fill="#509DCD" transform="translate(220,37)"/>
<path d="M0 0 C1.65 0 3.3 0 5 0 C5.33 0.99 5.66 1.98 6 3 C5.360625 3.53625 4.72125 4.0725 4.0625 4.625 C1.57935447 7.48437971 1.23861696 9.26166766 1 13 C1.33 13.99 1.66 14.98 2 16 C-0.97 16.33 -3.94 16.66 -7 17 C-7 16.01 -7 15.02 -7 14 C-4.03 14.495 -4.03 14.495 -1 15 C-1.25561323 12.6568787 -1.59270772 10.32156597 -2 8 C-2.66 7.67 -3.32 7.34 -4 7 C-3.525625 6.5875 -3.05125 6.175 -2.5625 5.75 C-0.83733482 3.817815 -0.43415125 2.51807725 0 0 Z " fill="#5E9DC4" transform="translate(429,36)"/>
<path d="M0 0 C1.23556641 0.01740234 1.23556641 0.01740234 2.49609375 0.03515625 C3.32238281 0.04417969 4.14867187 0.05320312 5 0.0625 C5.63808594 0.07410156 6.27617187 0.08570312 6.93359375 0.09765625 C6.93359375 1.08765625 6.93359375 2.07765625 6.93359375 3.09765625 C6.27359375 3.09765625 5.61359375 3.09765625 4.93359375 3.09765625 C4.93359375 2.43765625 4.93359375 1.77765625 4.93359375 1.09765625 C3.28359375 1.09765625 1.63359375 1.09765625 -0.06640625 1.09765625 C0.26359375 1.75765625 0.59359375 2.41765625 0.93359375 3.09765625 C1.00309916 4.63789621 1.01811732 6.18100613 0.99609375 7.72265625 C0.98707031 8.53992188 0.97804687 9.3571875 0.96875 10.19921875 C0.95714844 10.82570313 0.94554687 11.4521875 0.93359375 12.09765625 C2.25359375 11.43765625 3.57359375 10.77765625 4.93359375 10.09765625 C4.93359375 11.08765625 4.93359375 12.07765625 4.93359375 13.09765625 C5.59359375 13.09765625 6.25359375 13.09765625 6.93359375 13.09765625 C6.93359375 14.08765625 6.93359375 15.07765625 6.93359375 16.09765625 C3.96359375 16.09765625 0.99359375 16.09765625 -2.06640625 16.09765625 C-2.06640625 15.10765625 -2.06640625 14.11765625 -2.06640625 13.09765625 C-1.40640625 13.09765625 -0.74640625 13.09765625 -0.06640625 13.09765625 C-0.18099318 11.65928874 -0.30849741 10.22194659 -0.44140625 8.78515625 C-0.51101562 7.98464844 -0.580625 7.18414062 -0.65234375 6.359375 C-0.96205051 3.82541184 -0.96205051 3.82541184 -3.06640625 1.09765625 C-2.06640625 0.09765625 -2.06640625 0.09765625 0 0 Z " fill="#5399C0" transform="translate(229.06640625,103.90234375)"/>
<path d="M0 0 C6.06455266 -0.71347678 6.06455266 -0.71347678 8.61328125 1.23046875 C10 2.8125 10 2.8125 12 6 C11.67 6.99 11.34 7.98 11 9 C10.34 9 9.68 9 9 9 C8.67 8.34 8.34 7.68 8 7 C5.97536745 6.34786708 5.97536745 6.34786708 4 6 C3.67 6.66 3.34 7.32 3 8 C2.34 7.67 1.68 7.34 1 7 C0.59270772 4.67843403 0.25561323 2.3431213 0 0 Z " fill="#43A3D6" transform="translate(206,70)"/>
<path d="M0 0 C2.31 0 4.62 0 7 0 C7 0.99 7 1.98 7 3 C6.34 3 5.68 3 5 3 C5.04640625 3.68707031 5.0928125 4.37414063 5.140625 5.08203125 C5.17671875 5.98308594 5.2128125 6.88414063 5.25 7.8125 C5.29640625 8.70582031 5.3428125 9.59914063 5.390625 10.51953125 C5 13 5 13 2.984375 14.82421875 C2.00210937 15.40623047 2.00210937 15.40623047 1 16 C0.01 15.01 -0.98 14.02 -2 13 C-1.01 12.34 -0.02 11.68 1 11 C1.57748803 9.03638136 1.57748803 9.03638136 1.6875 6.875 C1.790625 5.59625 1.89375 4.3175 2 3 C1.34 3 0.68 3 0 3 C0 2.01 0 1.02 0 0 Z " fill="#6097BA" transform="translate(258,36)"/>
<path d="M0 0 C0.33 0.66 0.66 1.32 1 2 C1.66 2 2.32 2 3 2 C3 2.99 3 3.98 3 5 C3.763125 4.484375 4.52625 3.96875 5.3125 3.4375 C6.199375 2.963125 7.08625 2.48875 8 2 C8.99 2.33 9.98 2.66 11 3 C10.34 4.65 9.68 6.3 9 8 C7.20866022 8.05391993 5.41686101 8.09275571 3.625 8.125 C2.62726563 8.14820312 1.62953125 8.17140625 0.6015625 8.1953125 C-2 8 -2 8 -4 6 C-3.34 5.67 -2.68 5.34 -2 5 C-1.27840576 3.35636866 -0.60648579 1.68949614 0 0 Z " fill="#549DCC" transform="translate(414,78)"/>
<path d="M0 0 C2.97 0 5.94 0 9 0 C9.33 0.99 9.66 1.98 10 3 C9.34 3 8.68 3 8 3 C8 5.97 8 8.94 8 12 C7.67 12 7.34 12 7 12 C6.67 9.03 6.34 6.06 6 3 C5.34 3 4.68 3 4 3 C3.67 6.63 3.34 10.26 3 14 C4.65 14.33 6.3 14.66 8 15 C8 15.33 8 15.66 8 16 C5.36 16 2.72 16 0 16 C0.66 11.71 1.32 7.42 2 3 C1.34 3 0.68 3 0 3 C0 2.01 0 1.02 0 0 Z " fill="#5E95B9" transform="translate(393,104)"/>
<path d="M0 0 C4.19813062 3.74427866 6.07776117 6.8403063 8 12 C5 13 5 13 3.0625 12.29296875 C2.381875 11.92816406 1.70125 11.56335937 1 11.1875 C0.319375 10.83042969 -0.36125 10.47335938 -1.0625 10.10546875 C-2.75125633 9.14192431 -4.38224176 8.07850549 -6 7 C-2.535 6.505 -2.535 6.505 1 6 C0.67 4.02 0.34 2.04 0 0 Z " fill="#5597C0" transform="translate(90,39)"/>
<path d="M0 0 C1.65 0 3.3 0 5 0 C4.67 3.96 4.34 7.92 4 12 C2.68 12 1.36 12 0 12 C0 10.68 0 9.36 0 8 C-1.2065625 7.814375 -1.2065625 7.814375 -2.4375 7.625 C-3.283125 7.41875 -4.12875 7.2125 -5 7 C-5.33 6.34 -5.66 5.68 -6 5 C-4.02 5 -2.04 5 0 5 C0 3.35 0 1.7 0 0 Z " fill="#489ECF" transform="translate(305,71)"/>
<path d="M0 0 C2 2 2 2 2 5.375 C1 9 1 9 -1.6875 11.4375 C-5.15321104 13.07226936 -7.22549116 13.35947703 -11 13 C-11 11.35 -11 9.7 -11 8 C-8.03 8.495 -8.03 8.495 -5 9 C-4.67 8.01 -4.34 7.02 -4 6 C-3.67 6.66 -3.34 7.32 -3 8 C-2.01 8 -1.02 8 0 8 C0 5.36 0 2.72 0 0 Z " fill="#6098BD" transform="translate(404,74)"/>
<path d="M0 0 C0.33 0 0.66 0 1 0 C1.28571429 7.42857143 1.28571429 7.42857143 -1 11 C-3.64 11 -6.28 11 -9 11 C-8.67 8.69 -8.34 6.38 -8 4 C-7.01 4.33 -6.02 4.66 -5 5 C-5 5.66 -5 6.32 -5 7 C-4.01 6.67 -3.02 6.34 -2 6 C-0.77479736 2.99152582 -0.77479736 2.99152582 0 0 Z " fill="#499DCD" transform="translate(61,101)"/>
<path d="M0 0 C0.33 1.32 0.66 2.64 1 4 C3.33075929 3.04134491 3.33075929 3.04134491 5 0 C4.40550688 6.30162703 4.40550688 6.30162703 2.875 8.9375 C-0.03094231 10.58420065 -2.73821805 10.18462917 -6 10 C-6 8.68 -6 7.36 -6 6 C-4.35 5.67 -2.7 5.34 -1 5 C-0.67 3.35 -0.34 1.7 0 0 Z " fill="#5E9BC3" transform="translate(185,82)"/>
<path d="M0 0 C1.48831242 0.00667405 2.97660807 0.01863442 4.46484375 0.03515625 C5.22345703 0.03966797 5.98207031 0.04417969 6.76367188 0.04882812 C8.64326246 0.06064945 10.52281274 0.07858547 12.40234375 0.09765625 C12.40234375 2.07765625 12.40234375 4.05765625 12.40234375 6.09765625 C11.74234375 6.09765625 11.08234375 6.09765625 10.40234375 6.09765625 C10.07234375 5.43765625 9.74234375 4.77765625 9.40234375 4.09765625 C8.41234375 3.76765625 7.42234375 3.43765625 6.40234375 3.09765625 C6.40234375 2.43765625 6.40234375 1.77765625 6.40234375 1.09765625 C2.27260747 1.66505493 2.27260747 1.66505493 -1.59765625 3.09765625 C-1.92765625 4.08765625 -2.25765625 5.07765625 -2.59765625 6.09765625 C-3.25765625 6.09765625 -3.91765625 6.09765625 -4.59765625 6.09765625 C-4.64037725 4.4315372 -4.63829457 2.7638274 -4.59765625 1.09765625 C-3.59765625 0.09765625 -3.59765625 0.09765625 0 0 Z " fill="#5B97BA" transform="translate(401.59765625,35.90234375)"/>
<path d="M0 0 C0.94875 0.04125 1.8975 0.0825 2.875 0.125 C3.205 1.115 3.535 2.105 3.875 3.125 C2.885 3.785 1.895 4.445 0.875 5.125 C-0.445 4.465 -1.765 3.805 -3.125 3.125 C-3.393125 4.23875 -3.66125 5.3525 -3.9375 6.5 C-5.125 10.125 -5.125 10.125 -8.125 12.125 C-8.455 10.475 -8.785 8.825 -9.125 7.125 C-8.465 7.125 -7.805 7.125 -7.125 7.125 C-6.83625 6.34125 -6.5475 5.5575 -6.25 4.75 C-4.67213767 1.06832122 -4.09004172 0.16360167 0 0 Z " fill="#5F99C1" transform="translate(194.125,66.875)"/>
<path d="M0 0 C1.65 0 3.3 0 5 0 C4.01 0.66 3.02 1.32 2 2 C2.53725895 5.37705625 3.11064623 8.696686 4 12 C4.66 12 5.32 12 6 12 C6.33 12.99 6.66 13.98 7 15 C6 16 6 16 2.4375 16.0625 C1.303125 16.041875 0.16875 16.02125 -1 16 C-0.67 15.01 -0.34 14.02 0 13 C0.06847819 11.33461039 0.08482117 9.6666474 0.0625 8 C0.04896484 6.700625 0.04896484 6.700625 0.03515625 5.375 C0.02355469 4.59125 0.01195312 3.8075 0 3 C0 2.01 0 1.02 0 0 Z " fill="#5F95B8" transform="translate(270,36)"/>
<path d="M0 0 C0.04125 0.61875 0.0825 1.2375 0.125 1.875 C0.41375 2.57625 0.7025 3.2775 1 4 C2.98636298 4.70626239 4.98848259 5.36893571 7 6 C9.375 8.125 9.375 8.125 11 10 C7.44706507 11.14947895 6.20023331 11.0868937 2.6875 9.5625 C1.800625 9.046875 0.91375 8.53125 0 8 C0 5.36 0 2.72 0 0 Z " fill="#4F9BC1" transform="translate(248,42)"/>
<path d="M0 0 C1.98 0 3.96 0 6 0 C6 3.63 6 7.26 6 11 C4.68 11.33 3.36 11.66 2 12 C1.93941406 11.30132812 1.87882812 10.60265625 1.81640625 9.8828125 C1.73261719 8.97273438 1.64882813 8.06265625 1.5625 7.125 C1.48128906 6.22007813 1.40007812 5.31515625 1.31640625 4.3828125 C1.13010715 1.98889139 1.13010715 1.98889139 0 0 Z " fill="#4D9DD6" transform="translate(272,105)"/>
<path d="M0 0 C0.99 0 1.98 0 3 0 C2.67 1.98 2.34 3.96 2 6 C0.56465159 6.2226746 -0.87345525 6.42761906 -2.3125 6.625 C-3.11300781 6.74101563 -3.91351563 6.85703125 -4.73828125 6.9765625 C-7 7 -7 7 -10 5 C-9.34 4.67 -8.68 4.34 -8 4 C-7.67 3.01 -7.34 2.02 -7 1 C-7 1.66 -7 2.32 -7 3 C-4.02934491 2.65772428 -4.02934491 2.65772428 -1 2 C-0.67 1.34 -0.34 0.68 0 0 Z " fill="#5999BD" transform="translate(220,114)"/>
<path d="M0 0 C2.64 0 5.28 0 8 0 C8.33 0.99 8.66 1.98 9 3 C8.34 3 7.68 3 7 3 C7 3.99 7 4.98 7 6 C5.02 6.33 3.04 6.66 1 7 C0.67 4.69 0.34 2.38 0 0 Z " fill="#4B9AC9" transform="translate(193,36)"/>
<path d="M0 0 C4.29 0 8.58 0 13 0 C14.02622323 5.13111614 13.6040687 7.18779389 12 12 C11.17361624 9.10765685 11 7.11257569 11 4 C10.01 3.67 9.02 3.34 8 3 C8 2.34 8 1.68 8 1 C6.02 1 4.04 1 2 1 C2 1.66 2 2.32 2 3 C1.01 2.67 0.02 2.34 -1 2 C-0.67 1.34 -0.34 0.68 0 0 Z " fill="#6295B7" transform="translate(218,36)"/>
<path d="M0 0 C2.97 0 5.94 0 9 0 C8.34 0.66 7.68 1.32 7 2 C14.59 2.33 22.18 2.66 30 3 C30 3.33 30 3.66 30 4 C20.76 4 11.52 4 2 4 C1.34 2.68 0.68 1.36 0 0 Z " fill="#5694BB" transform="translate(39,39)"/>
<path d="M0 0 C0.99 0 1.98 0 3 0 C2.835 0.86625 2.67 1.7325 2.5 2.625 C2.02781452 5.81225199 1.92344882 8.78485027 2 12 C0.35 11.67 -1.3 11.34 -3 11 C-3.39253254 6.55129785 -2.15305957 3.85756507 0 0 Z " fill="#4B99CE" transform="translate(232,72)"/>
<path d="M0 0 C2.64 0 5.28 0 8 0 C8 5.33333333 8 10.66666667 8 16 C5.03 16 2.06 16 -1 16 C-1 15.34 -1 14.68 -1 14 C1.31 14.33 3.62 14.66 6 15 C6 10.38 6 5.76 6 1 C4.35 1 2.7 1 1 1 C1 1.66 1 2.32 1 3 C0.34 3 -0.32 3 -1 3 C-0.67 2.01 -0.34 1.02 0 0 Z " fill="#5794B4" transform="translate(363,104)"/>
<path d="M0 0 C2.64590014 -0.02684679 5.29153096 -0.04676357 7.9375 -0.0625 C8.69224609 -0.07087891 9.44699219 -0.07925781 10.22460938 -0.08789062 C12.14994313 -0.09652441 14.07535581 -0.05224333 16 0 C17 1 17 1 17.0625 3.5625 C17.041875 4.366875 17.02125 5.17125 17 6 C15.68 5.34 14.36 4.68 13 4 C13.66 3.67 14.32 3.34 15 3 C15 2.34 15 1.68 15 1 C9.06 1.495 9.06 1.495 3 2 C3 2.99 3 3.98 3 5 C2.01 5.33 1.02 5.66 0 6 C0 4.02 0 2.04 0 0 Z " fill="#6298B6" transform="translate(271,70)"/>
<path d="M0 0 C0.99 0.33 1.98 0.66 3 1 C3.33 4.96 3.66 8.92 4 13 C2.35 13 0.7 13 -1 13 C-1.33 12.34 -1.66 11.68 -2 11 C-1.34 11 -0.68 11 0 11 C0 7.37 0 3.74 0 0 Z " fill="#48A0D2" transform="translate(295,38)"/>
<path d="M0 0 C2.05078125 0.03255208 4.1015625 0.06510417 6.15234375 0.09765625 C6.48234375 1.08765625 6.81234375 2.07765625 7.15234375 3.09765625 C6.49234375 3.09765625 5.83234375 3.09765625 5.15234375 3.09765625 C5.15234375 5.73765625 5.15234375 8.37765625 5.15234375 11.09765625 C4.82234375 11.09765625 4.49234375 11.09765625 4.15234375 11.09765625 C4.15234375 7.79765625 4.15234375 4.49765625 4.15234375 1.09765625 C3.16234375 1.42765625 2.17234375 1.75765625 1.15234375 2.09765625 C1.15234375 3.74765625 1.15234375 5.39765625 1.15234375 7.09765625 C-1.15765625 7.42765625 -3.46765625 7.75765625 -5.84765625 8.09765625 C-5.84765625 7.43765625 -5.84765625 6.77765625 -5.84765625 6.09765625 C-4.19765625 6.09765625 -2.54765625 6.09765625 -0.84765625 6.09765625 C-1.50765625 4.44765625 -2.16765625 2.79765625 -2.84765625 1.09765625 C-1.84765625 0.09765625 -1.84765625 0.09765625 0 0 Z " fill="#5E97B9" transform="translate(239.84765625,103.90234375)"/>
<path d="M0 0 C0.33 0.66 0.66 1.32 1 2 C3.01669827 3.13350534 3.01669827 3.13350534 5 4 C4.67 4.99 4.34 5.98 4 7 C-2.52307692 6.50769231 -2.52307692 6.50769231 -4.9375 3.9375 C-5.4634375 2.9784375 -5.4634375 2.9784375 -6 2 C-2.25 0 -2.25 0 0 0 Z " fill="#5999C1" transform="translate(381,80)"/>
<path d="M0 0 C0.33 3.63 0.66 7.26 1 11 C0.01 11 -0.98 11 -2 11 C-2 10.01 -2 9.02 -2 8 C-2.66 8 -3.32 8 -4 8 C-4.6875 5.6875 -4.6875 5.6875 -5 3 C-3.40083326 0.79162689 -2.76966516 0 0 0 Z " fill="#4C97CB" transform="translate(331,73)"/>
<path d="M0 0 C3.3 0 6.6 0 10 0 C9.67 0.66 9.34 1.32 9 2 C9.66 2.66 10.32 3.32 11 4 C6.6835078 4.76173392 3.25566547 5.16063604 -1 4 C-0.67 2.68 -0.34 1.36 0 0 Z " fill="#4C9DCA" transform="translate(32,40)"/>
<path d="M0 0 C0.33 0 0.66 0 1 0 C1 2.64 1 5.28 1 8 C4.3 8.33 7.6 8.66 11 9 C11.33 7.35 11.66 5.7 12 4 C12.99 4.66 13.98 5.32 15 6 C14.34 7.32 13.68 8.64 13 10 C8.05 10 3.1 10 -2 10 C-2 9.01 -2 8.02 -2 7 C-1.34 7 -0.68 7 0 7 C0 4.69 0 2.38 0 0 Z " fill="#5F96B1" transform="translate(311,110)"/>
<path d="M0 0 C2.97 0 5.94 0 9 0 C9.33 0.99 9.66 1.98 10 3 C9.34 3 8.68 3 8 3 C7.67 3.99 7.34 4.98 7 6 C7 4.35 7 2.7 7 1 C5.68 1 4.36 1 3 1 C3.01160156 1.91523437 3.02320313 2.83046875 3.03515625 3.7734375 C3.04869141 5.55621094 3.04869141 5.55621094 3.0625 7.375 C3.07410156 8.55835937 3.08570313 9.74171875 3.09765625 10.9609375 C3 14 3 14 2 16 C1.34 16 0.68 16 0 16 C0.66 11.71 1.32 7.42 2 3 C1.34 3 0.68 3 0 3 C0 2.01 0 1.02 0 0 Z " fill="#5D95BA" transform="translate(337,104)"/>
<path d="M0 0 C1.8125 0.75 1.8125 0.75 2.8125 1.75 C2.85342937 4.08297433 2.85491723 6.41705225 2.8125 8.75 C2.4825 8.75 2.1525 8.75 1.8125 8.75 C1.8125 6.77 1.8125 4.79 1.8125 2.75 C1.1525 2.75 0.4925 2.75 -0.1875 2.75 C-0.1875 3.41 -0.1875 4.07 -0.1875 4.75 C-0.8475 4.75 -1.5075 4.75 -2.1875 4.75 C-2.8475 5.41 -3.5075 6.07 -4.1875 6.75 C-4.1875 6.09 -4.1875 5.43 -4.1875 4.75 C-6.1675 5.74 -6.1675 5.74 -8.1875 6.75 C-6.60830758 2.93361832 -4.54173373 -0.51905528 0 0 Z " fill="#6398BC" transform="translate(180.1875,73.25)"/>
<path d="M0 0 C3.3 0 6.6 0 10 0 C10 0.99 10 1.98 10 3 C8.68 3.33 7.36 3.66 6 4 C6 4.66 6 5.32 6 6 C5.34 6 4.68 6 4 6 C4 5.34 4 4.68 4 4 C2.68 3.67 1.36 3.34 0 3 C0 2.01 0 1.02 0 0 Z " fill="#5A98C1" transform="translate(409,70)"/>
<path d="M0 0 C1.125 1.5625 1.125 1.5625 2 4 C1.125 7.75 1.125 7.75 0 11 C2.64 11 5.28 11 8 11 C8.66 9.68 9.32 8.36 10 7 C10.5625 8.9375 10.5625 8.9375 11 11 C10 12 10 12 7.49609375 12.09765625 C5.98208984 12.08025391 5.98208984 12.08025391 4.4375 12.0625 C3.42558594 12.05347656 2.41367187 12.04445313 1.37109375 12.03515625 C0.58863281 12.02355469 -0.19382813 12.01195313 -1 12 C-2.45606519 7.47907032 -1.27032841 4.48351204 0 0 Z " fill="#5B90B1" transform="translate(52,101)"/>
<path d="M0 0 C0.99 0 1.98 0 3 0 C3 0.66 3 1.32 3 2 C4.1446875 2.12375 4.1446875 2.12375 5.3125 2.25 C8.52373261 3.14615794 9.29374499 4.21611025 11 7 C8.57865279 7.86476686 7.39126946 8.1422798 4.9375 7.25 C2.96126859 5.97501199 1.47041348 4.83801685 0 3 C0 2.01 0 1.02 0 0 Z " fill="#4E9DCE" transform="translate(444,71)"/>
<path d="M0 0 C3.63 0 7.26 0 11 0 C8 2 8 2 5 3 C5 3.66 5 4.32 5 5 C2.69 5 0.38 5 -2 5 C-2 4.01 -2 3.02 -2 2 C-1.34 2 -0.68 2 0 2 C0 1.34 0 0.68 0 0 Z " fill="#4BA0D0" transform="translate(48,44)"/>
<path d="M0 0 C0 0.99 0 1.98 0 3 C0.969375 2.979375 1.93875 2.95875 2.9375 2.9375 C6 3 6 3 7 4 C7.04092937 6.33297433 7.04241723 8.66705225 7 11 C5 8 5 8 5 4 C2.03 3.67 -0.94 3.34 -4 3 C-4.33 3.66 -4.66 4.32 -5 5 C-6.32 4.34 -7.64 3.68 -9 3 C-2.25 0 -2.25 0 0 0 Z " fill="#5695B8" transform="translate(95,112)"/>
<path d="M0 0 C0.66 0 1.32 0 2 0 C2.33 1.98 2.66 3.96 3 6 C0 6 0 6 -1.6875 4.5 C-2.120625 4.005 -2.55375 3.51 -3 3 C-2.85851011 4.6045556 -2.71164314 6.20863767 -2.5625 7.8125 C-2.48128906 8.70582031 -2.40007812 9.59914063 -2.31640625 10.51953125 C-2.06510233 13.12743559 -2.06510233 13.12743559 -1 16 C-1.99 16 -2.98 16 -4 16 C-4 11.38 -4 6.76 -4 2 C-2.68 1.67 -1.36 1.34 0 1 C0 0.67 0 0.34 0 0 Z " fill="#6295B7" transform="translate(186,36)"/>
<path d="M0 0 C1.65 0 3.3 0 5 0 C4.62875 0.825 4.2575 1.65 3.875 2.5 C2.7287738 7.08490478 3.61255678 9.52934962 5 14 C3.68 14 2.36 14 1 14 C0.67 9.38 0.34 4.76 0 0 Z " fill="#479CD2" transform="translate(328,37)"/>
<path d="M0 0 C2.64 0 5.28 0 8 0 C8 3.41099168 7.50854594 6.63088314 7 10 C6.67 10 6.34 10 6 10 C6 7.03 6 4.06 6 1 C4.68 1 3.36 1 2 1 C2 5.29 2 9.58 2 14 C1.34 13.67 0.68 13.34 0 13 C0 8.66666667 0 4.33333333 0 0 Z " fill="#5A92B9" transform="translate(385,36)"/>
<path d="M0 0 C0.33 0 0.66 0 1 0 C1.33 3.63 1.66 7.26 2 11 C3.65 10.67 5.3 10.34 7 10 C7.33 10.99 7.66 11.98 8 13 C4.7 13 1.4 13 -2 13 C-2 12.01 -2 11.02 -2 10 C-1.34 10 -0.68 10 0 10 C0 6.7 0 3.4 0 0 Z " fill="#5B9AC0" transform="translate(368,73)"/>
<path d="M0 0 C0.33 0 0.66 0 1 0 C1 2.64 1 5.28 1 8 C1.99 8.33 2.98 8.66 4 9 C4 9.66 4 10.32 4 11 C2.741875 11.185625 1.48375 11.37125 0.1875 11.5625 C-0.87404297 11.71912109 -0.87404297 11.71912109 -1.95703125 11.87890625 C-4 12 -4 12 -7 11 C-6.34 8.69 -5.68 6.38 -5 4 C-4.67 4 -4.34 4 -4 4 C-4 5.65 -4 7.3 -4 9 C-2.68 9.33 -1.36 9.66 0 10 C0 6.7 0 3.4 0 0 Z " fill="#6098BB" transform="translate(281,75)"/>
<path d="M0 0 C0.99 0.33 1.98 0.66 3 1 C2.67 10.24 2.34 19.48 2 29 C1.67 29 1.34 29 1 29 C0.67 19.43 0.34 9.86 0 0 Z " fill="#5F98BB" transform="translate(45,52)"/>
<path d="M0 0 C3.96 0 7.92 0 12 0 C12 0.99 12 1.98 12 3 C11.67 2.67 11.34 2.34 11 2 C9.65252916 1.76924918 8.29622435 1.58846937 6.9375 1.4375 C5.638125 1.293125 4.33875 1.14875 3 1 C3.99 2.98 4.98 4.96 6 7 C4.02 7.99 4.02 7.99 2 9 C1.855625 8.2575 1.71125 7.515 1.5625 6.75 C1.09968589 4.48735322 0.56013482 2.2405393 0 0 Z " fill="#5B93B5" transform="translate(50,91)"/>
<path d="M0 0 C3.63 0 7.26 0 11 0 C11.66 1.32 12.32 2.64 13 4 C9.72782865 4 7.37445544 3.73516599 4.25 3 C3.45078125 2.814375 2.6515625 2.62875 1.828125 2.4375 C1.22484375 2.293125 0.6215625 2.14875 0 2 C0 1.34 0 0.68 0 0 Z " fill="#439AD2" transform="translate(64,47)"/>
<path d="M0 0 C0.66 0 1.32 0 2 0 C2.91058531 3.07322544 3.08886184 5.80097361 3 9 C1.68 9.33 0.36 9.66 -1 10 C-1.66 7.69 -2.32 5.38 -3 3 C-2.01 3.495 -2.01 3.495 -1 4 C-0.67 2.68 -0.34 1.36 0 0 Z " fill="#4B9CC1" transform="translate(284,42)"/>
<path d="M0 0 C4.875 1.75 4.875 1.75 6 4 C6.99 4 7.98 4 9 4 C8.67 4.99 8.34 5.98 8 7 C6.02 7 4.04 7 2 7 C1.34 4.69 0.68 2.38 0 0 Z " fill="#4BA0CE" transform="translate(12,119)"/>
<path d="M0 0 C0.66 0.66 1.32 1.32 2 2 C0.68 2 -0.64 2 -2 2 C-2 3.32 -2 4.64 -2 6 C-2.66 6 -3.32 6 -4 6 C-3.979375 6.94875 -3.95875 7.8975 -3.9375 8.875 C-4 12 -4 12 -5 14 C-5.99 14 -6.98 14 -8 14 C-7.52140759 12.39566191 -7.04210442 10.79153584 -6.5625 9.1875 C-6.29566406 8.29417969 -6.02882812 7.40085937 -5.75390625 6.48046875 C-5.19612127 4.64526945 -4.60655425 2.81966274 -4 1 C-2.0625 0.1875 -2.0625 0.1875 0 0 Z " fill="#6296BB" transform="translate(259,103)"/>
<path d="M0 0 C2.475 0.99 2.475 0.99 5 2 C4.34 3.32 3.68 4.64 3 6 C3.99 6.99 4.98 7.98 6 9 C3.03824877 8.38722388 1.61941217 7.74627478 -1 6 C-1.25 3.4375 -1.25 3.4375 -1 1 C-0.67 0.67 -0.34 0.34 0 0 Z " fill="#5AA1C4" transform="translate(18,112)"/>
<path d="M0 0 C1.65 0 3.3 0 5 0 C4.67558396 1.66842534 4.34060811 3.33480481 4 5 C3.7834375 6.0828125 3.7834375 6.0828125 3.5625 7.1875 C3 9 3 9 1 11 C1 10.34 1 9.68 1 9 C0.34 8.67 -0.32 8.34 -1 8 C-0.67 5.36 -0.34 2.72 0 0 Z " fill="#54A5CB" transform="translate(186,108)"/>
<path d="M0 0 C3 1 3 1 4.25 2.625 C5.32849046 6.0402198 4.82953271 8.55424873 4 12 C3.01 12.66 2.02 13.32 1 14 C1.33 11.03 1.66 8.06 2 5 C1.01 4.34 0.02 3.68 -1 3 C-1.33 3.66 -1.66 4.32 -2 5 C-2.33 4.01 -2.66 3.02 -3 2 C-2.01 2 -1.02 2 0 2 C0 1.34 0 0.68 0 0 Z " fill="#5891B6" transform="translate(242,71)"/>
<path d="M0 0 C1.4540625 0.0309375 1.4540625 0.0309375 2.9375 0.0625 C2.6075 2.7025 2.2775 5.3425 1.9375 8.0625 C1.6075 7.4025 1.2775 6.7425 0.9375 6.0625 C-0.0525 6.0625 -1.0425 6.0625 -2.0625 6.0625 C-2.7225 4.4125 -3.3825 2.7625 -4.0625 1.0625 C-3.0625 0.0625 -3.0625 0.0625 0 0 Z " fill="#629BBB" transform="translate(285.0625,35.9375)"/>
<path d="M0 0 C0.99 0.33 1.98 0.66 3 1 C2.125 7.75 2.125 7.75 1 10 C0.34 10 -0.32 10 -1 10 C-1.02689216 8.52093108 -1.04634621 7.04172517 -1.0625 5.5625 C-1.07410156 4.73878906 -1.08570313 3.91507812 -1.09765625 3.06640625 C-1 1 -1 1 0 0 Z " fill="#4B9AD0" transform="translate(397,106)"/>
<path d="M0 0 C0.66 0.99 1.32 1.98 2 3 C1.15955106 6.43183318 0.51471866 8.48528134 -2 11 C-1.01 11.33 -0.02 11.66 1 12 C1.33 11.34 1.66 10.68 2 10 C1.67 11.32 1.34 12.64 1 14 C-1.97 13.505 -1.97 13.505 -5 13 C-4.70351563 12.43796875 -4.40703125 11.8759375 -4.1015625 11.296875 C-2.99056497 8.98032695 -2.16535294 6.69290908 -1.375 4.25 C-1.11460937 3.45078125 -0.85421875 2.6515625 -0.5859375 1.828125 C-0.39257812 1.22484375 -0.19921875 0.6215625 0 0 Z " fill="#6298BC" transform="translate(467,73)"/>
<path d="M0 0 C3.25 -0.3125 3.25 -0.3125 7 0 C9.4375 2.5 9.4375 2.5 11 5 C9.35 4.67 7.7 4.34 6 4 C6 3.34 6 2.68 6 2 C5.01 2 4.02 2 3 2 C3 3.32 3 4.64 3 6 C2.34 5.67 1.68 5.34 1 5 C0.375 2.4375 0.375 2.4375 0 0 Z " fill="#5D99C1" transform="translate(206,70)"/>
<path d="M0 0 C4.29 0 8.58 0 13 0 C12.01 0.33 11.02 0.66 10 1 C10 1.66 10 2.32 10 3 C9.01 3 8.02 3 7 3 C7 4.32 7 5.64 7 7 C7.99 7.33 8.98 7.66 10 8 C8.68 8 7.36 8 6 8 C6 5.69 6 3.38 6 1 C4.35 1 2.7 1 1 1 C0.67 1.66 0.34 2.32 0 3 C0 2.01 0 1.02 0 0 Z " fill="#5D9ABC" transform="translate(366,70)"/>
<path d="M0 0 C0.66 0 1.32 0 2 0 C3 1 4 2 5 3 C5.66 3 6.32 3 7 3 C7 4.32 7 5.64 7 7 C4.69 6.67 2.38 6.34 0 6 C-0.38218767 4.34385343 -0.71395102 2.67542976 -1 1 C-0.67 0.67 -0.34 0.34 0 0 Z " fill="#5D9FC0" transform="translate(368,46)"/>
<path d="M0 0 C6.27 0 12.54 0 19 0 C19 0.66 19 1.32 19 2 C19.99 2.33 20.98 2.66 22 3 C19.46407476 4.26796262 18.74711219 3.80525889 16.0625 3.0625 C10.68562004 1.75768711 5.50294976 1.81485403 0 2 C0 1.34 0 0.68 0 0 Z " fill="#5594BD" transform="translate(33,33)"/>
<path d="M0 0 C1.32 0.33 2.64 0.66 4 1 C4 2.32 4 3.64 4 5 C1.69 5.33 -0.62 5.66 -3 6 C-3 4.68 -3 3.36 -3 2 C-2.01 2 -1.02 2 0 2 C0 1.34 0 0.68 0 0 Z " fill="#459DD2" transform="translate(26,123)"/>
<path d="M0 0 C2.64 0 5.28 0 8 0 C8.33 0.99 8.66 1.98 9 3 C8.34 3 7.68 3 7 3 C6.67 3.99 6.34 4.98 6 6 C6 4.35 6 2.7 6 1 C4.68 1 3.36 1 2 1 C2 4.63 2 8.26 2 12 C1.67 12 1.34 12 1 12 C0.83126522 10.56274129 0.66509263 9.12518162 0.5 7.6875 C0.4071875 6.88699219 0.314375 6.08648437 0.21875 5.26171875 C0 3 0 3 0 0 Z " fill="#6298B3" transform="translate(292,70)"/>
<path d="M0 0 C0.33 0.99 0.66 1.98 1 3 C5.07964281 1.69844994 5.07964281 1.69844994 9 0 C9 1.98 9 3.96 9 6 C7.02 6 5.04 6 3 6 C3 5.34 3 4.68 3 4 C2.01 4 1.02 4 0 4 C0 2.68 0 1.36 0 0 Z " fill="#5B94B3" transform="translate(296,114)"/>
<path d="M0 0 C0.99 0 1.98 0 3 0 C4.32 4.29 5.64 8.58 7 13 C6.01 13 5.02 13 4 13 C3.69255859 11.84371094 3.69255859 11.84371094 3.37890625 10.6640625 C3.10949219 9.66117188 2.84007812 8.65828125 2.5625 7.625 C2.16224609 6.12839844 2.16224609 6.12839844 1.75390625 4.6015625 C1.09815644 2.04582299 1.09815644 2.04582299 0 0 Z " fill="#479BD0" transform="translate(257,105)"/>
<path d="M0 0 C1.32 0.66 2.64 1.32 4 2 C4.25 7.625 4.25 7.625 2 11 C1.01 10.67 0.02 10.34 -1 10 C-0.67 9.67 -0.34 9.34 0 9 C0.07179964 7.48071962 0.08392007 5.95832518 0.0625 4.4375 C0.05347656 3.61121094 0.04445312 2.78492187 0.03515625 1.93359375 C0.02355469 1.29550781 0.01195312 0.65742187 0 0 Z " fill="#4D9CCE" transform="translate(241,74)"/>
<path d="M0 0 C1.65 0 3.3 0 5 0 C4.67 0.99 4.34 1.98 4 3 C3.01 3 2.02 3 1 3 C0.67 3.99 0.34 4.98 0 6 C-2.31 5.67 -4.62 5.34 -7 5 C-7 4.67 -7 4.34 -7 4 C-3.535 3.505 -3.535 3.505 0 3 C0 2.01 0 1.02 0 0 Z " fill="#5196C2" transform="translate(30,125)"/>
<path d="M0 0 C3.3 0 6.6 0 10 0 C10 0.99 10 1.98 10 3 C9.34 3 8.68 3 8 3 C8 5.97 8 8.94 8 12 C7.67 12 7.34 12 7 12 C7 8.37 7 4.74 7 1 C5.35 1.33 3.7 1.66 2 2 C1.01 2 0.02 2 -1 2 C-0.67 1.34 -0.34 0.68 0 0 Z " fill="#5C91B3" transform="translate(309,104)"/>
<path d="M0 0 C0.99 0 1.98 0 3 0 C3.12375 0.61875 3.2475 1.2375 3.375 1.875 C3.87197356 4.19120832 3.87197356 4.19120832 6 6 C6 7.32 6 8.64 6 10 C4.68 9.67 3.36 9.34 2 9 C1.855625 7.88625 1.71125 6.7725 1.5625 5.625 C1.21627965 2.17857953 1.21627965 2.17857953 0 0 Z " fill="#49A1D4" transform="translate(388,76)"/>
<path d="M0 0 C2.64 0 5.28 0 8 0 C8.33 0.99 8.66 1.98 9 3 C8.34 3 7.68 3 7 3 C7 5.97 7 8.94 7 12 C4.73390016 7.46780033 5.07264024 5.82227075 6 1 C4.35 1 2.7 1 1 1 C0.67 1.66 0.34 2.32 0 3 C0 2.01 0 1.02 0 0 Z " fill="#5C97BA" transform="translate(204,36)"/>
<path d="M0 0 C0.66 0.66 1.32 1.32 2 2 C1.34 2.66 0.68 3.32 0 4 C-0.69748583 5.31747324 -1.36959957 6.64914193 -2 8 C-2 6.02 -2 4.04 -2 2 C-3.98 2.33 -5.96 2.66 -8 3 C-8.33 2.34 -8.66 1.68 -9 1 C-5.98675805 -0.50662097 -3.31713623 -0.17770373 0 0 Z " fill="#579EBE" transform="translate(254,36)"/>
<path d="M0 0 C3.93673644 1.31224548 6.22719294 2.91910327 9 6 C8.01 6 7.02 6 6 6 C6 5.34 6 4.68 6 4 C3.69 4.33 1.38 4.66 -1 5 C-0.67 3.35 -0.34 1.7 0 0 Z " fill="#549BC3" transform="translate(77,29)"/>
<path d="M0 0 C0 0.99 0 1.98 0 3 C-4.95 3 -9.9 3 -15 3 C-12.74829688 0.74829688 -11.67012422 0.48526 -8.625 -0.1875 C-7.85414062 -0.36667969 -7.08328125 -0.54585938 -6.2890625 -0.73046875 C-3.88917728 -1.01304909 -2.28329465 -0.73503321 0 0 Z " fill="#59A1D9" transform="translate(57,124)"/>
<path d="M0 0 C1.23556641 0.01740234 1.23556641 0.01740234 2.49609375 0.03515625 C3.32238281 0.04417969 4.14867187 0.05320312 5 0.0625 C5.63808594 0.07410156 6.27617187 0.08570312 6.93359375 0.09765625 C6.93359375 1.08765625 6.93359375 2.07765625 6.93359375 3.09765625 C6.27359375 3.09765625 5.61359375 3.09765625 4.93359375 3.09765625 C4.93359375 2.43765625 4.93359375 1.77765625 4.93359375 1.09765625 C3.28359375 1.09765625 1.63359375 1.09765625 -0.06640625 1.09765625 C0.26359375 1.75765625 0.59359375 2.41765625 0.93359375 3.09765625 C1.00309916 4.63789621 1.01811732 6.18100613 0.99609375 7.72265625 C0.98707031 8.53992188 0.97804687 9.3571875 0.96875 10.19921875 C0.95714844 10.82570313 0.94554687 11.4521875 0.93359375 12.09765625 C0.60359375 12.09765625 0.27359375 12.09765625 -0.06640625 12.09765625 C-0.26171875 10.11197917 -0.45703125 8.12630208 -0.65234375 6.140625 C-0.99306016 3.79777483 -0.99306016 3.79777483 -3.06640625 1.09765625 C-2.06640625 0.09765625 -2.06640625 0.09765625 0 0 Z " fill="#5F92B0" transform="translate(229.06640625,103.90234375)"/>
<path d="M0 0 C2.79163712 2.40768703 3.89717557 4.76146616 5.1875 8.1875 C5.53167969 9.08855469 5.87585938 9.98960938 6.23046875 10.91796875 C6.48441406 11.60503906 6.73835938 12.29210937 7 13 C5.109375 12.73828125 5.109375 12.73828125 3 12 C1.953125 10.29296875 1.953125 10.29296875 1.25 8.1875 C1.00765625 7.50042969 0.7653125 6.81335938 0.515625 6.10546875 C0 4 0 4 0 0 Z " fill="#4D97BE" transform="translate(260,105)"/>
<path d="M0 0 C2 2 2 2 2 5 C2.66 5 3.32 5 4 5 C4 5.99 4 6.98 4 8 C4.99 8 5.98 8 7 8 C7.33 7.34 7.66 6.68 8 6 C8.33 6.66 8.66 7.32 9 8 C8.67 8.66 8.34 9.32 8 10 C5.6875 9.8125 5.6875 9.8125 3 9 C0.39811744 5.68035674 0 4.30683959 0 0 Z " fill="#5F98BE" transform="translate(325,76)"/>
<path d="M0 0 C-0.6875 1.9375 -0.6875 1.9375 -2 4 C-4.625 4.75 -4.625 4.75 -7 5 C-7.33 3.68 -7.66 2.36 -8 1 C-5.29120665 -0.35439668 -2.99066732 -0.06501451 0 0 Z " fill="#4D91BC" transform="translate(32,49)"/>
<path d="M0 0 C1.32 0 2.64 0 4 0 C4.33 2.31 4.66 4.62 5 7 C4.01 7.495 4.01 7.495 3 8 C1.5 6.8125 1.5 6.8125 0 5 C-0.1875 2.3125 -0.1875 2.3125 0 0 Z " fill="#4E9ACF" transform="translate(309,37)"/>
<path d="M0 0 C2 1 2 1 3 3 C1.40084119 3.69906942 -0.20455045 4.38389468 -1.8125 5.0625 C-2.70582031 5.44535156 -3.59914063 5.82820312 -4.51953125 6.22265625 C-7 7 -7 7 -10 6 C-8.35 5.67 -6.7 5.34 -5 5 C-5 4.34 -5 3.68 -5 3 C-2.625 1.3125 -2.625 1.3125 0 0 Z " fill="#5A9BC3" transform="translate(95,124)"/>
<path d="M0 0 C0.66 0.33 1.32 0.66 2 1 C2.625 3.5625 2.625 3.5625 3 6 C2.01 6.33 1.02 6.66 0 7 C-0.73323796 9.01508358 -0.73323796 9.01508358 -1 11 C-0.67 8.69 -0.34 6.38 0 4 C-0.99 3.67 -1.98 3.34 -3 3 C-2.01 2.01 -1.02 1.02 0 0 Z " fill="#6598B7" transform="translate(191,104)"/>
<path d="M0 0 C0.99 0.33 1.98 0.66 3 1 C2.34 2.65 1.68 4.3 1 6 C-0.65 6 -2.3 6 -4 6 C-4 5.01 -4 4.02 -4 3 C-2.1875 1.25 -2.1875 1.25 0 0 Z " fill="#659FC0" transform="translate(422,80)"/>
<path d="M0 0 C0 2.64 0 5.28 0 8 C-0.99 8.33 -1.98 8.66 -3 9 C-4 6 -4 6 -4 3 C-4.66 2.34 -5.32 1.68 -6 1 C-4 0 -4 0 0 0 Z " fill="#45A0DA" transform="translate(257,72)"/>
<path d="M0 0 C1.32 0 2.64 0 4 0 C3.814375 0.7425 3.62875 1.485 3.4375 2.25 C3.00796892 4.94990963 3.14877026 6.44631077 4 9 C3.01 8.67 2.02 8.34 1 8 C0.67 5.36 0.34 2.72 0 0 Z " fill="#4C9FD0" transform="translate(294,71)"/>
<path d="M0 0 C4.29 0 8.58 0 13 0 C13 0.66 13 1.32 13 2 C10.39417629 2.93065133 9.35801776 3.14917407 6.75 2.0625 C5.88375 1.5365625 5.88375 1.5365625 5 1 C4.67 1.99 4.34 2.98 4 4 C3.67 3.34 3.34 2.68 3 2 C2.01 1.67 1.02 1.34 0 1 C0 0.67 0 0.34 0 0 Z " fill="#57A1CB" transform="translate(273,71)"/>
<path d="M0 0 C0.66 0.33 1.32 0.66 2 1 C2 2.65 2 4.3 2 6 C-0.31 5.67 -2.62 5.34 -5 5 C-5 4.01 -5 3.02 -5 2 C-2.525 2.495 -2.525 2.495 0 3 C0 2.01 0 1.02 0 0 Z " fill="#4BA2D5" transform="translate(179,113)"/>
<path d="M0 0 C0.66 0.66 1.32 1.32 2 2 C1.625 4.625 1.625 4.625 1 7 C1.99 7.33 2.98 7.66 4 8 C2.02 8.66 0.04 9.32 -2 10 C-1.54177532 6.53058454 -1.10868317 3.32604951 0 0 Z " fill="#53A3D4" transform="translate(351,71)"/>
<path d="M0 0 C2.31 0 4.62 0 7 0 C6.67 1.32 6.34 2.64 6 4 C5.34 3.67 4.68 3.34 4 3 C3.01 4.485 3.01 4.485 2 6 C0 3 0 3 0 0 Z " fill="#659ABD" transform="translate(454,70)"/>
<path d="M0 0 C2 1 2 1 4 4 C2.1875 5.5625 2.1875 5.5625 0 7 C-0.99 6.67 -1.98 6.34 -3 6 C-1.125 1.125 -1.125 1.125 0 0 Z " fill="#5D97BC" transform="translate(18,45)"/>
<path d="M0 0 C0 2.64 0 5.28 0 8 C-0.99 8 -1.98 8 -3 8 C-3.33 5.69 -3.66 3.38 -4 1 C-1 0 -1 0 0 0 Z " fill="#459FD7" transform="translate(284,104)"/>
<path d="M0 0 C0.66 1.98 1.32 3.96 2 6 C0.35 6 -1.3 6 -3 6 C-3 5.34 -3 4.68 -3 4 C-3.66 4 -4.32 4 -5 4 C-5 3.34 -5 2.68 -5 2 C-2 0 -2 0 0 0 Z " fill="#4F9DC6" transform="translate(176,78)"/>
<path d="M0 0 C4.95 0.99 4.95 0.99 10 2 C10.33 3.32 10.66 4.64 11 6 C10.34 5.34 9.68 4.68 9 4 C5.41656024 3.83322718 5.41656024 3.83322718 2 4 C2 4.66 2 5.32 2 6 C1.34 6 0.68 6 0 6 C0 4.02 0 2.04 0 0 Z " fill="#6194B1" transform="translate(21,53)"/>
<path d="M0 0 C1.44197868 2.88395737 1.58833581 5.82430479 2 9 C-2.455 9.495 -2.455 9.495 -7 10 C-7 9.01 -7 8.02 -7 7 C-4.03 7.495 -4.03 7.495 -1 8 C-1.020625 6.865625 -1.04125 5.73125 -1.0625 4.5625 C-1 1 -1 1 0 0 Z " fill="#5D93B2" transform="translate(429,43)"/>
<path d="M0 0 C0.66 0 1.32 0 2 0 C2.33 2.31 2.66 4.62 3 7 C1.68 7 0.36 7 -1 7 C-0.67 4.69 -0.34 2.38 0 0 Z " fill="#499CD3" transform="translate(425,44)"/>
<path d="M0 0 C0.99 0.33 1.98 0.66 3 1 C2.67 2.32 2.34 3.64 2 5 C-0.31 4.67 -2.62 4.34 -5 4 C-2.6875 1.9375 -2.6875 1.9375 0 0 Z " fill="#619AC0" transform="translate(406,114)"/>
<path d="M0 0 C2 3 2 3 2 5 C3.32 5 4.64 5 6 5 C6.33 4.34 6.66 3.68 7 3 C7.33 3.99 7.66 4.98 8 6 C4.7 6 1.4 6 -2 6 C-1.34 4.02 -0.68 2.04 0 0 Z " fill="#5C98B5" transform="translate(239,114)"/>
<path d="M0 0 C0.66 0.33 1.32 0.66 2 1 C1.67 1.99 1.34 2.98 1 4 C-1.31 4.33 -3.62 4.66 -6 5 C-6 4.01 -6 3.02 -6 2 C-4.02 2 -2.04 2 0 2 C0 1.34 0 0.68 0 0 Z " fill="#549FD6" transform="translate(241,109)"/>
<path d="M0 0 C1.65 0 3.3 0 5 0 C5 0.99 5 1.98 5 3 C3.68 3 2.36 3 1 3 C1 5.64 1 8.28 1 11 C0.67 11 0.34 11 0 11 C0 7.37 0 3.74 0 0 Z " fill="#4C95C6" transform="translate(364,105)"/>
<path d="M0 0 C2.625 0.9375 2.625 0.9375 5 2 C4.67 2.99 4.34 3.98 4 5 C2.68 5 1.36 5 0 5 C0 4.34 0 3.68 0 3 C-0.66 3 -1.32 3 -2 3 C-2 2.34 -2 1.68 -2 1 C-1.34 0.67 -0.68 0.34 0 0 Z " fill="#569EC2" transform="translate(265,82)"/>
<path d="M0 0 C2 2 2 2 2.046875 3.91015625 C1.94890625 4.62042969 1.8509375 5.33070312 1.75 6.0625 C1.61851562 7.13177734 1.61851562 7.13177734 1.484375 8.22265625 C1.32453125 8.80917969 1.1646875 9.39570312 1 10 C0.01 10.495 0.01 10.495 -1 11 C-2.25 3.375 -2.25 3.375 0 0 Z " fill="#4693C1" transform="translate(278,72)"/>
<path d="M0 0 C0.33 0 0.66 0 1 0 C1.06058594 0.62648437 1.12117187 1.25296875 1.18359375 1.8984375 C1.26738281 2.71570312 1.35117188 3.53296875 1.4375 4.375 C1.55931641 5.59316406 1.55931641 5.59316406 1.68359375 6.8359375 C1.89090114 9.04272805 1.89090114 9.04272805 3 11 C1.35 11.66 -0.3 12.32 -2 13 C-2.33 12.01 -2.66 11.02 -3 10 C-2.34 10 -1.68 10 -1 10 C-0.67 6.7 -0.34 3.4 0 0 Z " fill="#549EC1" transform="translate(220,40)"/>
<path d="M0 0 C2.475 0.495 2.475 0.495 5 1 C5 2.98 5 4.96 5 7 C4.01 7.33 3.02 7.66 2 8 C1.34 5.36 0.68 2.72 0 0 Z " fill="#50A0CB" transform="translate(373,45)"/>
<path d="M0 0 C0.66 0.99 1.32 1.98 2 3 C1.67 3.99 1.34 4.98 1 6 C1.66 6 2.32 6 3 6 C3.66 7.32 4.32 8.64 5 10 C0.125 8.125 0.125 8.125 -1 7 C-1.125 4 -1.125 4 -1 1 C-0.67 0.67 -0.34 0.34 0 0 Z " fill="#548FBB" transform="translate(369,37)"/>
<path d="M0 0 C2.64 0 5.28 0 8 0 C8 0.99 8 1.98 8 3 C6.35 2.67 4.7 2.34 3 2 C2.67 2.99 2.34 3.98 2 5 C1.01 4.34 0.02 3.68 -1 3 C-0.67 2.01 -0.34 1.02 0 0 Z " fill="#5698BC" transform="translate(417,36)"/>
<path d="M0 0 C0.99 0 1.98 0 3 0 C3 0.99 3 1.98 3 3 C2.34 3 1.68 3 1 3 C1 7.62 1 12.24 1 17 C0.67 17 0.34 17 0 17 C0 11.39 0 5.78 0 0 Z " fill="#6886A0" transform="translate(133,13)"/>
<path d="M0 0 C1.65 0 3.3 0 5 0 C5.33 2.97 5.66 5.94 6 9 C5.01 9.495 5.01 9.495 4 10 C4.33 8.35 4.66 6.7 5 5 C4.34 5 3.68 5 3 5 C2.87625 4.360625 2.7525 3.72125 2.625 3.0625 C2.315625 2.0415625 2.315625 2.0415625 2 1 C1.34 0.67 0.68 0.34 0 0 Z " fill="#4F96C7" transform="translate(95,116)"/>
<path d="M0 0 C0.99 0 1.98 0 3 0 C2.67 2.31 2.34 4.62 2 7 C2.66 7.33 3.32 7.66 4 8 C3.67 8.99 3.34 9.98 3 11 C2.01 10.67 1.02 10.34 0 10 C0 6.7 0 3.4 0 0 Z " fill="#4B98CC" transform="translate(274,106)"/>
<path d="M0 0 C0.33 1.32 0.66 2.64 1 4 C3.33075929 3.04134491 3.33075929 3.04134491 5 0 C4.74438677 2.3431213 4.40729228 4.67843403 4 7 C3.01 7.495 3.01 7.495 2 8 C2 7.34 2 6.68 2 6 C1.01 5.67 0.02 5.34 -1 5 C-0.67 3.35 -0.34 1.7 0 0 Z " fill="#6096B7" transform="translate(185,82)"/>
<path d="M0 0 C2.31 0 4.62 0 7 0 C7 0.99 7 1.98 7 3 C4.69 3 2.38 3 0 3 C0 2.01 0 1.02 0 0 Z " fill="#5C9FC8" transform="translate(235,70)"/>
<path d="M0 0 C1.32 0 2.64 0 4 0 C4.33 1.65 4.66 3.3 5 5 C4.34 5 3.68 5 3 5 C3 5.66 3 6.32 3 7 C2.34 7 1.68 7 1 7 C0.67 4.69 0.34 2.38 0 0 Z " fill="#469ED1" transform="translate(404,37)"/>
<path d="M0 0 C0.99 0.33 1.98 0.66 3 1 C3.33 3.97 3.66 6.94 4 10 C3.01 10.33 2.02 10.66 1 11 C0.67 7.37 0.34 3.74 0 0 Z " fill="#4C9DD1" transform="translate(229,105)"/>
<path d="M0 0 C0.99 0 1.98 0 3 0 C3 1.98 3 3.96 3 6 C2.01 6 1.02 6 0 6 C0 5.34 0 4.68 0 4 C-0.66 3.67 -1.32 3.34 -2 3 C-1.34 2.01 -0.68 1.02 0 0 Z " fill="#48A0D0" transform="translate(401,76)"/>
<path d="M0 0 C0.99 0.99 1.98 1.98 3 3 C2.01 3.99 1.02 4.98 0 6 C-2 5 -2 5 -4 2 C-2.68 1.34 -1.36 0.68 0 0 Z " fill="#46A5DA" transform="translate(26,57)"/>
<path d="M0 0 C0.33 0.66 0.66 1.32 1 2 C0.67 2.66 0.34 3.32 0 4 C1.65 4.33 3.3 4.66 5 5 C5.33 4.34 5.66 3.68 6 3 C6 4.32 6 5.64 6 7 C3.36 7 0.72 7 -2 7 C-1.125 1.125 -1.125 1.125 0 0 Z " fill="#5F97B2" transform="translate(206,46)"/>
<path d="M0 0 C1.5 1.375 1.5 1.375 3 3 C3 3.66 3 4.32 3 5 C4.32 5.33 5.64 5.66 7 6 C7 6.66 7 7.32 7 8 C5.68 8 4.36 8 3 8 C3 7.34 3 6.68 3 6 C2.34 6 1.68 6 1 6 C0.67 4.02 0.34 2.04 0 0 Z " fill="#5F9FC2" transform="translate(359,44)"/>
<path d="M0 0 C2.01822917 0.06510417 4.03645833 0.13020833 6.0546875 0.1953125 C6.3846875 1.1853125 6.7146875 2.1753125 7.0546875 3.1953125 C6.3946875 3.1953125 5.7346875 3.1953125 5.0546875 3.1953125 C5.0546875 2.5353125 5.0546875 1.8753125 5.0546875 1.1953125 C3.4046875 1.1953125 1.7546875 1.1953125 0.0546875 1.1953125 C-0.2753125 2.5153125 -0.6053125 3.8353125 -0.9453125 5.1953125 C-0.9453125 4.5353125 -0.9453125 3.8753125 -0.9453125 3.1953125 C-1.9353125 2.8653125 -2.9253125 2.5353125 -3.9453125 2.1953125 C-1.9453125 0.1953125 -1.9453125 0.1953125 0 0 Z " fill="#6095B6" transform="translate(307.9453125,35.8046875)"/>
<path d="M0 0 C0.66 0 1.32 0 2 0 C2 0.66 2 1.32 2 2 C2.99 2 3.98 2 5 2 C5.33 2.99 5.66 3.98 6 5 C4.02 5 2.04 5 0 5 C0 3.35 0 1.7 0 0 Z " fill="#4C9ACA" transform="translate(350,114)"/>
<path d="M0 0 C2.97 0 5.94 0 9 0 C9.33 0.99 9.66 1.98 10 3 C9.34 3 8.68 3 8 3 C7.67 3.99 7.34 4.98 7 6 C7 4.35 7 2.7 7 1 C5.02 1 3.04 1 1 1 C0.67 1.66 0.34 2.32 0 3 C0 2.01 0 1.02 0 0 Z " fill="#6293B0" transform="translate(337,104)"/>
<path d="M0 0 C0.33 0.66 0.66 1.32 1 2 C3.52733235 2.65555119 3.52733235 2.65555119 6 3 C6.33 2.01 6.66 1.02 7 0 C7.33 1.32 7.66 2.64 8 4 C5.03 4 2.06 4 -1 4 C-0.67 2.68 -0.34 1.36 0 0 Z " fill="#679EC0" transform="translate(472,82)"/>
<path d="M0 0 C4.75 1.875 4.75 1.875 7 3 C6.67 3.66 6.34 4.32 6 5 C4.02 5 2.04 5 0 5 C0 3.35 0 1.7 0 0 Z " fill="#6CA1C5" transform="translate(393,82)"/>
<path d="M0 0 C0.99 1.32 1.98 2.64 3 4 C2.01 4.33 1.02 4.66 0 5 C-0.33 5.99 -0.66 6.98 -1 8 C-2.32 7.67 -3.64 7.34 -5 7 C-4.360625 6.21625 -3.72125 5.4325 -3.0625 4.625 C-1.01857687 2.20460719 -1.01857687 2.20460719 0 0 Z " fill="#60A5D0" transform="translate(469,77)"/>
<path d="M0 0 C2.475 0.99 2.475 0.99 5 2 C4.625 4.4375 4.625 4.4375 4 7 C3.01 7.495 3.01 7.495 2 8 C2.33 6.35 2.66 4.7 3 3 C2.01 2.67 1.02 2.34 0 2 C0 1.34 0 0.68 0 0 Z " fill="#569BC1" transform="translate(87,49)"/>
<path d="M0 0 C1.98 0 3.96 0 6 0 C6 0.66 6 1.32 6 2 C5.34 2 4.68 2 4 2 C4 2.66 4 3.32 4 4 C2.68 4 1.36 4 0 4 C0 2.68 0 1.36 0 0 Z " fill="#5EA3CD" transform="translate(200,42)"/>
<path d="M0 0 C1.98 0 3.96 0 6 0 C6 0.99 6 1.98 6 3 C4.35 3.33 2.7 3.66 1 4 C0.67 2.68 0.34 1.36 0 0 Z " fill="#459FD6" transform="translate(220,37)"/>
<path d="M0 0 C2.64 0 5.28 0 8 0 C7.67 0.99 7.34 1.98 7 3 C7 2.34 7 1.68 7 1 C5.35 1 3.7 1 2 1 C2 2.65 2 4.3 2 6 C1.67 5.01 1.34 4.02 1 3 C0.34 3 -0.32 3 -1 3 C-0.67 2.01 -0.34 1.02 0 0 Z " fill="#6099B9" transform="translate(349,104)"/>
<path d="M0 0 C2.64 0 5.28 0 8 0 C6 3 6 3 2.875 3.6875 C1.92625 3.790625 0.9775 3.89375 0 4 C0 2.68 0 1.36 0 0 Z " fill="#5DA0C5" transform="translate(212,105)"/>
<path d="M0 0 C0.99 0.66 1.98 1.32 3 2 C3 2.66 3 3.32 3 4 C-0.3 4 -3.6 4 -7 4 C-6.67 3.01 -6.34 2.02 -6 1 C-3.03 1.495 -3.03 1.495 0 2 C0 1.34 0 0.68 0 0 Z " fill="#6098B6" transform="translate(360,82)"/>
<path d="M0 0 C1.74627478 2.61941217 2.38722388 4.03824877 3 7 C0.69 6.34 -1.62 5.68 -4 5 C-3.01 4.34 -2.02 3.68 -1 3 C-0.67 2.01 -0.34 1.02 0 0 Z " fill="#5396C1" transform="translate(474,72)"/>
<path d="M0 0 C2.64 0 5.28 0 8 0 C8.33 0.99 8.66 1.98 9 3 C8.34 3 7.68 3 7 3 C6.67 3.99 6.34 4.98 6 6 C6 4.35 6 2.7 6 1 C4.35 1 2.7 1 1 1 C0.67 1.66 0.34 2.32 0 3 C0 2.01 0 1.02 0 0 Z " fill="#6090AE" transform="translate(193,36)"/>
<path d="M0 0 C1.98 0.99 1.98 0.99 4 2 C3.67 5.3 3.34 8.6 3 12 C2.67 12 2.34 12 2 12 C1.34 8.04 0.68 4.08 0 0 Z " fill="#519BC9" transform="translate(310,105)"/>
<path d="M0 0 C0.99 0.66 1.98 1.32 3 2 C2.67 2.99 2.34 3.98 2 5 C-0.64 4.67 -3.28 4.34 -6 4 C-6 3.01 -6 2.02 -6 1 C-5.67 1.66 -5.34 2.32 -5 3 C-3.35 2.67 -1.7 2.34 0 2 C0 1.34 0 0.68 0 0 Z " fill="#6396B6" transform="translate(298,82)"/>
<path d="M0 0 C1.485 0.99 1.485 0.99 3 2 C3.66 1.34 4.32 0.68 5 0 C5.33 1.65 5.66 3.3 6 5 C4.35 5 2.7 5 1 5 C0.67 3.35 0.34 1.7 0 0 Z " fill="#489AC7" transform="translate(355,80)"/>
<path d="M0 0 C2.475 0.99 2.475 0.99 5 2 C5 1.34 5 0.68 5 0 C5.66 0 6.32 0 7 0 C6.67 1.32 6.34 2.64 6 4 C3.69 3.67 1.38 3.34 -1 3 C-0.67 2.01 -0.34 1.02 0 0 Z " fill="#6896AD" transform="translate(250,117)"/>
<path d="M0 0 C-0.66 0 -1.32 0 -2 0 C-2 0.66 -2 1.32 -2 2 C-4.64 1.67 -7.28 1.34 -10 1 C-10 0.67 -10 0.34 -10 0 C-6.33694766 -0.74926071 -3.57644848 -1.2380014 0 0 Z " fill="#689FC6" transform="translate(220,119)"/>
<path d="M0 0 C0.66 0 1.32 0 2 0 C2 3.96 2 7.92 2 12 C1.67 12 1.34 12 1 12 C1 9.03 1 6.06 1 3 C0.34 3 -0.32 3 -1 3 C-0.67 2.01 -0.34 1.02 0 0 Z " fill="#6693B2" transform="translate(290,104)"/>
<path d="M0 0 C0.33 0.66 0.66 1.32 1 2 C1.99 2 2.98 2 4 2 C4 2.66 4 3.32 4 4 C1.36 4 -1.28 4 -4 4 C-2.68 2.68 -1.36 1.36 0 0 Z " fill="#53A1CE" transform="translate(348,82)"/>
<path d="M0 0 C2.31 0 4.62 0 7 0 C7.66 1.32 8.32 2.64 9 4 C7.68 3.67 6.36 3.34 5 3 C5 2.34 5 1.68 5 1 C3.68 1 2.36 1 1 1 C0.67 1.66 0.34 2.32 0 3 C0 2.01 0 1.02 0 0 Z " fill="#5F94B9" transform="translate(442,70)"/>
<path d="M0 0 C0 0.66 0 1.32 0 2 C0.66 2.33 1.32 2.66 2 3 C-0.31 3.33 -2.62 3.66 -5 4 C-5 3.01 -5 2.02 -5 1 C-3 0 -3 0 0 0 Z " fill="#48A1C6" transform="translate(180,49)"/>
<path d="M0 0 C0.33 0 0.66 0 1 0 C1.125 7.625 1.125 7.625 0 11 C-0.99 11 -1.98 11 -3 11 C-2.690625 10.484375 -2.38125 9.96875 -2.0625 9.4375 C-0.70940713 6.33334577 -0.38640576 3.34884993 0 0 Z " fill="#5D95B7" transform="translate(328,41)"/>
<path d="M0 0 C0.33 0.66 0.66 1.32 1 2 C0.34 1.67 -0.32 1.34 -1 1 C-0.67 0.67 -0.34 0.34 0 0 Z " fill="#71E2E2" transform="translate(48,115)"/>
<path d="" fill="#808080" transform="translate(0,0)"/>
<path d="" fill="#808080" transform="translate(0,0)"/>
<path d="" fill="#00FFFF" transform="translate(0,0)"/>
<path d="" fill="#808080" transform="translate(0,0)"/>
<path d="" fill="#FFFFFF" transform="translate(0,0)"/>
<path d="" fill="#00FFFF" transform="translate(0,0)"/>
</svg>
